<svg width="184" height="122" viewBox="0 0 184 122" fill="none" xmlns="http://www.w3.org/2000/svg">
<g clip-path="url(#clip0_181_2471)">
<mask id="mask0_181_2471" style="mask-type:luminance" maskUnits="userSpaceOnUse" x="0" y="0" width="184" height="122">
<path d="M184 0H0V121.59H184V0Z" fill="white"/>
</mask>
<g mask="url(#mask0_181_2471)">
<path d="M75.3877 36.0625C74.3164 34.2117 77.2488 26.0599 75.9473 25.8433C74.6456 25.6266 73.1827 30.2138 72.5284 29.3276C71.8741 28.4414 70.1918 21.4725 68.8427 21.8268C68.0508 22.0349 69.6465 28.1813 69.6465 28.1813C69.3906 27.5759 66.8398 18.98 65.7687 19.5144C64.6976 20.0487 67.5592 28.8457 67.5592 28.8457C67.5592 28.8457 63.7104 22.235 63.2482 22.978C62.7857 23.7207 66.0813 30.2516 66.0813 30.2516C66.0813 30.2516 63.1243 26.9732 62.7241 27.8023C62.0686 29.1612 70.9582 37.7819 70.9582 37.7819L75.3877 36.0625Z" fill="#E7AC8D"/>
<path d="M151.291 31.0819C151.569 28.9645 145.724 22.5483 146.843 21.8529C147.962 21.1575 151.079 24.8392 151.342 23.7714C151.606 22.7037 150.48 15.6248 151.863 15.4388C152.675 15.3298 153.564 21.6157 153.564 21.6157C153.568 20.9589 152.618 12.0465 153.814 12.1329C155.009 12.219 155.749 21.4354 155.749 21.4354C155.749 21.4354 156.762 13.8633 157.475 14.3738C158.188 14.8842 157.655 22.172 157.655 22.172C157.655 22.172 159.126 18.0179 159.814 18.6318C160.943 19.6378 156.045 30.9851 156.045 30.9851L151.291 31.0819Z" fill="#E7AC8D"/>
<path d="M101.475 86.529C101.475 86.529 92.2458 109.211 91.9033 120.784L125.239 125.388C125.239 125.388 128.85 97.2369 125.863 88.6598L101.475 86.529Z" fill="#DC5959"/>
<path opacity="0.3" d="M125.863 88.6601L101.475 86.5292C101.475 86.5292 101.309 86.834 101.034 87.3925C101.047 87.4179 101.06 87.4423 101.075 87.4686C101.459 88.1486 101.931 88.7779 102.462 89.3508C103.067 90.0021 103.748 90.5811 104.479 91.0874C106.152 92.2469 108.06 93.0308 110.001 93.655C115.469 95.4145 121.329 95.9564 127.03 95.2388C126.897 92.8986 126.547 90.6238 125.863 88.6601Z" fill="#586E9A"/>
<path d="M101.475 86.529C101.475 86.529 95.7173 54.2607 99.963 49.7882C104.209 45.3157 125.69 41.8982 129.4 46.0523C133.111 50.2064 127.865 88.3026 125.863 88.6598C108.135 91.824 101.475 86.529 101.475 86.529Z" fill="#484866"/>
<path d="M99.0194 68.7885C108.466 68.8861 117.925 68.3585 127.296 67.1939C128.19 67.0829 129.083 66.9638 129.975 66.8409C130.155 65.024 130.308 63.2106 130.427 61.4519C126.852 61.9687 123.265 62.3954 119.667 62.7241C117.013 62.9666 114.354 63.1577 111.692 63.2972C111.388 63.3131 111.084 63.3282 110.78 63.3429C110.714 63.3456 110.333 63.3629 110.262 63.3658C109.549 63.3958 108.835 63.4222 108.122 63.4446C106.79 63.4868 105.457 63.5161 104.124 63.5325C102.278 63.5552 100.431 63.5493 98.5842 63.5222C98.6929 65.2458 98.8435 67.0224 99.0194 68.7885Z" fill="#5D5D87"/>
<path d="M119.772 40.8065L109.716 39.6354L108.85 46.9916L118.906 48.1628L119.772 40.8065Z" fill="#E7AC8D"/>
<path opacity="0.3" d="M109.602 40.6238C109.888 40.4984 110.189 40.4022 110.491 40.3193C111.063 40.1621 111.642 40.0352 112.224 39.9267L119.774 40.806L119.592 42.3547C119.538 42.3923 119.485 42.4286 119.438 42.4626C118.516 43.135 117.474 43.6335 116.394 44.001C115.775 44.2118 115.141 44.3802 114.501 44.5144C112.924 44.845 111.217 44.966 109.758 44.284C109.567 44.1942 109.382 44.0871 109.208 43.9661L109.602 40.6238Z" fill="#D3AB90"/>
<path d="M108.015 27.399C106.664 31.7185 104.272 36.1976 106.228 39.4028C108.837 43.676 118.838 46.0296 123.644 37.709C128.1 29.9929 126.796 20.9725 120.701 19.6073C111.707 17.5929 109.263 23.4115 108.015 27.399Z" fill="#E7AC8D"/>
<path d="M127.023 31.2637C127.838 31.6016 128.39 32.4808 128.339 33.3567C128.3 34.0338 127.939 34.6538 127.505 35.177C126.779 36.0505 125.821 36.7313 124.755 37.1304C124.432 37.2515 124.093 37.3481 123.747 37.342C123.401 37.3359 123.046 37.2163 122.814 36.9616C122.514 36.6317 122.469 36.1466 122.49 35.7021C122.541 34.6107 122.904 33.5383 123.513 32.6301C123.997 31.9079 124.454 31.6299 125.243 31.3271C125.827 31.1029 126.428 31.0168 127.023 31.2637Z" fill="#E7AC8D"/>
<path d="M109.326 31.4228C109.337 31.5516 109.366 31.6822 109.436 31.791C109.506 31.9001 109.622 31.9852 109.752 31.9942C109.895 32.0042 110.029 31.924 110.131 31.8247C110.338 31.6219 110.446 31.3391 110.515 31.058C110.581 30.7884 110.619 30.4697 110.433 30.236C110.311 30.083 110.07 29.9754 109.882 30.0676C109.712 30.1508 109.614 30.3785 109.53 30.5349C109.382 30.8106 109.298 31.1083 109.326 31.4228Z" fill="#3A2B2B"/>
<path d="M115.215 32.4756C115.226 32.6045 115.256 32.735 115.326 32.8438C115.396 32.9529 115.512 33.0381 115.642 33.0471C115.784 33.0571 115.918 32.9768 116.02 32.8775C116.228 32.6748 116.336 32.392 116.405 32.1109C116.471 31.8412 116.508 31.5226 116.322 31.2888C116.201 31.1358 115.96 31.0282 115.771 31.1205C115.601 31.2037 115.503 31.4316 115.419 31.5877C115.271 31.8635 115.188 32.1611 115.215 32.4756Z" fill="#3A2B2B"/>
<path d="M113.533 36.864C113.401 36.7325 113.208 36.6759 113.02 36.6712C112.833 36.6668 112.648 36.7093 112.466 36.7515C112.031 36.8523 111.634 37.0646 111.16 37.0538C110.937 37.0487 110.733 36.9042 110.546 36.7774C110.322 36.6261 110.103 36.4565 109.843 36.3848C109.583 36.313 109.264 36.3674 109.114 36.5912C109.004 36.7564 109.009 36.9718 109.043 37.1673C109.155 37.8129 109.544 38.4058 110.094 38.7667C110.644 39.1276 111.345 39.2508 111.986 39.0995C112.627 38.948 113.198 38.5239 113.526 37.9556C113.624 37.7856 113.702 37.5996 113.716 37.4044C113.73 37.2088 113.673 37.0021 113.533 36.864Z" fill="#914646"/>
<path d="M109.492 37.9451C109.451 37.9637 109.407 37.9835 109.364 38.0052C109.549 38.3072 109.797 38.5715 110.094 38.7664C110.644 39.1273 111.346 39.2505 111.986 39.0993C112.122 39.0671 112.254 39.0202 112.383 38.9646C112.132 38.4634 111.686 38.0591 111.156 37.8698C110.945 37.7944 110.722 37.7536 110.498 37.7463C110.153 37.7351 109.806 37.8029 109.492 37.9451Z" fill="#D66363"/>
<path d="M113.02 36.6712C112.833 36.6669 112.648 36.7093 112.466 36.7515C112.031 36.8523 111.634 37.0646 111.16 37.0538C110.936 37.0487 110.733 36.9043 110.546 36.7774C110.322 36.6261 110.103 36.4565 109.843 36.3848C109.745 36.3579 109.639 36.3487 109.537 36.3597C109.556 36.5239 109.682 36.722 109.771 36.8223C109.833 36.8918 109.903 36.9538 109.98 37.007C110.237 37.1853 110.548 37.2683 110.857 37.3205C111.205 37.3793 111.563 37.4028 111.912 37.3501C112.261 37.2976 112.603 37.1658 112.873 36.9399C112.942 36.8823 113.008 36.8172 113.047 36.7366C113.056 36.7174 113.064 36.6971 113.07 36.6761C113.053 36.6749 113.037 36.6717 113.02 36.6712Z" fill="white"/>
<path d="M111.082 34.1834C110.988 34.1492 110.884 34.1139 110.791 34.1512C110.693 34.1907 110.64 34.3042 110.644 34.4096C110.647 34.515 110.694 34.6138 110.746 34.7058C110.848 34.8871 110.973 35.0591 111.136 35.1887C111.3 35.3182 111.505 35.4032 111.714 35.3966C111.905 35.3905 112.092 35.3056 112.222 35.1665C112.351 35.0274 112.422 34.8356 112.414 34.646C112.411 34.5787 112.398 34.5084 112.355 34.4557C112.314 34.4037 112.249 34.3749 112.183 34.3635C112.101 34.3496 112.021 34.3635 111.94 34.3666C111.843 34.3705 111.746 34.361 111.65 34.3452C111.456 34.313 111.267 34.2505 111.082 34.1834Z" fill="#59352F"/>
<path d="M118.406 29.9129C118.134 29.4139 117.712 28.9969 117.209 28.73C116.706 28.4631 116.122 28.3472 115.554 28.4011C116.117 28.0873 116.854 28.0485 117.414 28.3672C117.973 28.6856 118.393 29.2717 118.406 29.9129Z" fill="#59352F"/>
<path d="M109.263 27.4636C109.765 27.193 110.347 27.073 110.915 27.1228C111.484 27.1725 112.036 27.3921 112.482 27.7459C112.184 27.1777 111.587 26.7448 110.943 26.7075C110.299 26.6704 109.626 26.9337 109.263 27.4636Z" fill="#59352F"/>
<path d="M101.343 48.7092C101.343 48.7092 89.9723 56.3174 85.8054 54.5023C81.6384 52.6872 77.3951 35.5601 75.2965 34.9901C70.8648 33.7864 68.4183 38.5571 68.4183 38.5571C68.4183 38.5571 74.8927 62.992 81.3906 63.5098C87.8887 64.0275 103.821 60.8885 103.821 60.8885L101.343 48.7092Z" fill="#484866"/>
<path d="M126.014 44.5651C126.014 44.5651 143.949 48.8005 146.99 47.7091C149.67 46.7475 149.726 30.3006 150.147 30.0056C154.184 27.1765 157.984 30.6547 157.984 30.6547C157.984 30.6547 156.134 55.6742 150.038 57.3927C144.076 59.0734 127.978 56.2486 127.978 56.2486L126.014 44.5651Z" fill="#484866"/>
<path d="M108.211 44.7372C108.276 44.4331 108.296 44.094 108.51 43.8685C108.803 43.5616 109.3 43.6162 109.718 43.6928C111.321 43.9866 112.939 44.2626 114.57 44.2394C116.2 44.2162 117.858 43.8773 119.243 43.0211C119.597 42.8022 119.988 42.539 120.394 42.6349C120.866 42.7466 121.088 43.2788 121.207 43.7472C121.36 44.3485 121.464 44.9687 121.421 45.5875C121.378 46.206 121.179 46.8263 120.781 47.3033C120.266 47.9209 119.479 48.2393 118.711 48.4877C116.368 49.2458 113.825 49.5649 111.431 48.985C110.478 48.7541 109.559 48.3808 108.714 47.8857C108.284 47.6339 107.863 47.3533 107.48 47.0347C107.124 46.7387 107.163 46.4774 107.433 46.1309C107.776 45.6897 108.093 45.2991 108.211 44.7372Z" fill="#5D5D87"/>
<path d="M109.478 24.4083C111.223 25.3482 113.208 25.9138 115.085 26.4142C116.702 26.8453 118.363 27.1364 120.037 27.2116C120.867 27.2487 121.699 27.2331 122.526 27.1542C122.874 27.1211 124.705 27.0586 124.869 26.7504C123.833 28.6971 124.044 31.2337 125.386 32.9851C127.06 31.8703 128.355 30.2045 129.02 28.3135C129.684 26.4225 129.714 24.3165 129.102 22.408C128.885 21.7296 128.589 21.074 128.443 20.3771C128.354 19.9523 128.148 19.3802 127.719 19.4609C126.843 18.1126 125.331 17.1932 123.725 17.0331C122.415 16.9023 121.091 17.25 119.782 17.1071C118.429 16.9594 117.191 16.2992 116.037 15.5813C113.771 14.1717 111.005 12.2117 108.201 13.2031C106.826 13.6889 105.695 14.8125 105.205 16.1789C104.435 18.3271 105.294 20.809 106.871 22.4648C107.63 23.2603 108.518 23.891 109.478 24.4083Z" fill="#3A2B2B"/>
<path opacity="0.3" d="M125.863 88.6601C127.118 88.4361 129.648 73.3766 130.447 61.1491C129.705 61.9418 129.676 64.6041 129.496 65.4706C129.058 67.5743 128.517 69.6605 127.779 71.6813C126.273 75.8005 123.869 79.7082 120.321 82.3085C117.388 84.4586 113.763 85.624 110.12 85.7296C106.999 85.8199 103.875 85.1435 101.026 83.8662C101.296 85.5325 101.474 86.5292 101.474 86.5292C101.474 86.5292 108.135 91.824 125.863 88.6601Z" fill="#D49472"/>
<path d="M89.764 53.5653C89.6193 56.7285 89.8933 59.913 90.5775 63.0025C92.0061 62.8297 93.4457 62.6311 94.8235 62.4257C94.0338 58.9433 93.8164 55.4797 94.165 51.972C92.7348 52.5498 91.2235 53.1107 89.764 53.5653Z" fill="white"/>
<path d="M141.825 47.6046C140.48 47.4341 138.996 47.1996 137.49 46.9353C137.805 50.5133 137.211 54.0596 135.731 57.4171C137.141 57.5918 138.645 57.756 140.156 57.8841C141.421 54.6294 141.986 51.096 141.825 47.6046Z" fill="white"/>
</g>
<mask id="mask1_181_2471" style="mask-type:luminance" maskUnits="userSpaceOnUse" x="0" y="0" width="184" height="122">
<path d="M184 0H0V121.59H184V0Z" fill="white"/>
</mask>
<g mask="url(#mask1_181_2471)">
<path d="M72.3304 48.5035C72.3304 48.5035 84.0419 51.8705 87.3659 51.1868C88.0695 51.0421 90.393 34.4865 90.393 34.4865L95.2428 34.8588C95.2428 34.8588 95.416 58.0207 90.8216 59.0795C86.6402 60.043 75.0003 60.2638 75.1358 59.9664C75.2712 59.6692 72.3304 48.5035 72.3304 48.5035Z" fill="#DC5959"/>
<path d="M90.3589 34.5667C90.8207 32.4178 85.3605 25.356 86.5663 24.735C87.7721 24.1138 90.6614 28.1466 91.0208 27.0732C91.3803 25.9999 90.8148 18.647 92.2485 18.5703C93.0902 18.5254 93.4791 25.0456 93.4791 25.0456C93.5375 24.3724 93.3061 15.1536 94.5247 15.3405C95.7433 15.5274 95.7342 25.0407 95.7342 25.0407C95.7342 25.0407 97.4042 17.3584 98.0928 17.9403C98.7815 18.5225 97.6277 25.953 97.6277 25.953C97.6277 25.953 99.4826 21.8138 100.138 22.5002C101.211 23.6248 95.2428 34.859 95.2428 34.859L90.3589 34.5667Z" fill="#E7AC8D"/>
<path d="M73.9472 93.2766C73.9472 93.2766 79.8349 112.261 79.1384 124.154H47.8412C47.8412 124.154 44.9178 101.8 48.7561 93.2766H73.9472Z" fill="#484866"/>
<path opacity="0.3" d="M73.9472 93.2766H48.7561C47.077 97.0056 46.5442 102.005 46.4757 106.451C46.7137 106.219 46.9129 105.67 47.2252 105.299C47.8434 104.564 48.6499 103.988 49.459 103.479C57.0996 98.6753 66.2982 96.3907 75.3134 96.9727C74.5499 94.6664 73.9472 93.2766 73.9472 93.2766Z" fill="#586E9A"/>
<path d="M43.7557 55.8982C42.5911 56.8493 39.8806 74.0882 33.7039 74.957C28.743 75.6549 20.657 60.1175 20.657 60.1175L16.3247 62.3791C16.3247 62.3791 24.4941 86.9648 34.71 85.3483C44.9259 83.7318 48.8728 69.1842 48.8728 69.1842C48.8728 69.1842 46.3967 53.741 43.7557 55.8982Z" fill="#DC5959"/>
<path d="M48.7382 93.2766C48.1597 92.8698 39.9155 60.7174 43.8624 55.7528C47.8093 50.7881 69.5182 45.3615 73.6972 49.287C77.8764 53.2125 73.9293 93.2766 73.9293 93.2766C73.9293 93.2766 56.1477 98.485 48.7382 93.2766Z" fill="#DC5959"/>
<path d="M70.1548 48.0406C70.1538 48.5201 70.1565 48.9896 70.1543 49.4378C70.1288 54.7504 71.0442 60.0647 72.8417 65.1175C73.5669 67.1559 74.4398 69.1501 75.4491 71.0852C75.8326 61.1098 75.6763 51.146 73.6972 49.287C72.9769 48.6104 71.7357 48.2119 70.1548 48.0406Z" fill="#A34545"/>
<path d="M43.8622 55.7525C41.3212 58.9487 43.833 73.412 46.0991 83.4199C46.2259 83.1813 46.3356 82.9346 46.433 82.6935C48.6584 77.1801 49.1567 71.2133 48.7377 65.3703C48.6103 63.5964 48.4006 61.8276 48.1341 60.066C47.7973 57.8397 47.3672 55.6257 46.8989 53.4182C45.54 54.1824 44.4821 54.9732 43.8622 55.7525Z" fill="#A34545"/>
<path opacity="0.3" d="M48.7379 93.2766C56.1477 98.485 73.9292 93.2766 73.9292 93.2766C73.9292 93.2766 74.1648 90.8851 74.4599 87.2146C67.6619 87.0795 60.8959 85.4351 54.8092 82.4191C52.7452 81.3962 50.7398 80.2052 49.0718 78.6219C48.3473 77.9343 47.6916 77.1718 47.1386 76.3408C46.6008 75.5326 46.3469 74.5432 45.8081 73.7602C45.3759 73.1319 44.7353 73.0817 44.0803 73.3079C45.7289 83.0252 48.4165 93.0506 48.7379 93.2766Z" fill="#995959"/>
<path d="M53.6738 52.0246L63.9713 50.4537L62.8096 42.921L52.5122 44.4919L53.6738 52.0246Z" fill="#E7AC8D"/>
<path opacity="0.3" d="M62.9618 43.9339C62.6628 43.8155 62.3497 43.7275 62.0359 43.6533C61.442 43.5125 60.8424 43.4032 60.2394 43.3129L52.5079 44.4926L52.7525 46.0784C52.8099 46.115 52.8654 46.1506 52.9147 46.1838C53.8882 46.8416 54.978 47.316 56.1021 47.6546C56.7466 47.8489 57.4041 47.9987 58.0674 48.1134C59.7011 48.3957 61.4614 48.4579 62.9356 47.7034C63.1294 47.6041 63.3156 47.4872 63.4898 47.3565L62.9618 43.9339Z" fill="#D3AB90"/>
<path d="M64.1051 30.277C65.6544 34.6694 68.2794 39.1881 66.3857 42.555C63.8607 47.0442 53.6634 49.8297 48.415 41.4487C43.5481 33.6771 44.5562 24.3539 50.7734 22.7276C59.9472 20.3281 62.675 26.2224 64.1051 30.277Z" fill="#E7AC8D"/>
<path d="M44.7019 34.9449C43.8771 35.3222 43.3413 36.2462 43.4259 37.1451C43.4914 37.84 43.8855 38.4644 44.3513 38.9863C45.1295 39.8581 46.1398 40.523 47.2507 40.8946C47.5878 41.0073 47.9403 41.0942 48.2953 41.0754C48.6506 41.0566 49.0112 40.9207 49.2403 40.6501C49.5372 40.3 49.5649 39.7996 49.5271 39.343C49.4346 38.2228 49.0218 37.1331 48.3623 36.2215C47.8378 35.4966 47.3569 35.2275 46.5343 34.9449C45.9264 34.7358 45.3047 34.6692 44.7019 34.9449Z" fill="#E7AC8D"/>
<path d="M62.9062 34.4625C62.8993 34.5955 62.874 34.7307 62.8061 34.8451C62.7379 34.9598 62.6218 35.0515 62.4886 35.0657C62.3426 35.0813 62.2013 35.0037 62.0931 34.9049C61.8723 34.7038 61.7509 34.4171 61.6694 34.1307C61.5914 33.8559 61.5416 33.5295 61.7239 33.2825C61.8434 33.1208 62.087 33.0012 62.2845 33.0893C62.4624 33.1686 62.5715 33.3992 62.6638 33.557C62.826 33.835 62.9229 34.138 62.9062 34.4625Z" fill="#6D493C"/>
<path d="M56.8891 35.7601C56.8822 35.8931 56.8569 36.0283 56.7887 36.1427C56.7208 36.2574 56.6045 36.3491 56.4713 36.3633C56.3253 36.3789 56.184 36.3013 56.0758 36.2025C55.855 36.0014 55.7336 35.7147 55.6521 35.4283C55.5741 35.1535 55.5243 34.827 55.7066 34.5801C55.8261 34.4183 56.0694 34.2988 56.2669 34.3869C56.4448 34.4664 56.5542 34.6967 56.6462 34.8546C56.8089 35.1328 56.9055 35.4358 56.8891 35.7601Z" fill="#6D493C"/>
<path d="M58.7801 40.2114C58.9119 40.0713 59.1081 40.0059 59.3005 39.9945C59.4928 39.983 59.6844 40.0198 59.8736 40.0567C60.3247 40.1443 60.7408 40.3483 61.2276 40.32C61.4574 40.3065 61.6613 40.1506 61.8492 40.013C62.0732 39.8493 62.2926 39.6668 62.5575 39.5836C62.8225 39.5004 63.1524 39.5445 63.3146 39.7693C63.4343 39.9349 63.4368 40.157 63.4091 40.359C63.3178 41.0268 62.9388 41.651 62.387 42.0421C61.835 42.4333 61.1181 42.5857 60.4538 42.4535C59.7892 42.3213 59.1866 41.9057 58.8287 41.3335C58.7217 41.1623 58.6346 40.9739 58.6128 40.7736C58.591 40.5732 58.6415 40.3585 58.7801 40.2114Z" fill="#914646"/>
<path d="M62.9761 41.1755C63.019 41.193 63.0646 41.2118 63.1095 41.2325C62.9304 41.55 62.6851 41.8306 62.387 42.0419C61.835 42.433 61.1181 42.5855 60.4538 42.4533C60.3125 42.4252 60.1751 42.3818 60.0411 42.3291C60.2806 41.8047 60.7239 41.3726 61.2624 41.1586C61.4766 41.0735 61.7043 41.0234 61.9344 41.0078C62.2884 40.9837 62.6481 41.0405 62.9761 41.1755Z" fill="#D66363"/>
<path d="M59.3005 39.9942C59.4928 39.9828 59.6844 40.0196 59.8736 40.0565C60.3247 40.1441 60.7408 40.348 61.2276 40.3197C61.4574 40.3063 61.6613 40.1504 61.8492 40.0128C62.0732 39.8491 62.2926 39.6665 62.5575 39.5833C62.6571 39.5521 62.7656 39.5387 62.8711 39.5463C62.8571 39.7158 62.7349 39.9242 62.6471 40.0306C62.5862 40.1043 62.5163 40.1709 62.4395 40.228C62.1819 40.4208 61.8647 40.5176 61.549 40.5825C61.193 40.6557 60.8267 40.6928 60.4656 40.6516C60.1044 40.6103 59.7482 40.4874 59.4617 40.2648C59.3886 40.208 59.3191 40.1436 59.2755 40.0621C59.2651 40.0426 59.2566 40.0221 59.2497 40.0008C59.2669 39.9991 59.2838 39.9952 59.3005 39.9942Z" fill="white"/>
<path d="M61.2018 37.3654C61.2973 37.3268 61.4033 37.2868 61.5002 37.3217C61.6027 37.3588 61.6606 37.4735 61.6614 37.5821C61.6621 37.6906 61.6169 37.7938 61.5669 37.8905C61.4685 38.0805 61.3463 38.2621 61.183 38.4012C61.0198 38.5405 60.812 38.6352 60.5969 38.6359C60.4006 38.6366 60.2051 38.5561 60.0664 38.4177C59.9278 38.2794 59.8478 38.0847 59.8491 37.8895C59.8496 37.8199 59.8611 37.7475 59.9028 37.6916C59.9438 37.6367 60.0098 37.6045 60.077 37.5906C60.1606 37.5733 60.2428 37.5845 60.327 37.585C60.4263 37.5855 60.5264 37.572 60.6236 37.5525C60.8226 37.5123 61.0139 37.441 61.2018 37.3654Z" fill="#AA664F"/>
<path d="M53.5131 33.2413C53.7739 32.7182 54.1924 32.2741 54.7002 31.9813C55.2081 31.6885 55.8035 31.548 56.3896 31.5826C55.7998 31.2803 55.04 31.2676 54.4762 31.6155C53.9127 31.9635 53.5028 32.5815 53.5131 33.2413Z" fill="#AA664F"/>
<path d="M62.8245 30.3892C62.2987 30.1293 61.6954 30.0271 61.113 30.0991C60.5303 30.171 59.9707 30.417 59.525 30.7972C59.8113 30.2018 60.4087 29.735 61.0691 29.6733C61.7295 29.6113 62.4319 29.8573 62.8245 30.3892Z" fill="#AA664F"/>
<path d="M63.5344 57.3202C64.6355 56.7254 65.3565 55.6198 65.9174 54.5052C66.936 52.4802 67.5812 50.1891 67.3396 47.9538C62.3107 48.11 55.5709 49.6799 50.4982 51.7229C50.7617 52.1657 51.0511 52.593 51.3693 52.9987C52.755 54.7653 54.623 56.1532 56.7125 56.9877C57.8928 57.4591 59.1462 57.7531 60.416 57.8363C61.482 57.9058 62.596 57.8273 63.5344 57.3202Z" fill="#A34545"/>
<path d="M51.9143 51.7731C52.1434 52.1677 52.401 52.5459 52.6827 52.905C53.8212 54.3566 55.3563 55.4971 57.0731 56.1827C58.0429 56.5702 59.0728 56.8117 60.1165 56.88C60.9923 56.9371 61.9077 56.8727 62.679 56.4562C63.5838 55.9672 64.1763 55.0591 64.637 54.1431C65.5747 52.2792 66.1299 50.1405 65.7037 48.0999C65.7003 48.0834 65.6961 48.0665 65.6924 48.0497C61.2916 48.415 55.9755 49.6686 51.6213 51.2881C51.7148 51.454 51.822 51.6143 51.9143 51.7731Z" fill="#E7AC8D"/>
<path d="M71.6805 48.3066C71.4678 49.5337 71.5093 50.8742 71.5041 52.0283C71.4874 55.8135 72.0858 59.5999 73.2607 63.1996C73.8662 65.055 74.627 66.8601 75.5335 68.5898C75.794 59.5013 75.5112 50.9904 73.6972 49.2868C73.2288 48.8471 72.5392 48.5255 71.6805 48.3066Z" fill="#E7AC8D"/>
<path d="M43.8621 55.7525C41.6245 58.5673 43.3052 70.1204 45.2861 79.6733C45.6889 79.3388 45.9448 78.833 46.1366 78.3574C47.7521 74.3548 48.114 70.0229 47.8098 65.7807C47.7173 64.4928 47.565 63.2087 47.3716 61.9299C47.0309 59.6787 46.5618 57.4449 46.0643 55.2174C45.9811 54.8453 45.9237 54.4474 45.8341 54.0643C44.9845 54.6235 44.3086 55.1911 43.8621 55.7525Z" fill="#E7AC8D"/>
<path d="M47.8569 28.6839C50.6515 28.9718 53.5389 28.2686 55.8833 26.7287C58.1796 27.7218 60.9148 27.653 63.1577 26.5457C65.4005 25.4384 67.1092 23.313 67.702 20.8935C67.9672 19.8111 67.9755 18.5491 67.2307 17.7168C66.6517 17.07 65.7148 16.8231 64.8487 16.9133C63.9827 17.0036 63.1753 17.3901 62.4327 17.8422C61.8888 17.0612 60.8265 16.7562 59.8839 16.9104C58.2907 17.1712 57.343 18.6552 55.6838 18.7031C55.1279 18.7192 54.5747 18.6328 54.0205 18.5855C52.297 18.4383 50.5196 18.6794 48.9663 19.437C47.842 19.9853 46.8452 20.8134 46.1413 21.847C45.871 22.244 45.7348 22.9116 45.2272 22.9909C44.5653 23.0943 43.9569 23.2024 43.3838 23.5772C42.5455 24.125 42.008 25.0541 41.7879 26.0275C41.5678 27.0008 41.64 28.0187 41.8247 28.9991C42.2511 31.2598 43.2937 33.3967 44.7876 35.1501C45.1912 35.6237 46.5677 37.4523 47.2421 36.8391C47.6254 36.4907 47.7387 35.6106 47.855 35.1326C48.0147 34.4772 48.1253 33.8096 48.1864 33.1379C48.3221 31.649 48.2144 30.1372 47.8569 28.6839Z" fill="#6D493C"/>
<path d="M21.4696 61.6761C20.1615 59.9054 22.223 51.2363 20.8671 51.1626C19.5111 51.089 18.5423 55.9463 17.7715 55.1142C17.0004 54.2824 14.4793 47.3472 13.1403 47.8633C12.3543 48.1661 14.6925 54.2697 14.6925 54.2697C14.3613 53.6798 10.765 45.18 9.73115 45.8481C8.69731 46.5162 12.6344 55.1865 12.6344 55.1865C12.6344 55.1865 7.93899 48.8642 7.55161 49.6762C7.16398 50.4885 11.2848 56.792 11.2848 56.792C11.2848 56.792 7.88428 53.7759 7.5705 54.6692C7.05628 56.1332 17.1375 63.9378 17.1375 63.9378L21.4696 61.6761Z" fill="#D3AB90"/>
</g>
<mask id="mask2_181_2471" style="mask-type:luminance" maskUnits="userSpaceOnUse" x="0" y="0" width="184" height="122">
<path d="M184 0H0V121.59H184V0Z" fill="white"/>
</mask>
<g mask="url(#mask2_181_2471)">
<path d="M27.4628 58.1042C27.2163 60.1192 27.428 62.1617 27.3102 64.1881C27.1925 66.2145 26.6849 68.331 25.2666 69.7904C24.2659 70.82 22.9136 71.4215 21.7132 72.2125C20.5128 73.0036 19.3781 74.1372 19.2513 75.5636C19.0778 77.5161 20.8244 79.1712 20.9718 81.1259C21.0908 82.7024 20.161 84.1422 19.6828 85.6496C18.7619 88.5525 19.6482 91.9434 21.8739 94.0327C24.0996 96.1219 27.5546 96.8063 30.4152 95.7244C32.7059 94.8579 34.7223 92.9513 37.1704 93.0606C40.3706 93.2036 42.7952 96.7833 45.9816 96.4581C47.8942 96.2629 49.3829 94.6503 50.1704 92.9059C50.9579 91.1616 51.228 89.234 51.8406 87.4216C52.4532 85.6091 53.5376 83.7982 55.3119 83.0613C57.1877 82.2822 59.813 82.6377 60.8034 80.8721C61.6226 79.412 60.6165 77.6584 59.8319 76.1795C55.6897 68.3725 57.3562 58.0781 51.8478 51.1568C49.3373 48.0024 45.3484 45.9647 41.2685 45.7856C36.7198 45.586 33.2878 47.8409 30.4947 51.2185C28.8738 53.1784 27.772 55.5776 27.4628 58.1042Z" fill="#473533"/>
<path d="M70.1523 57.6192C69.8165 55.5251 62.4317 51.0565 63.2999 50.0805C64.1684 49.1043 68.1796 51.7353 68.1276 50.6447C68.0756 49.554 64.9954 43.1304 66.2594 42.5656C67.0013 42.234 69.6315 47.969 69.6315 47.969C69.4487 47.3426 66.0165 39.124 67.1789 38.8707C68.3413 38.6174 71.6597 47.1845 71.6597 47.1845C71.6597 47.1845 70.4767 39.691 71.3 39.977C72.1236 40.2629 73.6834 47.3509 73.6834 47.3509C73.6834 47.3509 73.9057 42.9833 74.7354 43.3744C76.095 44.0157 74.6508 56.1932 74.6508 56.1932L70.1523 57.6192Z" fill="#E7AC8D"/>
<path d="M54.0987 105.881C54.0987 105.881 61.0267 114.646 60.429 124.154H23.9067C23.9067 124.154 24.615 110.488 32.5886 105.881H54.0987Z" fill="#6DA49D"/>
<path d="M54.0987 105.881C55.2702 105.302 61.7168 87.1868 55.107 80.5015C48.497 73.8161 33.2733 74.9426 29.9123 77.5054C23.8138 82.1555 32.5886 105.881 32.5886 105.881C32.5886 105.881 46.9852 109.396 54.0987 105.881Z" fill="#F7D056"/>
<path d="M38.3585 78.6263L48.4087 78.3373L48.195 70.9856L38.1448 71.2746L38.3585 78.6263Z" fill="#E7AC8D"/>
<path opacity="0.3" d="M48.2222 71.9761C47.9498 71.8273 47.6606 71.7063 47.3689 71.5982C46.8169 71.3932 46.2556 71.2178 45.6888 71.0602L38.1434 71.2773L38.1885 72.825C38.2393 72.8667 38.2879 72.9072 38.3313 72.9451C39.1851 73.69 40.172 74.2731 41.2083 74.7299C41.8025 74.992 42.4144 75.2133 43.0361 75.4014C44.5669 75.8645 46.2453 76.1319 47.7474 75.5834C47.9449 75.5112 48.137 75.4212 48.3196 75.3165L48.2222 71.9761Z" fill="#D3AB90"/>
<path d="M50.9471 59.0317C51.9068 63.4212 53.8815 68.0587 51.6659 71.0599C48.7121 75.0613 38.6134 76.5253 34.587 67.8791C30.8533 59.8615 32.9313 51.0514 39.0798 50.2277C48.152 49.0125 50.0612 54.9793 50.9471 59.0317Z" fill="#E7AC8D"/>
<path d="M31.8069 61.2116C30.9721 61.4753 30.3484 62.2974 30.3222 63.1682C30.3021 63.8414 30.6048 64.4861 30.9887 65.0409C31.6298 65.9676 32.5182 66.7238 33.5378 67.2108C33.8471 67.3584 34.1744 67.4833 34.5166 67.5073C34.8591 67.5312 35.2207 67.4436 35.4725 67.2115C35.7985 66.9112 35.8849 66.4351 35.9033 65.9937C35.9484 64.9099 35.683 63.8175 35.1601 62.8666C34.7443 62.1105 34.316 61.796 33.562 61.428C33.0047 61.1562 32.4171 61.0188 31.8069 61.2116Z" fill="#E7AC8D"/>
<path d="M49.2992 62.8986C49.2769 63.0252 49.2364 63.1516 49.1577 63.2534C49.0787 63.3551 48.9565 63.4293 48.8274 63.4271C48.6856 63.4246 48.5598 63.3336 48.4678 63.2265C48.2804 63.0079 48.1982 62.719 48.1545 62.435C48.1125 62.1624 48.104 61.844 48.3081 61.6291C48.4418 61.4883 48.6893 61.4024 48.8679 61.5102C49.0289 61.6073 49.1059 61.8411 49.1753 62.0031C49.2973 62.2881 49.3539 62.5899 49.2992 62.8986Z" fill="#473533"/>
<path d="M43.3815 63.431C43.3592 63.5576 43.3187 63.684 43.2399 63.7858C43.1609 63.8875 43.0388 63.9617 42.9097 63.9595C42.7679 63.9573 42.6421 63.866 42.5501 63.7589C42.3626 63.5403 42.2804 63.2514 42.2368 62.9674C42.1948 62.6948 42.1862 62.3764 42.3904 62.1615C42.5241 62.0207 42.7716 61.9348 42.9502 62.0426C43.1111 62.1397 43.1882 62.3735 43.2576 62.5355C43.3795 62.8207 43.4362 63.1223 43.3815 63.431Z" fill="#473533"/>
<path d="M44.6614 67.9172C44.8042 67.7986 45.0002 67.7591 45.1857 67.7708C45.3714 67.7825 45.5505 67.8406 45.7271 67.8981C46.1488 68.0355 46.5227 68.2798 46.9923 68.31C47.2138 68.3242 47.4278 68.199 47.6243 68.0894C47.8583 67.9591 48.0902 67.8103 48.3539 67.7617C48.6176 67.7132 48.9282 67.7947 49.0568 68.0289C49.1517 68.2017 49.1274 68.4144 49.0769 68.605C48.9098 69.2338 48.4724 69.7869 47.8971 70.0963C47.3218 70.4057 46.6169 70.4672 45.9965 70.262C45.376 70.0568 44.8483 69.5878 44.5738 68.9976C44.4916 68.8209 44.4308 68.6304 44.434 68.4359C44.4371 68.2414 44.5112 68.0419 44.6614 67.9172Z" fill="#914646"/>
<path d="M48.5649 69.336C48.6039 69.358 48.6456 69.3814 48.6858 69.4066C48.4763 69.6896 48.2079 69.9292 47.8973 70.0964C47.322 70.4057 46.6172 70.4672 45.9967 70.262C45.8647 70.2184 45.7384 70.1605 45.6165 70.0946C45.9084 69.6206 46.3846 69.2592 46.9258 69.1177C47.1412 69.0616 47.3652 69.0403 47.5875 69.0525C47.9292 69.0713 48.267 69.1682 48.5649 69.336Z" fill="#D66363"/>
<path d="M45.1859 67.771C45.3716 67.7827 45.5507 67.8408 45.7274 67.8984C46.1491 68.0358 46.523 68.28 46.9925 68.3103C47.2141 68.3244 47.428 68.1992 47.6245 68.0897C47.8586 67.9594 48.0904 67.8105 48.3541 67.762C48.453 67.7439 48.5587 67.7439 48.6588 67.7635C48.6252 67.9242 48.4834 68.1092 48.3865 68.2007C48.3193 68.2641 48.2445 68.3195 48.1643 68.3654C47.8944 68.5196 47.5791 68.575 47.269 68.5999C46.9194 68.6279 46.5642 68.6201 46.2232 68.5379C45.8824 68.4557 45.5556 68.2959 45.3078 68.0489C45.2445 67.986 45.1857 67.916 45.1538 67.8327C45.1462 67.813 45.1405 67.792 45.1366 67.771C45.153 67.7715 45.1695 67.77 45.1859 67.771Z" fill="white"/>
<path d="M47.3203 65.4774C47.4162 65.4518 47.5227 65.4259 47.6113 65.4708C47.705 65.5184 47.7469 65.6353 47.7347 65.7392C47.7224 65.8432 47.6667 65.9369 47.6076 66.0233C47.4906 66.1938 47.352 66.3531 47.179 66.4671C47.006 66.5813 46.7955 66.6474 46.5897 66.6228C46.4015 66.6001 46.2239 66.5 46.1076 66.3512C45.9913 66.2023 45.9379 66.0064 45.9624 65.8195C45.9712 65.7529 45.9908 65.6848 46.0375 65.6363C46.0833 65.5887 46.1503 65.5655 46.2163 65.5601C46.2985 65.5533 46.3758 65.574 46.4562 65.5843C46.5514 65.5965 46.6488 65.5953 46.7443 65.5882C46.9398 65.5733 47.1314 65.5279 47.3203 65.4774Z" fill="#7C4E39"/>
<path d="M40.449 60.6201C40.7613 60.1499 41.215 59.7739 41.7363 59.5536C42.2576 59.333 42.8447 59.2688 43.4019 59.3713C42.8732 59.0122 42.147 58.9104 41.5656 59.1769C40.9841 59.4436 40.5177 59.9872 40.449 60.6201Z" fill="#7C4E39"/>
<path d="M49.7069 58.9878C49.2344 58.6767 48.6689 58.5076 48.1025 58.5078C47.536 58.5081 46.9705 58.6776 46.4982 58.9887C46.8434 58.4524 47.4712 58.0757 48.1113 58.0947C48.7514 58.1135 49.3946 58.4319 49.7069 58.9878Z" fill="#7C4E39"/>
<path d="M50.7543 77.5847C50.7543 77.5847 67.4497 79.3125 68.6447 76.3405C69.8397 73.3689 67.3999 62.4443 68.6447 56.3909C68.9933 54.6951 74.4505 54.9378 75.6041 56.234C79.7483 60.89 80.2556 79.9557 74.8983 83.3726C69.5409 86.7896 56.396 90.3552 56.396 90.3552L50.7543 77.5847Z" fill="#F7D056"/>
<path d="M51.1115 77.7491C51.5487 78.4241 51.7606 79.2468 51.6399 80.0488C51.5428 80.695 51.2349 81.3162 50.7408 81.7525C50.0168 82.392 48.995 82.5833 48.0266 82.5899C45.3918 82.6082 42.896 81.4658 40.5913 80.195C38.728 79.1678 36.8493 77.9697 35.7678 76.1441C35.6964 76.0236 35.6287 75.8938 35.5784 75.7601C40.1637 75.1603 46.3635 75.5048 51.1115 77.7491Z" fill="#E7AC8D"/>
<path d="M49.6358 56.4153C45.6486 57.3147 41.385 56.9569 37.6056 55.4063C37.5764 57.6597 36.2092 59.8464 34.1903 60.8695C33.6781 61.1291 33.0552 61.3153 32.5402 61.0608C32.1249 60.8556 31.8871 60.4139 31.7215 59.983C30.9757 58.0427 31.1968 55.7965 32.1474 53.947C33.0981 52.0974 34.734 50.6391 36.6106 49.7272C38.4871 48.8154 40.594 48.4287 42.6826 48.4191C44.694 48.4099 46.7786 48.7727 48.4251 49.9222C49.4479 50.6364 50.2432 51.616 50.9044 52.6606C51.2386 53.1884 51.541 53.7352 51.8313 54.2876C51.9414 54.4972 52.256 54.8959 52.2645 55.1284C52.2734 55.3609 51.8504 55.5732 51.6564 55.6886C51.0381 56.0568 50.334 56.2579 49.6358 56.4153Z" fill="#473533"/>
<path opacity="0.3" d="M32.5886 105.881C32.5886 105.881 32.4995 105.64 32.3457 105.203C35.6302 105.375 38.9361 105.111 42.0616 104.125C46.1555 102.834 49.9263 100.215 52.0344 96.493C54.1426 92.7715 54.3737 87.9122 52.1166 84.2783C57.04 84.2671 62.0092 84.2513 66.8158 83.1903C68.5076 82.817 70.1712 82.3066 71.7688 81.637C73.1402 81.0622 74.464 80.3695 75.7 79.5435C76.3418 79.1146 76.9596 78.65 77.5462 78.1488C77.7061 78.0122 77.8629 77.8499 78.0201 77.6801C77.3865 80.3365 76.3617 82.4391 74.898 83.3726C70.7045 86.0473 61.7396 88.8128 58.0424 89.8881C58.0139 97.2887 54.8806 105.494 54.0984 105.881C46.9852 109.396 32.5886 105.881 32.5886 105.881Z" fill="#D3BD75"/>
<path d="M31.003 105.506C31.9156 107.168 39.4719 108.728 39.0355 109.807C38.9045 110.132 38.4798 110.229 38.1716 110.281C37.6815 110.364 37.1771 110.359 36.6815 110.356C36.2257 110.353 35.7615 110.33 35.3076 110.383C35.1742 110.399 35.0108 110.416 34.8952 110.492C34.8567 110.517 34.8174 110.546 34.7983 110.589C34.7402 110.721 34.8638 110.769 34.9411 110.853C35.2718 111.211 35.3979 111.776 35.3108 112.245C35.2642 112.497 35.1563 112.736 35.0034 112.941C34.9269 113.044 34.8393 113.138 34.7421 113.221C34.6553 113.296 34.4678 113.363 34.4043 113.448C34.3503 113.52 34.4097 113.595 34.4068 113.697C34.4036 113.808 34.3606 113.919 34.3123 114.018C34.2181 114.211 34.0768 114.402 33.907 114.537C33.6852 114.713 33.4038 114.811 33.1207 114.819C32.9907 114.822 32.9173 114.792 32.8165 114.871C32.7255 114.942 32.6497 115.034 32.554 115.103C32.4137 115.206 32.254 115.282 32.0852 115.324C31.8472 115.385 31.593 115.378 31.358 115.309C31.1568 115.249 31.0182 115.149 30.8045 115.132C30.5651 115.114 30.3254 115.084 30.0958 115.012C29.7714 114.91 29.3909 114.701 29.3193 114.352C29.2334 113.933 29.0744 113.519 28.9564 113.107C28.7297 112.315 28.5151 111.52 28.3085 110.723C28.0779 109.833 27.8539 108.941 27.6481 108.045L31.003 105.506Z" fill="#E7AC8D"/>
<path d="M30.4777 77.1462C30.4777 77.1462 14.9354 85.3342 16.06 92.3723C17.1848 99.4105 25.0973 107.984 26.9452 108.332C30.3602 108.974 32.6592 105.929 32.6592 105.929C32.6592 105.929 24.7036 94.4085 25.1155 91.8189C25.5274 89.2294 29.06 88.5574 29.06 88.5574L30.4777 77.1462Z" fill="#F7D056"/>
<path opacity="0.3" d="M32.6592 105.929C32.6592 105.929 24.7035 94.4083 25.1155 91.8187C25.125 91.7584 25.1444 91.7043 25.1572 91.6462C24.874 92.1325 24.7291 92.6907 24.6537 93.2497C24.4643 94.653 24.6383 96.0821 24.9327 97.4673C25.4216 99.767 26.2697 102.041 27.7773 103.851C28.8654 105.158 30.3344 106.196 31.9558 106.676C32.41 106.258 32.6592 105.929 32.6592 105.929Z" fill="#D3BD75"/>
</g>
<mask id="mask3_181_2471" style="mask-type:luminance" maskUnits="userSpaceOnUse" x="0" y="0" width="184" height="122">
<path d="M184 0H0V121.59H184V0Z" fill="white"/>
</mask>
<g mask="url(#mask3_181_2471)">
<path d="M121.498 104.334C121.498 104.334 114.407 113.283 115.022 123.067H154.648C154.648 123.067 153.742 109.074 145.537 104.334H121.498Z" fill="#6DA49D"/>
<path d="M146.8 49.5945C147.276 51.8439 147.375 54.2517 148.57 56.2191C149.476 57.7109 150.955 58.8333 151.668 60.4256C152.538 62.3693 152.077 64.7174 150.911 66.501C149.744 68.2846 147.962 69.582 146.107 70.6424C141.457 73.3015 136.128 74.7035 130.772 74.9868C127.995 75.1337 125.121 74.9671 122.606 73.7878C120.092 72.6088 117.998 70.2447 117.794 67.487C117.621 65.1387 118.791 62.9059 120.112 60.9522C121.434 58.9987 122.967 57.1238 123.686 54.8807C124.436 52.5408 124.237 49.9815 124.978 47.6388C126.118 44.0332 129.551 41.3292 133.312 40.7893C135.731 40.442 138.227 40.9542 140.379 42.0825C142.09 42.9799 144.022 44.3151 145.213 45.8625C146.044 46.9422 146.521 48.2757 146.8 49.5945Z" fill="#633D32"/>
<path d="M121.498 104.334C121.498 104.334 112.985 83.4421 120.372 75.9709C127.758 68.4996 144.772 69.7586 148.527 72.6227C155.343 77.8194 146.969 103.673 145.537 104.334C136.282 108.605 121.498 104.334 121.498 104.334Z" fill="#60E0ED"/>
<path d="M139.209 65.6708L128.867 65.3734L128.647 72.9387L138.989 73.2361L139.209 65.6708Z" fill="#FFB1A5"/>
<path opacity="0.3" d="M128.834 66.3924C129.114 66.2394 129.411 66.1147 129.712 66.0035C130.28 65.7927 130.857 65.6121 131.441 65.4498L139.205 65.6733L139.159 67.2659C139.107 67.3089 139.057 67.3506 139.012 67.3894C138.133 68.156 137.118 68.756 136.051 69.2262C135.44 69.4958 134.81 69.7235 134.171 69.917C132.595 70.3938 130.868 70.6688 129.322 70.1044C129.119 70.0302 128.921 69.9375 128.734 69.8296L128.834 66.3924Z" fill="#D3AB90"/>
<path d="M126.03 53.0717C125.042 57.5889 123.01 62.361 125.29 65.4496C128.33 69.5671 138.722 71.0736 142.865 62.1763C146.707 53.9257 144.569 44.8597 138.242 44.012C128.906 42.7615 126.941 48.9018 126.03 53.0717Z" fill="#FFB1A5"/>
<path d="M145.726 55.3151C146.585 55.5866 147.227 56.4323 147.254 57.3286C147.275 58.0213 146.963 58.6847 146.568 59.2557C145.908 60.2095 144.994 60.9876 143.945 61.4885C143.626 61.6405 143.29 61.7691 142.937 61.7935C142.585 61.8182 142.213 61.7279 141.954 61.4893C141.618 61.1803 141.529 60.6904 141.51 60.2361C141.464 59.1207 141.737 57.9966 142.275 57.0182C142.703 56.2401 143.144 55.9165 143.92 55.5378C144.493 55.258 145.098 55.1167 145.726 55.3151Z" fill="#FFB1A5"/>
<path d="M132.498 62.2156C132.351 62.0936 132.149 62.0531 131.958 62.0651C131.767 62.077 131.583 62.1368 131.401 62.1961C130.967 62.3374 130.582 62.589 130.099 62.6199C129.871 62.6346 129.651 62.5058 129.449 62.393C129.208 62.2588 128.97 62.1056 128.698 62.0558C128.427 62.0058 128.107 62.0897 127.975 62.3308C127.877 62.5087 127.902 62.7276 127.954 62.9237C128.126 63.5708 128.577 64.1398 129.168 64.4582C129.76 64.7767 130.486 64.8399 131.124 64.6288C131.763 64.4177 132.306 63.9351 132.588 63.3275C132.673 63.1458 132.735 62.9496 132.732 62.7495C132.729 62.5494 132.652 62.344 132.498 62.2156Z" fill="#914646"/>
<path d="M128.481 63.6757C128.441 63.6982 128.398 63.7223 128.356 63.7482C128.572 64.0393 128.848 64.286 129.168 64.4582C129.76 64.7767 130.485 64.8399 131.124 64.6288C131.259 64.5839 131.39 64.5244 131.515 64.4565C131.215 63.9688 130.725 63.5967 130.168 63.4513C129.946 63.3934 129.716 63.3717 129.487 63.3842C129.135 63.4032 128.787 63.503 128.481 63.6757Z" fill="#D66363"/>
<path d="M131.958 62.0651C131.767 62.077 131.583 62.1368 131.401 62.1961C130.967 62.3374 130.582 62.589 130.099 62.6199C129.871 62.6346 129.651 62.5058 129.449 62.393C129.208 62.2588 128.969 62.1056 128.698 62.0558C128.596 62.037 128.487 62.0373 128.384 62.0573C128.419 62.2227 128.565 62.413 128.665 62.5075C128.734 62.5729 128.811 62.6297 128.893 62.677C129.171 62.8356 129.495 62.8927 129.814 62.9184C130.174 62.9471 130.54 62.9393 130.891 62.8547C131.242 62.77 131.578 62.6058 131.833 62.3515C131.898 62.2866 131.958 62.2147 131.991 62.129C131.999 62.1085 132.005 62.0873 132.009 62.0656C131.992 62.0658 131.975 62.0641 131.958 62.0651Z" fill="white"/>
<path d="M129.762 59.7049C129.663 59.6785 129.553 59.6519 129.462 59.698C129.366 59.7471 129.323 59.8671 129.336 59.9742C129.348 60.0813 129.405 60.1777 129.467 60.2665C129.587 60.442 129.73 60.6059 129.908 60.7233C130.086 60.8407 130.302 60.909 130.514 60.8834C130.708 60.8602 130.89 60.7572 131.01 60.604C131.13 60.4508 131.185 60.2492 131.16 60.0569C131.151 59.9886 131.13 59.9184 131.082 59.8686C131.035 59.8195 130.966 59.7956 130.898 59.7903C130.814 59.7832 130.734 59.8044 130.651 59.8151C130.553 59.8276 130.453 59.8266 130.355 59.819C130.153 59.8037 129.956 59.7568 129.762 59.7049Z" fill="#89513F"/>
<path d="M136.833 54.7065C136.511 54.2227 136.044 53.8359 135.508 53.6088C134.971 53.3818 134.367 53.3157 133.794 53.4211C134.338 53.0517 135.085 52.9468 135.684 53.221C136.282 53.4958 136.762 54.055 136.833 54.7065Z" fill="#89513F"/>
<path d="M127.306 53.0266C127.792 52.7065 128.374 52.5325 128.957 52.5327C129.54 52.533 130.122 52.7074 130.608 53.0278C130.252 52.4759 129.606 52.0884 128.948 52.1077C128.289 52.127 127.627 52.4547 127.306 53.0266Z" fill="#89513F"/>
<path d="M134.451 56.8855C134.731 56.9113 135.003 57.0326 135.208 57.2249C135.25 57.2646 135.303 57.3112 135.359 57.2951C135.407 57.2815 135.431 57.2276 135.441 57.1788C135.486 56.9692 135.401 56.7444 135.25 56.5912C135.099 56.438 134.891 56.3501 134.678 56.3133C134.362 56.2584 134.023 56.313 133.755 56.4899C133.651 56.559 133.555 56.6507 133.515 56.7688C133.488 56.8481 133.485 56.9889 133.557 57.0499C133.624 57.1075 133.712 57.0385 133.776 57.0077C133.985 56.9082 134.22 56.8642 134.451 56.8855Z" fill="#633D32"/>
<path d="M128.24 56.4211C128.511 56.4419 128.782 56.5256 128.999 56.6885C129.072 56.7434 129.154 56.8108 129.243 56.793C129.306 56.5787 129.236 56.3384 129.089 56.1696C128.942 56.001 128.727 55.9002 128.505 55.865C128.284 55.8299 128.056 55.8563 127.838 55.9104C127.651 55.957 127.45 56.0405 127.37 56.2152C127.339 56.2835 127.32 56.4075 127.372 56.4721C127.422 56.5331 127.506 56.4865 127.572 56.4728C127.791 56.428 128.016 56.4043 128.24 56.4211Z" fill="#633D32"/>
<path d="M145.714 71.3764C145.714 71.3764 163.008 69.9414 165.405 65.8171C166.775 63.46 165.802 45.21 165.802 45.21L170.655 44.8087C170.655 44.8087 175.302 69.3067 170.478 72.6964C163.522 77.5837 149.521 81.4106 149.521 81.4106L145.714 71.3764Z" fill="#FFB1A5"/>
<path opacity="0.3" d="M159.101 68.3002C159.101 68.3002 162.864 73.4535 162.9 76.3581L161 77.1513L159.101 68.3002Z" fill="#D3AB90"/>
<path d="M122.516 74.2072C122.516 74.2072 108.146 79.3503 104.186 76.8876C101.772 75.386 90.0055 62.983 90.0055 62.983L86.3468 66.2399C86.3468 66.2399 94.7983 82.9083 103.048 85.1314C111.297 87.3547 122.515 85.1314 122.515 85.1314V74.2072H122.516Z" fill="#FFB1A5"/>
<path opacity="0.3" d="M108.913 77.493C108.913 77.493 106.374 83.0418 107.822 85.949C107.822 85.949 109.212 86.1808 110.25 86.0278L108.913 77.493Z" fill="#D3AB90"/>
<path d="M125.994 72.3914C125.908 73.0478 125.922 73.7217 126.18 74.331C126.538 75.1745 127.293 75.7169 128.066 76.0582C130.022 76.9225 132.217 76.7558 134.283 76.3244C136.066 75.9521 137.85 75.377 139.365 74.2548C140.55 73.3774 141.557 72.1257 142.084 70.6587C137.338 70.0548 131.081 70.354 125.994 72.3914Z" fill="#498B9A"/>
<path d="M127.276 71.9215C127.135 72.5905 127.075 73.314 127.356 73.9511C127.661 74.6401 128.305 75.0832 128.964 75.3619C130.632 76.0678 132.502 75.9316 134.264 75.5793C135.783 75.2752 137.303 74.8053 138.595 73.8891C139.718 73.0924 140.654 71.9178 141.048 70.5438C136.861 70.1451 131.729 70.4355 127.276 71.9215Z" fill="#FFB1A5"/>
<path d="M109.094 76.3149C109.094 76.3149 107.659 84.5382 109.094 87.3571C109.094 87.3571 118.263 87.5772 122.516 86.558L125.935 72.4141C125.935 72.4141 115.089 75.5507 109.094 76.3149Z" fill="#60E0ED"/>
<path d="M158.539 67.244C158.539 67.244 162.279 73.5631 161.152 78.659C161.152 78.659 152.704 82.074 150.703 83.9082L142.028 70.6507C142.028 70.6507 153.8 70.4196 158.539 67.244Z" fill="#60E0ED"/>
<path d="M129.013 49.3761C130.099 48.7832 131.016 47.9321 131.921 47.0903C134.402 51.3147 139.215 54.0807 144.134 54.1087C144.584 54.1114 145.074 54.0775 145.411 53.7808C145.922 53.3313 145.836 52.5296 145.7 51.8651C145.256 49.6953 144.678 47.4546 143.23 45.7727C141.34 43.5777 138.273 42.7249 135.367 42.6746C133.085 42.6354 130.726 43.0494 128.827 44.3104C127.725 45.0422 126.815 46.0836 126.276 47.2904C125.976 47.9619 125.182 50.0674 126.511 50.0974C127.37 50.1164 128.273 49.7807 129.013 49.3761Z" fill="#633D32"/>
<path d="M165.836 45.4301C165.884 43.2485 159.233 37.3732 160.293 36.5436C161.353 35.714 164.927 39.1117 165.077 37.9979C165.226 36.8843 163.295 29.8168 164.679 29.4762C165.492 29.2761 167.094 35.5637 167.094 35.5637C167.025 34.8962 165.07 25.947 166.294 25.903C167.517 25.8594 169.293 35.1404 169.293 35.1404C169.293 35.1404 169.481 27.337 170.262 27.777C171.043 28.2171 171.311 35.6789 171.311 35.6789C171.311 35.6789 172.344 31.2974 173.112 31.8452C174.37 32.7431 170.655 44.8084 170.655 44.8084L165.836 45.4301Z" fill="#FFB1A5"/>
<path d="M90.0052 62.9828C88.2881 61.6244 87.9964 52.7821 86.6775 53.0624C85.3586 53.3426 85.7008 58.2487 84.7443 57.6509C83.7877 57.0531 79.5574 51.0587 78.409 51.8995C77.7348 52.3932 81.5723 57.6379 81.5723 57.6379C81.1006 57.1582 75.4304 49.9424 74.6142 50.8503C73.7982 51.7583 79.8396 59.049 79.8396 59.049C79.8396 59.049 73.6856 54.2046 73.5266 55.0833C73.3677 55.9619 78.9659 60.9371 78.9659 60.9371C78.9659 60.9371 74.9177 58.9263 74.8507 59.8637C74.7408 61.3999 86.4444 66.2714 86.4444 66.2714L90.0052 62.9828Z" fill="#FFB1A5"/>
<path d="M139.124 90.1587C133.917 90.635 128.674 90.7294 123.452 90.4425C121.523 90.3364 119.595 90.1804 117.673 89.9689C117.871 91.47 118.147 92.9559 118.462 94.3719C127.816 95.2896 137.222 95.0385 146.534 93.5752C147.528 93.4191 148.518 93.2456 149.501 93.0413C149.86 91.53 150.188 89.9557 150.456 88.3768C146.772 89.385 142.889 89.8144 139.124 90.1587Z" fill="#498B9A"/>
<path d="M118.936 96.3539C119.204 97.3985 119.483 98.3833 119.755 99.2804C129.036 100.191 138.388 100.261 147.681 99.4903C147.976 98.5994 148.28 97.6171 148.58 96.5686C138.718 97.4441 128.785 97.3726 118.936 96.3539Z" fill="#498B9A"/>
<path opacity="0.3" d="M119.789 99.3895C120.691 102.35 121.498 104.334 121.498 104.334C121.498 104.334 136.282 108.605 145.537 104.334C146.352 103.957 149.417 95.416 150.649 87.1695C150.543 87.3415 150.435 87.5126 150.323 87.6817C148.412 90.5665 145.832 92.9852 142.916 94.8482C141.255 95.9091 139.481 96.7938 137.635 97.4878C131.986 99.6113 125.809 100.026 119.789 99.3895Z" fill="#CCE0D2"/>
<path opacity="0.3" d="M150.703 83.9084C152.471 82.288 159.266 79.4359 160.827 78.7923C159.691 78.5622 158.498 78.6178 157.36 78.8645C155.975 79.1651 154.662 79.7312 153.393 80.3602C152.401 80.8524 151.365 81.4501 150.901 82.4518C150.701 82.8812 150.628 83.3372 150.634 83.8033L150.703 83.9084Z" fill="#CCE0D2"/>
<path opacity="0.3" d="M112.908 85.1736C111.488 85.2577 110.016 85.5474 108.685 86.0883C108.783 86.5766 108.916 87.0084 109.094 87.3571C109.094 87.3571 113.229 87.4557 117.233 87.2122C117.017 86.5605 116.507 85.9873 115.888 85.6564C114.99 85.176 113.926 85.113 112.908 85.1736Z" fill="#CCE0D2"/>
</g>
<mask id="mask4_181_2471" style="mask-type:luminance" maskUnits="userSpaceOnUse" x="0" y="0" width="184" height="122">
<path d="M184 0H0V121.59H184V0Z" fill="white"/>
</mask>
<g mask="url(#mask4_181_2471)">
<path d="M106.899 52.2685C109.457 57.1653 107.809 63.1701 108.972 68.5659C109.667 71.7843 111.344 74.6928 112.938 77.5769C114.533 80.4609 116.095 83.4575 116.52 86.7215C116.946 89.9857 116.022 93.6135 113.409 95.6329C110.859 97.6029 107.257 97.6586 104.148 96.7931C101.039 95.9276 98.2224 94.2667 95.2438 93.0279C92.2652 91.7889 88.9137 90.9703 85.8203 91.8909C84.4727 92.292 83.1609 93.0201 81.7593 92.904C79.3285 92.7024 77.8126 89.9786 77.885 87.5535C77.9574 85.1287 79.122 82.8922 79.9311 80.6034C82.7853 72.5317 81.2733 63.4659 83.8797 55.3116C84.6564 52.8821 85.8306 50.5156 87.6954 48.7666C90.0145 46.5913 92.4038 46.2682 95.3706 46.6733C96.8264 46.8721 98.257 46.6064 99.7221 46.9361C101.128 47.2523 102.473 47.8403 103.657 48.658C105.002 49.5876 106.141 50.8193 106.899 52.2685Z" fill="#764545"/>
<path d="M83.6471 79.7726C83.6471 79.7726 73.9415 87.7809 73.5782 98.6406C73.3556 105.293 78.2135 111.397 83.3417 111.802L84.1699 106.098L83.6471 79.7726Z" fill="#FFC7AB"/>
<path d="M83.1705 106.098C83.1705 106.098 76.3247 114.758 76.9152 124.154H113.004C113.004 124.154 112.305 110.65 104.425 106.098H83.1705Z" fill="#484866"/>
<path opacity="0.3" d="M83.1705 106.098C83.1705 106.098 80.6634 109.27 78.8146 113.857C79.4618 114.148 80.1438 114.376 80.8202 114.56C87.7133 116.425 95.1452 114.895 101.679 112.021C102.787 111.534 103.879 111.002 104.908 110.365C105.781 109.824 106.61 109.206 107.337 108.482C106.496 107.552 105.532 106.737 104.426 106.098H83.1705Z" fill="#314369"/>
<path d="M83.1916 106.098C83.1916 106.098 75.6637 87.6253 82.1953 81.019C88.7268 74.4129 103.77 75.526 107.091 78.0585C113.118 82.6535 104.706 106.033 104.446 106.098C94.3314 108.64 83.1916 106.098 83.1916 106.098Z" fill="#E47760"/>
<path d="M86.9348 77.9485C86.8568 78.4313 86.8514 78.9318 86.8948 79.4173C87.0612 81.2825 87.8489 83.0473 89.1502 84.4003C91.5149 83.9989 93.6859 82.7728 95.4685 81.1759C97.0862 79.7267 98.4049 77.9799 99.5688 76.1465C95.598 75.8859 90.8521 76.32 86.9348 77.9485Z" fill="#FFC7AB"/>
<path d="M98.0432 71.1142L88.1122 70.8286L87.901 78.0933L97.832 78.3788L98.0432 71.1142Z" fill="#FFC7AB"/>
<path opacity="0.3" d="M88.0805 71.8058C88.3497 71.6589 88.6355 71.5391 88.9235 71.4322C89.4691 71.2297 90.0236 71.0564 90.5837 70.9005L98.0396 71.115L97.9952 72.6444C97.9452 72.6856 97.8968 72.7256 97.8541 72.763C97.0104 73.4991 96.0352 74.0752 95.0112 74.5268C94.4241 74.7857 93.8194 75.0044 93.2053 75.1903C91.6926 75.648 90.0341 75.912 88.5499 75.3701C88.3546 75.2989 88.1649 75.2098 87.9844 75.1063L88.0805 71.8058Z" fill="#D3AB90"/>
<path d="M85.388 59.0148C84.4398 63.3524 82.4884 67.9349 84.6778 70.9005C87.5968 74.8543 97.5754 76.301 101.554 67.7573C105.244 59.8346 103.19 51.129 97.1147 50.3152C88.15 49.1145 86.2634 55.0105 85.388 59.0148Z" fill="#FFC7AB"/>
<path d="M104.301 61.1688C105.126 61.4297 105.743 62.2417 105.768 63.102C105.788 63.7672 105.489 64.4043 105.11 64.9525C104.476 65.8683 103.598 66.6154 102.591 67.0968C102.285 67.2427 101.962 67.3662 101.623 67.3899C101.285 67.4135 100.928 67.3269 100.679 67.0978C100.357 66.8011 100.271 66.3306 100.253 65.8944C100.209 64.8235 100.471 63.744 100.988 62.8044C101.398 62.0572 101.822 61.7464 102.567 61.3828C103.118 61.1139 103.698 60.9783 104.301 61.1688Z" fill="#FFC7AB"/>
<path d="M87.0163 62.8359C87.0384 62.9608 87.0784 63.0857 87.1564 63.1862C87.2344 63.2868 87.3551 63.36 87.4827 63.358C87.6228 63.3558 87.7472 63.2658 87.838 63.1599C88.0232 62.9439 88.1044 62.6585 88.1476 62.3779C88.189 62.1085 88.1976 61.794 87.9959 61.5815C87.8637 61.4424 87.6191 61.3575 87.4427 61.4641C87.2837 61.56 87.2074 61.791 87.139 61.9509C87.0183 62.2327 86.9624 62.5306 87.0163 62.8359Z" fill="#764545"/>
<path d="M92.8638 63.3622C92.8859 63.4871 92.9259 63.6123 93.0039 63.7125C93.0819 63.8131 93.2026 63.8863 93.3302 63.8843C93.4703 63.8821 93.5947 63.7921 93.6854 63.6862C93.8707 63.4703 93.9519 63.1848 93.995 62.9042C94.0365 62.635 94.0451 62.3203 93.8434 62.1078C93.7114 61.9687 93.4668 61.8838 93.2902 61.9904C93.1312 62.0863 93.0549 62.3174 92.9865 62.4772C92.8658 62.7588 92.8098 63.0569 92.8638 63.3622Z" fill="#764545"/>
<path d="M88.9716 65.3842C88.8767 65.3588 88.7717 65.3332 88.6841 65.3776C88.5914 65.4247 88.5501 65.5401 88.5622 65.6428C88.5742 65.7456 88.6291 65.838 88.6878 65.9237C88.8033 66.0923 88.9405 66.2494 89.1112 66.3621C89.2822 66.4749 89.49 66.5403 89.6936 66.5159C89.8796 66.4937 90.055 66.3946 90.1698 66.2477C90.2846 66.1006 90.3376 65.9071 90.3133 65.7224C90.3048 65.6567 90.2851 65.5894 90.2393 65.5413C90.1939 65.4942 90.1279 65.4715 90.0626 65.4659C89.9814 65.4593 89.9051 65.4796 89.8254 65.4898C89.7314 65.5018 89.6352 65.5008 89.5408 65.4937C89.3477 65.4789 89.1583 65.434 88.9716 65.3842Z" fill="#C67754"/>
<path d="M95.7617 60.5845C95.4531 60.1199 95.0048 59.7483 94.4896 59.5304C93.9744 59.3125 93.3945 59.249 92.8439 59.3503C93.3665 58.9955 94.0838 58.8948 94.6584 59.1583C95.2327 59.4218 95.6937 59.9588 95.7617 60.5845Z" fill="#C67754"/>
<path d="M86.6135 58.9714C87.0803 58.6639 87.6392 58.4968 88.199 58.497C88.7589 58.4973 89.3175 58.6647 89.7841 58.9724C89.4431 58.4424 88.8227 58.0703 88.1902 58.0888C87.5578 58.1076 86.9221 58.4221 86.6135 58.9714Z" fill="#C67754"/>
<path d="M88.1763 69.073C89.0722 69.4248 90.1512 69.4914 91.0822 69.204C91.2375 69.1559 91.3923 69.0964 91.5052 68.9988C91.618 68.9012 91.6816 68.758 91.6283 68.6318C91.5577 68.4647 91.3089 68.3839 91.0881 68.3947C90.8676 68.4054 90.6625 68.4837 90.453 68.5398C89.9878 68.6643 89.4775 68.6792 89.0023 68.582C88.7057 68.5215 88.4164 68.4178 88.1103 68.4191C87.9861 68.4195 87.8556 68.4398 87.7619 68.5047C87.4236 68.7382 87.9488 68.9837 88.1763 69.073Z" fill="#764545"/>
<path d="M106.777 77.8443C106.777 77.8443 122.506 86.649 119.705 95.2886C117.167 103.116 104.447 106.098 104.447 106.098L106.533 100.004C106.533 100.004 112.423 97.5395 112.915 94.3834C113.148 92.8879 108.511 91.4092 108.511 91.4092C105.236 87.7009 106.777 77.8443 106.777 77.8443Z" fill="#FFC7AB"/>
<path d="M88.6139 51.9503C89.1483 53.323 90.1632 54.5052 91.4424 55.2452C92.7218 55.9853 94.2568 56.2781 95.7207 56.0612C96.1783 57.51 97.0693 58.8074 98.2938 59.7148C99.5183 60.6223 101.034 61.1342 102.561 61.1561C102.923 61.1613 103.3 61.1359 103.618 60.9646C104.04 60.7379 104.295 60.2899 104.444 59.8368C104.842 58.6278 104.627 57.3114 104.361 56.067C104.041 54.5738 103.629 53.0456 102.671 51.8524C101.773 50.7339 100.462 50.0053 99.1002 49.5432C97.3235 48.9408 95.4045 48.7512 93.5456 49.0108C92.1244 49.2094 90.7402 49.6686 89.4839 50.3587C88.8688 50.6971 88.36 51.2983 88.6139 51.9503Z" fill="#764545"/>
<path d="M108.007 93.7226C107.454 93.3639 106.971 92.9066 106.367 92.6263C105.225 92.0953 103.869 92.006 102.676 92.4338C102.061 92.6543 101.539 92.985 101.041 93.4039C100.644 93.7384 100.253 94.1735 99.7552 94.3604C98.5104 94.8281 97.8794 92.9579 97.5068 92.1507C96.9668 90.9807 95.9982 89.7829 94.564 89.8754C93.0699 89.9718 92.212 91.1784 91.2461 92.1415C90.8558 92.5306 90.3529 92.9381 89.7692 92.9371C89.1954 92.9362 88.8421 92.4103 88.5335 91.9968C87.7638 90.9666 86.6127 90.0218 85.2899 90.7672C84.7166 91.0903 84.3446 91.6339 83.8557 92.0546C83.3844 92.4601 82.763 92.6687 82.143 92.6665C80.8275 92.6619 79.8342 91.6405 79.6362 90.3908C79.6234 90.3095 79.5884 90.238 79.542 90.1741C79.5714 91.1781 79.6583 92.1981 79.7868 93.2126C81.0751 94.1815 82.9305 94.3801 84.3937 93.3824C84.9141 93.0277 85.2774 92.527 85.7558 92.1295C86.2084 91.7535 86.5853 91.8787 86.9788 92.2781C87.4388 92.7451 87.7396 93.3436 88.254 93.7621C88.8198 94.2223 89.4974 94.3989 90.2179 94.2777C91.7306 94.0227 92.4468 92.6878 93.5221 91.7801C93.9754 91.3973 94.6033 91.0849 95.18 91.3794C95.7443 91.6674 96.0517 92.3052 96.3037 92.85C96.8782 94.0927 97.5279 95.5577 99.0661 95.7846C100.492 95.9949 101.291 94.8577 102.334 94.1449C103.488 93.3561 105.034 93.3575 106.197 94.122C106.741 94.4797 107.224 94.9113 107.807 95.191C107.916 94.7293 108.021 94.2633 108.123 93.7933C108.082 93.7697 108.042 93.7453 108.007 93.7226Z" fill="#F9E098"/>
<path d="M105.709 96.8382C105.027 96.5491 104.323 96.3434 103.575 96.4283C102.818 96.5142 102.114 96.8226 101.482 97.2369C100.36 97.9721 99.3558 99.226 97.9621 99.4395C97.4 99.5256 96.807 99.4083 96.4432 98.9425C96.0776 98.4745 95.9427 97.8496 95.7649 97.2972C95.3885 96.1287 94.5899 94.7679 93.1947 94.7288C91.7544 94.6886 91.0792 96.0659 90.6271 97.1991C90.4566 97.6268 90.2112 98.2207 89.7684 98.4371C89.302 98.665 88.9007 98.1844 88.659 97.842C87.964 96.8572 87.3242 95.4145 85.8737 95.4923C85.0502 95.5365 84.5178 96.1111 83.9842 96.6635C83.5576 97.1051 83.0448 97.4277 82.4543 97.6066C81.8643 97.7854 81.2222 97.8303 80.6072 97.7308C80.7186 98.2124 80.8341 98.6836 80.9524 99.1413C82.4145 99.2362 83.9076 98.7431 84.9697 97.6434C85.2975 97.304 85.6988 96.6779 86.2351 96.9607C86.7729 97.2445 87.0359 97.9008 87.3494 98.3827C87.7162 98.9466 88.1659 99.4876 88.8084 99.7428C89.447 99.9965 90.1541 99.8853 90.7014 99.4798C91.2456 99.0764 91.5871 98.482 91.8469 97.8706C92.066 97.355 92.2392 96.7174 92.6697 96.3287C93.7117 95.3879 94.3878 97.5802 94.5963 98.2192C95.0519 99.6164 95.8811 100.776 97.4814 100.847C99.057 100.917 100.29 99.9026 101.444 98.9805C102.073 98.4781 102.78 97.9501 103.596 97.8145C104.439 97.6744 105.221 98.1397 105.967 98.4567C106.255 98.5794 106.569 98.6811 106.891 98.7529C107.009 98.3281 107.127 97.8928 107.245 97.4482C106.663 97.3018 106.064 96.9885 105.709 96.8382Z" fill="#F9E098"/>
<path opacity="0.3" d="M108.121 92.2735C107.838 92.9035 107.515 93.5152 107.156 94.1052C105.7 96.4971 103.662 98.5182 101.319 100.052C99.9947 100.919 98.5695 101.633 97.0809 102.173C92.2836 103.914 86.9648 103.928 81.9938 102.726C82.6557 104.781 83.192 106.098 83.192 106.098C83.192 106.098 94.3316 108.64 104.447 106.098C104.592 106.061 107.297 98.7041 108.587 91.4339C108.325 91.5173 108.222 92.0478 108.121 92.2735Z" fill="#CB875B"/>
<path opacity="0.3" d="M108.511 91.4092C108.511 91.4092 113.148 92.8879 112.915 94.3833C112.789 95.1937 112.306 95.9581 111.659 96.6474C111.934 96.4622 112.198 96.2619 112.442 96.0352C113.246 95.2866 113.827 94.2191 113.721 93.1284C113.614 92.027 112.837 91.0966 111.957 90.4195C111.077 89.7424 110.068 89.2442 109.2 88.5515C108.468 87.9673 107.851 87.2439 107.379 86.4377C107.168 86.0768 106.986 85.6991 106.835 85.3095C106.714 84.9969 106.662 84.5816 106.444 84.3149C106.563 86.9613 107.072 89.7793 108.511 91.4092Z" fill="#D3AB90"/>
</g>
</g>
<defs>
<clipPath id="clip0_181_2471">
<rect width="184" height="122" fill="white"/>
</clipPath>
</defs>
</svg>
