<svg width="300" height="225" viewBox="0 0 300 225" fill="none" xmlns="http://www.w3.org/2000/svg">
<mask id="mask0_13_289" style="mask-type:luminance" maskUnits="userSpaceOnUse" x="0" y="0" width="300" height="225">
<path d="M300 0H0V225H300V0Z" fill="white"/>
</mask>
<g mask="url(#mask0_13_289)">
<path d="M118.304 50.1722H95.0734C93.4322 50.1722 92.1017 48.8417 92.1017 47.2005V25.4978C92.1017 24.2534 93.1103 23.2448 94.3546 23.2448H118.304C119.548 23.2448 120.557 24.2534 120.557 25.4978V47.9193C120.557 49.1636 119.548 50.1722 118.304 50.1722Z" fill="#56DFED"/>
<path d="M112.34 38.4076L110.886 36.9536C110.626 36.6679 110.288 36.5123 109.951 36.5123C109.613 36.5123 109.276 36.6679 109.016 36.9276L108.185 37.7586C108.133 37.7326 108.081 37.7066 108.029 37.6806C107.926 37.6287 107.848 37.6027 107.77 37.5507C106.991 37.0575 106.29 36.4084 105.615 35.5775C105.303 35.1882 105.069 34.8248 104.94 34.5131C105.147 34.3313 105.329 34.1235 105.511 33.9416C105.589 33.8637 105.667 33.7861 105.744 33.7081C106.03 33.4224 106.186 33.0847 106.186 32.7473C106.186 32.4096 106.03 32.0726 105.744 31.7868L105.017 31.0598C104.94 30.9819 104.862 30.904 104.784 30.8001C104.628 30.6442 104.446 30.4627 104.29 30.3068C104.031 30.0471 103.693 29.8912 103.356 29.8912C103.018 29.8912 102.707 30.0211 102.421 30.3068L101.512 31.2154C101.175 31.5527 100.967 31.9947 100.915 32.4879C100.863 33.2669 101.071 33.9939 101.252 34.4611C101.668 35.6554 102.317 36.7201 103.278 37.8625C104.446 39.2386 105.822 40.3289 107.432 41.1079C108.029 41.3937 108.86 41.731 109.769 41.809C109.821 41.809 109.873 41.809 109.951 41.809C110.574 41.809 111.093 41.5752 111.509 41.1339C111.509 41.1339 111.509 41.1339 111.535 41.1079C111.665 40.9521 111.82 40.7965 112.002 40.6407C112.106 40.5368 112.236 40.4072 112.34 40.3033C112.885 39.7321 112.885 38.9528 112.34 38.4076ZM111.742 39.7578C111.639 39.8617 111.535 39.9656 111.431 40.0695C111.249 40.2254 111.093 40.4069 110.912 40.5887C110.652 40.8485 110.366 40.978 109.977 40.978C109.925 40.978 109.899 40.978 109.847 40.978C109.068 40.9261 108.341 40.6147 107.822 40.3549C106.342 39.6279 105.043 38.6155 103.953 37.3173C103.07 36.2526 102.473 35.2401 102.057 34.1754C101.798 33.5523 101.694 33.0587 101.746 32.5655C101.772 32.2798 101.876 32.0206 102.109 31.8128L102.992 30.9299C103.07 30.852 103.2 30.7481 103.356 30.7481C103.511 30.7481 103.615 30.826 103.719 30.9299C103.875 31.0858 104.031 31.2413 104.187 31.3972C104.264 31.4751 104.342 31.579 104.446 31.657L105.173 32.384C105.251 32.4619 105.355 32.6175 105.355 32.7473C105.355 32.9032 105.251 33.0331 105.173 33.111C105.095 33.1889 105.017 33.2665 104.94 33.3445C104.706 33.5783 104.498 33.7858 104.29 33.9936C104.29 33.9936 104.29 33.9936 104.264 34.0195C104.005 34.2793 104.057 34.5128 104.109 34.6686V34.6946C104.29 35.1619 104.576 35.5775 104.966 36.0967C105.693 37.0056 106.472 37.7066 107.328 38.2518C107.432 38.3297 107.562 38.3817 107.666 38.4336C107.77 38.4856 107.848 38.5116 107.926 38.5635L107.952 38.5895C108.211 38.7194 108.471 38.6674 108.679 38.4596L109.587 37.5507C109.665 37.4728 109.795 37.3692 109.951 37.3692C110.081 37.3692 110.211 37.4728 110.288 37.5507L111.742 39.0048C111.976 39.2386 111.976 39.498 111.742 39.7578Z" fill="white"/>
<path d="M56.1365 51.117H10.6469C9.70705 51.117 8.94537 50.3553 8.94537 49.4154C8.94537 48.4755 9.70705 47.7139 10.6469 47.7139H56.1365C57.0764 47.7139 57.838 48.4755 57.838 49.4154C57.838 50.3553 57.0764 51.117 56.1365 51.117Z" fill="#D0021B"/>
<path d="M228.272 49.3596H182.771C182.191 49.3596 181.721 48.8892 181.721 48.3092V36.7453C181.721 36.1654 182.191 35.6949 182.771 35.6949H228.272C228.852 35.6949 229.323 36.165 229.323 36.745V48.3092C229.323 48.8892 228.852 49.3596 228.272 49.3596Z" fill="#F8E71C"/>
<path d="M186.906 47.8136V53.139L193.603 47.8136H186.906Z" fill="#F8E71C"/>
<path d="M188.205 40.5634H220.125" stroke="white" stroke-width="0.257889" stroke-miterlimit="10"/>
<path d="M188.204 43.841L197.575 43.8339" stroke="white" stroke-width="0.257889" stroke-miterlimit="10"/>
<path d="M292.681 162.233H270.602C269.662 162.233 268.901 161.472 268.901 160.532C268.901 159.592 269.662 158.83 270.602 158.83H292.681C293.621 158.83 294.383 159.592 294.383 160.532C294.383 161.472 293.621 162.233 292.681 162.233Z" fill="#E47760"/>
<path d="M277.01 181.147H274.728C274.344 181.147 274.032 180.836 274.032 180.451V178.285C274.032 177.9 274.344 177.588 274.728 177.588H277.01C277.394 177.588 277.706 177.9 277.706 178.285V180.451C277.706 180.836 277.394 181.147 277.01 181.147Z" fill="#E47760"/>
<path d="M20.4056 191.58H19.8616C19.7699 191.58 19.6955 191.506 19.6955 191.414V190.898C19.6955 190.806 19.7699 190.732 19.8616 190.732H20.4056C20.4973 190.732 20.5716 190.806 20.5716 190.898V191.414C20.5716 191.506 20.4973 191.58 20.4056 191.58Z" fill="black"/>
<path d="M37.697 78.5933H261.725" stroke="#DED8D5" stroke-width="0.430106" stroke-miterlimit="10"/>
<path d="M259.45 202.516H39.9712C38.715 202.516 37.697 201.498 37.697 200.241V66.1819C37.697 64.9257 38.715 63.9077 39.9712 63.9077H259.45C260.706 63.9077 261.725 64.9257 261.725 66.1819V200.241C261.725 201.498 260.706 202.516 259.45 202.516Z" stroke="#DED8D5" stroke-width="0.430106" stroke-miterlimit="10"/>
<path d="M52.4614 71.4003C52.4614 72.532 51.5438 73.4492 50.4121 73.4492C49.2804 73.4492 48.3629 72.532 48.3629 71.4003C48.3629 70.2686 49.2804 69.351 50.4121 69.351C51.5438 69.351 52.4614 70.2686 52.4614 71.4003Z" fill="#FFB1A5"/>
<path d="M60.4254 71.4003C60.4254 72.532 59.5078 73.4492 58.3761 73.4492C57.2444 73.4492 56.3268 72.532 56.3268 71.4003C56.3268 70.2686 57.2444 69.351 58.3761 69.351C59.5078 69.351 60.4254 70.2686 60.4254 71.4003Z" fill="#EAD254"/>
<path d="M68.3894 71.4003C68.3894 72.532 67.4719 73.4492 66.3402 73.4492C65.2085 73.4492 64.2913 72.532 64.2913 71.4003C64.2913 70.2686 65.2085 69.351 66.3402 69.351C67.4719 69.351 68.3894 70.2686 68.3894 71.4003Z" fill="#00857B"/>
<path d="M291.426 128.057H237.578C236.424 128.057 235.489 127.122 235.489 125.968V76.0774C235.489 74.9234 236.424 73.988 237.578 73.988H291.426C292.58 73.988 293.515 74.9234 293.515 76.0774V125.968C293.515 127.122 292.58 128.057 291.426 128.057Z" fill="#EDEDED"/>
<path d="M291.426 128.057H237.578C236.424 128.057 235.489 127.122 235.489 125.968V76.0774C235.489 74.9234 236.424 73.988 237.578 73.988H291.426C292.58 73.988 293.515 74.9234 293.515 76.0774V125.968C293.515 127.122 292.58 128.057 291.426 128.057Z" stroke="#DED8D5" stroke-width="0.430106" stroke-miterlimit="10"/>
<path d="M250.304 113.992H278.872C280.032 113.992 280.972 113.052 280.972 111.892V88.2623C280.972 87.1024 280.032 86.1622 278.872 86.1622H250.304C249.144 86.1622 248.204 87.1024 248.204 88.2623V111.892C248.204 113.052 249.144 113.992 250.304 113.992Z" fill="#C98BD2"/>
<path d="M272.063 104.705H259.254H256.941V94.5635H272.063V97.0986V104.705Z" stroke="white" stroke-width="0.359952" stroke-linecap="round" stroke-linejoin="round"/>
<path d="M256.941 94.5635L264.502 100.522L272.063 94.5635" stroke="white" stroke-width="0.359952" stroke-linecap="round" stroke-linejoin="round"/>
<path d="M59.6997 168.832H8.34587C7.24556 168.832 6.35345 167.94 6.35345 166.84V121.92C6.35345 120.82 7.24556 119.927 8.34587 119.927H59.6997C60.8 119.927 61.6921 120.82 61.6921 121.92V166.84C61.6921 167.94 60.8 168.832 59.6997 168.832Z" fill="#EDEDED"/>
<path d="M59.6997 168.832H8.34587C7.24556 168.832 6.35345 167.94 6.35345 166.84V121.92C6.35345 120.82 7.24556 119.927 8.34587 119.927H59.6997C60.8 119.927 61.6921 120.82 61.6921 121.92V166.84C61.6921 167.94 60.8 168.832 59.6997 168.832Z" stroke="#DED8D5" stroke-width="0.430106" stroke-miterlimit="10"/>
<path d="M47.5768 159.41H20.2083C18.9294 159.41 17.8929 158.374 17.8929 157.095V130.619C17.8929 129.34 18.9294 128.303 20.2083 128.303H47.5768C48.8556 128.303 49.8921 129.34 49.8921 130.619V157.095C49.8921 158.374 48.8556 159.41 47.5768 159.41Z" fill="#E47760"/>
<path d="M26.3674 148.864C28.9582 153.104 34.5648 154.458 38.8049 151.867C43.0448 149.277 44.3986 143.67 41.8081 139.43C39.2177 135.19 33.6105 133.836 29.3706 136.427C25.1305 139.017 23.7767 144.624 26.3674 148.864ZM30.6323 136.753L29.9556 139.555C29.0073 139.624 28.0394 139.774 27.0512 140.008C27.8969 138.569 29.1572 137.443 30.6323 136.753ZM32.7937 147.252C31.6577 146.977 30.5534 146.568 29.4846 146.012L30.843 140.387C32.0476 140.38 33.2167 140.521 34.3533 140.794L32.7937 147.252ZM35.3735 141.076C36.4911 141.429 37.5781 141.909 38.6371 142.504L37.3859 147.685C36.1721 147.732 34.9857 147.663 33.8306 147.466L35.3735 141.076ZM26.1537 142.231C26.2558 141.809 26.3892 141.402 26.5507 141.012C27.6425 140.706 28.7059 140.516 29.7435 140.434L28.5276 145.469C27.6417 144.923 26.7823 144.268 25.9506 143.497C25.9847 143.077 26.0516 142.654 26.1537 142.231ZM25.9376 144.619C26.7101 145.279 27.5031 145.853 28.3156 146.347L27.6389 149.15C26.6413 147.862 26.0336 146.286 25.9376 144.619ZM28.4984 150.097L29.2735 146.887C30.3422 147.442 31.4432 147.865 32.5746 148.16L31.6618 151.94C30.4462 151.563 29.3757 150.922 28.4984 150.097ZM36.346 151.992C35.1889 152.326 33.9437 152.408 32.6903 152.188L33.607 148.392C34.7568 148.611 35.9367 148.705 37.1457 148.68L36.346 151.992ZM37.5433 151.541L38.2475 148.625C39.2086 148.549 40.1873 148.403 41.1823 148.187C40.3368 149.673 39.0525 150.835 37.5433 151.541ZM42.0219 146.063C41.9369 146.415 41.83 146.757 41.7031 147.086C40.6148 147.336 39.5439 147.515 38.4921 147.612L39.5879 143.074C40.4793 143.641 41.3508 144.288 42.2051 145.007C42.1677 145.358 42.1071 145.71 42.0219 146.063ZM42.2439 143.79C41.4571 143.144 40.6536 142.567 39.8325 142.061L40.5368 139.145C41.5572 140.462 42.17 142.082 42.2439 143.79ZM39.6769 138.197L38.8772 141.509C37.8132 140.935 36.7201 140.48 35.5972 140.15L36.5138 136.354C37.729 136.732 38.8 137.372 39.6769 138.197ZM35.4852 136.106L34.5724 139.886C33.4311 139.633 32.2588 139.506 31.0541 139.513L31.8293 136.302C32.9866 135.968 34.2315 135.887 35.4852 136.106Z" fill="white"/>
</g>
</svg>
