<svg width="60" height="67" viewBox="0 0 60 67" fill="none" xmlns="http://www.w3.org/2000/svg">
<path d="M23.9933 3.07127C25.4856 4.21299 26.7948 5.58767 28.0161 7.01078C28.5546 7.63706 29.0711 8.17105 29.7538 8.64134C30.1608 8.70237 30.1608 8.70237 30.5155 8.45091C31.1688 7.81514 31.799 7.15744 32.4317 6.50123C32.7123 6.21355 32.9934 5.92634 33.2748 5.63933C33.4647 5.44468 33.6537 5.24918 33.8418 5.05279C36.9539 1.80786 40.7049 0.132184 45.2175 0.00468108C49.2704 -0.0312931 52.9882 1.19096 55.9736 3.99441C59.2828 7.43226 59.9265 11.5838 59.8818 16.138C59.8506 17.5206 59.6996 18.7452 59.2704 20.0671C59.196 20.3052 59.1216 20.5433 59.045 20.7887C57.2596 26.1534 53.1442 30.2588 48.9419 33.8704C48.4721 34.2743 48.0159 34.6926 47.5589 35.1111C46.8372 35.7693 46.1097 36.419 45.372 37.0592C44.9337 37.444 44.503 37.8367 44.0717 38.2294C43.3978 38.839 42.7085 39.4208 42.0008 39.9908C41.2809 40.5732 40.6164 41.1739 39.973 41.8386C39.5187 42.295 39.0329 42.711 38.5455 43.1314C38.0854 43.5311 37.6327 43.9383 37.1805 44.3469C36.4919 44.9683 35.7978 45.5826 35.0977 46.1909C34.6442 46.5903 34.199 46.9982 33.7528 47.4057C31.2231 49.6894 31.2231 49.6894 29.4942 49.6574C28.6048 49.5269 28.1117 49.0398 27.4686 48.4411C27.2716 48.2618 27.0744 48.0825 26.8772 47.9033C26.4435 47.5068 26.0127 47.1074 25.5837 46.7057C25.0185 46.1774 24.44 45.6668 23.8549 45.1607C23.3715 44.737 22.8971 44.3041 22.4222 43.8708C21.7011 43.2132 20.9741 42.5643 20.2375 41.9241C19.6227 41.3851 19.0175 40.8355 18.4106 40.2876C18.009 39.9273 17.6045 39.5711 17.1973 39.2172C16.3986 38.5218 15.618 37.807 14.8355 37.0935C14.2932 36.6021 13.7439 36.12 13.1916 35.64C12.5762 35.1005 11.9706 34.5504 11.3632 34.002C10.9703 33.6496 10.5742 33.3021 10.1752 32.9568C5.13597 28.5475 0.654646 23.4018 0.0467353 16.449C-0.218714 11.9809 0.603453 7.95219 3.62696 4.51288C9.06926 -1.22908 17.7153 -1.24593 23.9933 3.07127Z" fill="#FE7F6C"/>
<path d="M5.76123 36.825C6.85736 37.4504 7.76251 38.3877 8.68834 39.2343C9.18477 39.6777 9.69396 40.0974 10.2125 40.5145C11.0794 41.2153 11.8993 41.9523 12.7147 42.711C13.502 43.4391 14.3239 44.1162 15.1592 44.7888C15.6584 45.1996 16.138 45.6253 16.6157 46.0608C17.2624 46.6503 17.9224 47.2132 18.6033 47.7628C19.5127 48.4982 20.3742 49.2746 21.2344 50.0665C21.7419 50.522 22.2616 50.9534 22.7928 51.3809C23.5512 51.9917 24.2726 52.6315 24.9827 53.2971C27.5215 55.7136 27.5215 55.7136 30.8065 56.4853C33.1662 56.2549 35.2692 53.7429 36.9917 52.2498C37.1092 52.148 37.2267 52.0461 37.3478 51.9412C37.8254 51.5275 38.3028 51.1136 38.78 50.6995C39.9106 49.7188 41.0467 48.7446 42.184 47.7716C42.7387 47.2969 43.2929 46.8216 43.8472 46.3464C44.5112 45.7771 45.1754 45.2079 45.84 44.6393C46.988 43.6568 48.1332 42.6713 49.2744 41.6809C49.7504 41.2682 50.2265 40.8556 50.7026 40.4431C50.8206 40.3408 50.9387 40.2385 51.0602 40.1331C51.7298 39.5534 52.4015 38.9765 53.0777 38.4047C53.3428 38.1799 53.6062 37.9529 53.8693 37.7258C54.692 37.0423 55.2955 36.5915 56.4155 36.6345C57.0961 36.937 57.3317 37.1518 57.7485 37.7771C57.8329 38.4581 57.8149 38.8085 57.4607 39.4025C56.4992 40.5193 55.499 41.5746 54.448 42.6073C53.7796 43.2641 53.1511 43.9386 52.5444 44.6534C52.0473 45.2156 51.5089 45.7348 50.9704 46.2572C50.4711 46.7695 50.0057 47.3045 49.5369 47.8447C48.9462 48.5153 48.3303 49.1617 47.7153 49.8099C46.8012 50.7769 45.8899 51.7459 44.9897 52.7258C44.1045 53.689 43.2096 54.6427 42.3118 55.5942C41.2766 56.6915 40.2505 57.7959 39.2337 58.9103C38.5059 59.7062 37.7676 60.4923 37.0306 61.2797C36.411 61.9423 35.7952 62.6078 35.1847 63.2787C34.7734 63.7302 34.3592 64.1791 33.9448 64.6277C33.8059 64.7794 33.6669 64.9311 33.5238 65.0874C32.5666 66.096 31.7615 66.7147 30.3267 66.8057C28.7606 66.7127 27.7378 65.5457 26.7085 64.4849C26.5804 64.3558 26.4522 64.2266 26.3202 64.0936C25.5651 63.3268 24.8465 62.5361 24.1429 61.722C23.8078 61.34 23.4558 60.9816 23.0903 60.6287C22.6008 60.156 22.1467 59.6633 21.7008 59.1499C21.0241 58.3709 20.3238 57.6174 19.615 56.8677C18.7351 55.9337 17.8602 54.996 16.9966 54.0469C16.3533 53.3418 15.6976 52.6577 15.0164 51.9894C14.685 51.6516 14.377 51.2995 14.0687 50.9406C13.5753 50.3674 13.0599 49.8292 12.5215 49.2981C11.8644 48.6499 11.252 47.9795 10.6514 47.2793C10.232 46.8052 9.78243 46.3665 9.33104 45.9232C8.9862 45.5722 8.66467 45.208 8.34393 44.8349C7.88335 44.3001 7.40673 43.7947 6.90381 43.2996C6.28181 42.6872 5.70698 42.0483 5.13936 41.3856C4.70328 40.8955 4.23515 40.4437 3.758 39.9938C3.26242 39.4446 3.10638 38.9964 3 38.2651C3.09521 37.5867 3.09521 37.5867 3.57129 37.0154C4.28805 36.5089 4.95544 36.5274 5.76123 36.825Z" fill="#5AC0B7"/>
</svg>
