<svg width="80" height="28" viewBox="0 0 80 28" fill="none" xmlns="http://www.w3.org/2000/svg">
<path d="M10.1631 1.28725C10.7953 1.76577 11.3498 2.34194 11.8672 2.9384C12.0952 3.20089 12.314 3.42469 12.6032 3.6218C12.7756 3.64739 12.7756 3.64739 12.9258 3.54199C13.2026 3.27553 13.4695 2.99986 13.7375 2.72483C13.8564 2.60426 13.9755 2.48388 14.0946 2.36359C14.1751 2.282 14.2551 2.20006 14.3348 2.11775C15.653 0.757721 17.2419 0.0554015 19.1534 0.00196196C20.8701 -0.0131157 22.4449 0.499163 23.7095 1.67416C25.1112 3.11505 25.3839 4.85505 25.3649 6.76385C25.3517 7.34334 25.2877 7.85658 25.1059 8.41064C25.0744 8.51044 25.0429 8.61024 25.0105 8.71306C24.2542 10.9616 22.511 12.6822 20.731 14.1959C20.532 14.3652 20.3387 14.5406 20.1452 14.7159C19.8395 14.9918 19.5313 15.2641 19.2188 15.5325C19.0331 15.6938 18.8507 15.8583 18.668 16.0229C18.3826 16.2784 18.0906 16.5222 17.7908 16.7612C17.4859 17.0052 17.2044 17.257 16.9319 17.5356C16.7395 17.7269 16.5337 17.9013 16.3272 18.0775C16.1323 18.245 15.9406 18.4157 15.749 18.5869C15.4574 18.8474 15.1634 19.1048 14.8668 19.3598C14.6747 19.5272 14.4861 19.6982 14.2971 19.8689C13.2256 20.8261 13.2256 20.8261 12.4932 20.8127C12.1165 20.758 11.9076 20.5538 11.6352 20.3029C11.5518 20.2277 11.4683 20.1526 11.3847 20.0775C11.201 19.9113 11.0185 19.7439 10.8368 19.5756C10.5974 19.3541 10.3524 19.1401 10.1045 18.928C9.89978 18.7504 9.69882 18.569 9.49768 18.3874C9.19224 18.1118 8.88426 17.8398 8.57226 17.5715C8.31184 17.3456 8.0555 17.1152 7.7984 16.8856C7.62831 16.7346 7.45697 16.5853 7.28449 16.4369C6.94618 16.1455 6.61552 15.8459 6.28408 15.5468C6.05438 15.3409 5.82168 15.1388 5.58774 14.9376C5.32709 14.7115 5.07053 14.4809 4.81325 14.2511C4.64686 14.1034 4.47907 13.9578 4.31005 13.813C2.17551 11.965 0.277297 9.80829 0.0197963 6.89418C-0.0926437 5.02151 0.255612 3.33296 1.53632 1.89146C3.84159 -0.515138 7.50392 -0.5222 10.1631 1.28725Z" fill="#FE7F6C"/>
<path d="M2.44036 15.4343C2.90467 15.6964 3.28807 16.0893 3.68024 16.4441C3.89052 16.6299 4.1062 16.8059 4.32586 16.9807C4.69303 17.2744 5.04033 17.5833 5.38574 17.9013C5.71921 18.2065 6.06737 18.4902 6.4212 18.7721C6.63263 18.9443 6.8358 19.1227 7.03814 19.3053C7.31207 19.5523 7.59163 19.7883 7.88006 20.0186C8.26526 20.3268 8.63016 20.6523 8.99453 20.9842C9.20949 21.1751 9.42966 21.3559 9.65464 21.5351C9.97589 21.7911 10.2815 22.0592 10.5823 22.3382C11.6576 23.351 11.6576 23.351 13.0491 23.6745C14.0487 23.5779 14.9395 22.525 15.6691 21.8992C15.7188 21.8565 15.7686 21.8139 15.8199 21.7699C16.0222 21.5965 16.2244 21.423 16.4266 21.2495C16.9055 20.8384 17.3867 20.4301 17.8684 20.0223C18.1034 19.8233 18.3382 19.6242 18.5729 19.425C18.8542 19.1864 19.1355 18.9478 19.4171 18.7095C19.9033 18.2977 20.3884 17.8846 20.8718 17.4695C21.0734 17.2966 21.2751 17.1236 21.4768 16.9508C21.5268 16.9079 21.5768 16.865 21.6283 16.8208C21.9119 16.5778 22.1964 16.3361 22.4828 16.0964C22.5951 16.0022 22.7067 15.907 22.8181 15.8118C23.1666 15.5254 23.4222 15.3364 23.8967 15.3545C24.185 15.4812 24.2847 15.5713 24.4613 15.8334C24.497 16.1188 24.4894 16.2656 24.3394 16.5146C23.9321 16.9827 23.5085 17.425 23.0633 17.8578C22.7802 18.1331 22.5139 18.4158 22.257 18.7154C22.0464 18.951 21.8183 19.1686 21.5902 19.3876C21.3787 19.6023 21.1816 19.8265 20.983 20.0529C20.7328 20.334 20.4719 20.6049 20.2114 20.8766C19.8242 21.2819 19.4382 21.688 19.0569 22.0988C18.682 22.5025 18.3029 22.9022 17.9226 23.3009C17.4841 23.7609 17.0494 24.2237 16.6187 24.6908C16.3105 25.0244 15.9977 25.3539 15.6855 25.6839C15.4231 25.9616 15.1622 26.2406 14.9036 26.5217C14.7294 26.711 14.554 26.8991 14.3785 27.0871C14.3196 27.1507 14.2608 27.2143 14.2001 27.2798C13.7947 27.7025 13.4537 27.9618 12.8459 28C12.1825 27.961 11.7492 27.4719 11.3133 27.0273C11.259 26.9731 11.2047 26.919 11.1488 26.8633C10.8289 26.5419 10.5246 26.2105 10.2265 25.8693C10.0846 25.7092 9.9355 25.5589 9.78068 25.411C9.57331 25.2129 9.38099 25.0064 9.19209 24.7912C8.90547 24.4647 8.60883 24.1489 8.30858 23.8347C7.93586 23.4433 7.56527 23.0502 7.19947 22.6525C6.92697 22.3569 6.64926 22.0702 6.3607 21.7901C6.22034 21.6485 6.08987 21.501 5.95928 21.3505C5.75025 21.1103 5.53196 20.8847 5.30389 20.6621C5.02557 20.3904 4.76617 20.1094 4.51176 19.8159C4.33409 19.6173 4.14368 19.4334 3.95248 19.2476C3.80641 19.1005 3.67021 18.9478 3.53435 18.7915C3.33926 18.5673 3.13737 18.3555 2.92434 18.148C2.66087 17.8913 2.41738 17.6235 2.17695 17.3458C1.99223 17.1404 1.79394 16.951 1.59183 16.7624C1.38191 16.5323 1.31581 16.3444 1.27075 16.0379C1.31108 15.7535 1.31108 15.7535 1.51274 15.5141C1.81635 15.3018 2.09904 15.3096 2.44036 15.4343Z" fill="#5AC0B7"/>
<path d="M68.7111 7.75391C68.774 7.75356 68.8369 7.75321 68.9016 7.75285C69.0346 7.75238 69.1675 7.75234 69.3005 7.7527C69.5033 7.75295 69.706 7.75104 69.9088 7.74896C70.0381 7.74878 70.1674 7.74872 70.2968 7.7488C70.3571 7.74805 70.4175 7.7473 70.4797 7.74652C70.8498 7.74982 71.0934 7.77928 71.3743 8.02382C71.6901 8.50236 71.8718 9.07571 72.0797 9.60557C72.1153 9.69564 72.1509 9.78571 72.1876 9.87852C72.3042 10.1733 72.4203 10.4682 72.5365 10.7631C72.6178 10.9691 72.6992 11.175 72.7806 11.3809C72.801 11.4325 72.8215 11.4841 72.8425 11.5373C72.884 11.6421 72.9254 11.747 72.9669 11.8518C73.0296 12.0104 73.0923 12.169 73.155 12.3276C73.521 13.2535 73.8907 14.1779 74.2614 15.102C74.4521 15.578 74.6423 16.0541 74.8325 16.5303C74.9995 16.9482 75.1671 17.3659 75.3353 17.7834C75.4313 18.0222 75.5267 18.2614 75.6218 18.5006C75.6646 18.6078 75.7077 18.7148 75.7511 18.8217C75.8092 18.965 75.8662 19.1088 75.9231 19.2526C75.9546 19.3312 75.9862 19.4098 76.0187 19.4909C76.0934 19.7462 76.114 19.9433 76.0848 20.2076C75.9918 20.3582 75.9918 20.3582 75.8369 20.4529C75.473 20.5126 75.1051 20.5021 74.7367 20.504C74.6356 20.5077 74.5345 20.5114 74.4302 20.5152C73.7248 20.5205 73.7248 20.5205 73.4398 20.3589C73.0426 19.9485 72.868 19.3497 72.6707 18.8277C72.5989 18.6422 72.5269 18.4567 72.4548 18.2713C72.4238 18.1897 72.3927 18.1082 72.3607 18.0241C72.3002 17.8423 72.3002 17.8423 72.2007 17.7545C72.0334 17.7468 71.8658 17.7449 71.6983 17.7452C71.5907 17.7452 71.4832 17.7452 71.3724 17.7452C71.2541 17.7456 71.1359 17.7461 71.0176 17.7465C70.8973 17.7467 70.777 17.7468 70.6567 17.7469C70.3394 17.7472 70.0222 17.748 69.705 17.7489C69.3815 17.7497 69.058 17.7501 68.7345 17.7505C68.0994 17.7514 67.4643 17.7528 66.8291 17.7545C66.7631 17.9107 66.6971 18.067 66.6311 18.2233C66.5943 18.3103 66.5576 18.3973 66.5197 18.4869C66.4368 18.6857 66.3563 18.8847 66.2787 19.0855C66.2405 19.1843 66.2022 19.283 66.1628 19.3848C66.1244 19.485 66.0859 19.5853 66.0463 19.6886C65.9 20.006 65.7481 20.2927 65.4242 20.4529C65.0683 20.475 64.7117 20.4719 64.3551 20.4734C64.2056 20.4759 64.2056 20.4759 64.0531 20.4785C63.9577 20.4789 63.8623 20.4793 63.764 20.4797C63.6764 20.4805 63.5887 20.4813 63.4984 20.4821C63.2756 20.4529 63.2756 20.4529 63.116 20.3695C62.9683 20.0986 63.041 19.8394 63.1103 19.5534C63.193 19.2917 63.2934 19.0388 63.3973 18.7846C63.4412 18.6745 63.4412 18.6745 63.486 18.5622C63.5822 18.3217 63.6794 18.0815 63.7766 17.8414C63.8446 17.6717 63.9125 17.502 63.9803 17.3323C64.1191 16.9854 64.2581 16.6385 64.3975 16.2918C64.6594 15.6395 64.9174 14.9856 65.1748 14.3316C65.254 14.1306 65.3333 13.9297 65.4127 13.7288C65.688 13.032 65.9612 12.3344 66.2319 11.6358C66.3749 11.2666 66.5185 10.8975 66.662 10.5283C66.7315 10.349 66.8009 10.1696 66.87 9.99009C66.9664 9.73958 67.0636 9.48937 67.161 9.2392C67.1894 9.16474 67.2179 9.09028 67.2472 9.01356C67.5532 8.23154 67.7913 7.75278 68.7111 7.75391Z" fill="#1E9695"/>
<path d="M44.8342 7.72994C44.8949 7.72994 44.9556 7.72993 45.0181 7.72993C45.1457 7.73037 45.2733 7.7318 45.4009 7.73417C45.5955 7.7376 45.7899 7.73753 45.9846 7.73697C46.109 7.73783 46.2335 7.73888 46.3579 7.74016C46.4157 7.74018 46.4735 7.74019 46.533 7.74021C46.8933 7.74879 47.1268 7.79828 47.4087 8.0238C47.6091 8.30111 47.7335 8.59833 47.86 8.91433C47.8984 9.00973 47.9367 9.10512 47.9763 9.2034C48.0178 9.30764 48.0593 9.41187 48.1008 9.51611C48.1448 9.6259 48.1888 9.73567 48.2329 9.84543C48.3488 10.1345 48.4642 10.4237 48.5794 10.7129C48.6461 10.8803 48.7128 11.0476 48.7796 11.2149C49.0004 11.7683 49.2208 12.3218 49.4408 12.8754C49.6856 13.4914 49.931 14.1071 50.1767 14.7228C50.28 14.9816 50.3831 15.2405 50.4862 15.4994C50.7314 16.1153 50.9777 16.7308 51.2272 17.3451C51.3437 17.6321 51.4596 17.9192 51.5755 18.2064C51.6311 18.3436 51.6869 18.4807 51.743 18.6177C51.8207 18.8077 51.8975 18.998 51.9742 19.1883C52.009 19.2723 52.009 19.2723 52.0445 19.358C52.1604 19.6485 52.253 19.8948 52.2018 20.2076C52.1101 20.3532 52.1101 20.3532 51.9539 20.4529C51.5744 20.5107 51.1908 20.4983 50.8073 20.4989C50.6486 20.5034 50.6486 20.5034 50.4867 20.508C49.721 20.5116 49.721 20.5116 49.3872 20.2699C49.3046 20.1352 49.3046 20.1352 49.2268 19.9623C49.1923 19.8866 49.1579 19.8109 49.1224 19.733C49.0076 19.464 48.9019 19.1929 48.7981 18.9197C48.7267 18.7343 48.6549 18.549 48.5828 18.3639C48.5516 18.2823 48.5205 18.2006 48.4884 18.1165C48.4105 17.9083 48.4105 17.9083 48.2351 17.7545C48.0043 17.7305 48.0043 17.7305 47.7308 17.7359C47.6249 17.7359 47.5191 17.7359 47.41 17.7359C47.294 17.7368 47.178 17.7376 47.062 17.7385C46.9436 17.7388 46.8253 17.739 46.7069 17.7392C46.3953 17.7398 46.0836 17.7414 45.772 17.7432C45.454 17.7449 45.1361 17.7457 44.8181 17.7465C44.1941 17.7482 43.5701 17.751 42.9461 17.7545C42.8803 17.896 42.8146 18.0377 42.749 18.1793C42.7125 18.2582 42.6759 18.337 42.6382 18.4183C42.4631 18.8102 42.3183 19.2132 42.1762 19.6178C42.1533 19.6791 42.1304 19.7404 42.1068 19.8035C42.0776 19.8849 42.0776 19.8849 42.0479 19.9678C41.9132 20.1955 41.7651 20.3107 41.5412 20.4529C41.2921 20.4939 41.2921 20.4939 41.0186 20.4935C40.92 20.4935 40.8214 20.4936 40.7198 20.4936C40.6176 20.492 40.5154 20.4904 40.4101 20.4887C40.2553 20.4895 40.2553 20.4895 40.0975 20.4904C39.5305 20.4865 39.5305 20.4865 39.31 20.4529C39.1205 20.1717 39.1262 20.0349 39.1724 19.7074C39.2967 19.174 39.5221 18.6698 39.7283 18.1633C39.7807 18.0327 39.833 17.9021 39.8852 17.7714C39.9953 17.4959 40.1058 17.2206 40.2167 16.9454C40.4593 16.3423 40.6965 15.7371 40.9343 15.1321C41.4853 13.731 42.0403 12.3315 42.5949 10.9318C42.6308 10.8412 42.6667 10.7506 42.7036 10.6573C42.8064 10.3979 42.9092 10.1386 43.012 9.87929C43.0422 9.80293 43.0725 9.72658 43.1036 9.64791C43.1609 9.50358 43.2185 9.3594 43.2766 9.2154C43.3328 9.07244 43.3862 8.92835 43.4369 8.78341C43.6985 8.06157 44.0099 7.71076 44.8342 7.72994Z" fill="#1F9695"/>
<path d="M51.6818 7.75677C51.8236 7.75646 51.8236 7.75646 51.9683 7.75614C52.0675 7.75677 52.1667 7.7574 52.269 7.75805C52.3672 7.75742 52.4655 7.75679 52.5668 7.75614C52.6616 7.75635 52.7565 7.75656 52.8542 7.75677C52.941 7.75696 53.0278 7.75714 53.1173 7.75733C53.4767 7.78882 53.6868 7.85912 53.9461 8.1115C54.1468 8.41866 54.2579 8.72803 54.374 9.07372C54.3986 9.14451 54.4232 9.2153 54.4485 9.28823C54.5011 9.44004 54.5533 9.59197 54.6052 9.74402C54.7423 10.1455 54.8822 10.5461 55.0216 10.9468C55.0493 11.0265 55.0769 11.1063 55.1054 11.1884C55.3316 11.84 55.5659 12.4881 55.807 13.1345C55.8422 13.229 55.8774 13.3234 55.9137 13.4208C56.0966 13.9103 56.2809 14.3992 56.4653 14.8881C56.5398 15.0856 56.6142 15.2831 56.6886 15.4806C56.7838 15.7335 56.8795 15.9864 56.9753 16.2392C57.019 16.3549 57.0627 16.4706 57.1063 16.5864C57.1261 16.6382 57.1458 16.6901 57.1662 16.7435C57.2917 17.0772 57.3958 17.4114 57.4908 17.7545C57.5453 17.7545 57.5999 17.7545 57.6561 17.7545C57.6664 17.6959 57.6767 17.6374 57.6874 17.5771C57.7391 17.3437 57.8116 17.136 57.8992 16.9135C57.9331 16.8264 57.967 16.7393 58.0019 16.6496C58.0583 16.5059 58.0583 16.5059 58.1158 16.3593C58.5202 15.317 58.912 14.2703 59.2985 13.2213C59.3266 13.1455 59.3546 13.0696 59.3835 12.9915C59.6923 12.1555 59.993 11.318 60.2731 10.4721C60.2971 10.4003 60.3211 10.3285 60.3458 10.2545C60.4591 9.91509 60.5706 9.57532 60.6787 9.23425C61.043 8.11304 61.043 8.11304 61.4452 7.84318C61.8454 7.69742 62.256 7.71886 62.6765 7.7325C62.7703 7.73266 62.8642 7.73281 62.9609 7.73298C63.6396 7.74373 63.6396 7.74373 63.8414 7.88628C63.9789 8.0847 63.9436 8.24976 63.9042 8.47905C63.7993 8.89574 63.6358 9.29094 63.477 9.68988C63.4368 9.79264 63.3966 9.89544 63.3566 9.99827C63.2682 10.2249 63.1794 10.4514 63.0905 10.6777C62.8518 11.2862 62.6181 11.8966 62.3836 12.5066C62.2988 12.7271 62.214 12.9475 62.129 13.1679C61.8074 14.0027 61.487 14.8381 61.1682 15.674C61.0033 16.1061 60.8377 16.5379 60.672 16.9698C60.5324 17.3341 60.3941 17.6989 60.2567 18.0641C60.1676 18.3006 60.0775 18.5367 59.9872 18.7727C59.9454 18.8827 59.9039 18.9929 59.8628 19.1033C59.8065 19.2546 59.7487 19.4053 59.6908 19.556C59.6587 19.6408 59.6267 19.7256 59.5937 19.813C59.4473 20.096 59.3181 20.2599 59.061 20.4529C58.8133 20.4947 58.6135 20.5123 58.3663 20.5101C58.3 20.5107 58.2337 20.5112 58.1653 20.5118C58.0256 20.5125 57.8858 20.5121 57.7461 20.5107C57.5327 20.5091 57.3197 20.5123 57.1063 20.516C56.9702 20.516 56.8341 20.5158 56.698 20.5152C56.6345 20.5164 56.5711 20.5177 56.5057 20.519C56.1701 20.5118 56.0236 20.471 55.7717 20.247C55.5575 19.9449 55.4249 19.6141 55.2953 19.2701C55.2693 19.2033 55.2433 19.1366 55.2164 19.0678C55.1318 18.8501 55.0484 18.6319 54.9651 18.4138C54.9058 18.2607 54.8465 18.1078 54.787 17.9548C54.668 17.6482 54.5494 17.3414 54.4314 17.0344C54.2173 16.478 53.9999 15.9229 53.7823 15.3678C53.7442 15.2702 53.7061 15.1726 53.6668 15.072C53.1956 13.8659 52.7185 12.662 52.2417 11.4581C52.182 11.3071 52.1224 11.1562 52.0629 11.0051C51.9037 10.6014 51.7422 10.1988 51.5776 9.7972C51.5431 9.71217 51.5086 9.62713 51.4731 9.53952C51.4068 9.37636 51.3399 9.21346 51.2723 9.05088C50.9846 8.33855 50.9846 8.33855 51.0449 7.94204C51.2653 7.72393 51.3742 7.75743 51.6818 7.75677Z" fill="#1F9695"/>
<path d="M30.0044 7.7464C30.0765 7.74547 30.1487 7.74455 30.2231 7.74359C30.3409 7.74395 30.3409 7.74395 30.461 7.74432C30.5442 7.74362 30.6275 7.74293 30.7132 7.74222C30.9884 7.7403 31.2637 7.74022 31.5389 7.74032C31.7302 7.73974 31.9214 7.73911 32.1126 7.73844C32.5135 7.73734 32.9144 7.73721 33.3153 7.73769C33.8293 7.73817 34.3432 7.73567 34.8571 7.73236C35.252 7.73025 35.647 7.73001 36.0419 7.73031C36.2314 7.73017 36.4209 7.72938 36.6104 7.72793C36.8753 7.72612 37.1401 7.7269 37.4051 7.72835C37.4834 7.72726 37.5618 7.72618 37.6425 7.72506C38.0213 7.72985 38.1832 7.73838 38.4911 7.97473C38.6554 8.19631 38.7 8.2863 38.695 8.55579C38.6945 8.62309 38.6939 8.6904 38.6933 8.75974C38.6892 8.86354 38.6892 8.86354 38.685 8.96943C38.6843 9.07371 38.6843 9.07371 38.6836 9.18009C38.6768 9.52059 38.6681 9.77168 38.4836 10.0682C38.2378 10.1898 38.0138 10.1629 37.7395 10.1655C37.6502 10.1665 37.6502 10.1665 37.5591 10.1675C37.4297 10.169 37.3002 10.1702 37.1708 10.1713C36.9663 10.173 36.7618 10.1752 36.5573 10.1776C36.0495 10.1833 35.5417 10.1881 35.0338 10.193C34.6047 10.1972 34.1756 10.2016 33.7465 10.2066C33.5445 10.2087 33.3425 10.2104 33.1405 10.2121C33.0173 10.2135 32.8942 10.2149 32.7711 10.2163C32.6631 10.2173 32.5552 10.2183 32.4439 10.2194C32.2119 10.2046 32.2119 10.2046 32.1203 10.3135C32.113 10.5256 32.1108 10.7355 32.1122 10.9476C32.1124 11.0427 32.1124 11.0427 32.1126 11.1397C32.1131 11.343 32.1141 11.5463 32.1151 11.7496C32.1156 11.8871 32.1159 12.0246 32.1163 12.1622C32.1172 12.4999 32.1186 12.8377 32.1203 13.1755C32.2204 13.1762 32.2204 13.1762 32.3226 13.177C32.9513 13.1817 33.5799 13.1876 34.2086 13.1948C34.5318 13.1984 34.855 13.2016 35.1782 13.2038C35.4901 13.206 35.8019 13.2093 36.1138 13.2134C36.2328 13.2147 36.3519 13.2157 36.4709 13.2162C36.6375 13.217 36.8041 13.2194 36.9707 13.2219C37.0655 13.2228 37.1604 13.2237 37.2582 13.2247C37.4919 13.2573 37.4919 13.2573 37.6433 13.3668C37.8748 13.6924 37.8405 14.0569 37.8431 14.4378C37.8448 14.5003 37.8465 14.5627 37.8483 14.6271C37.8489 14.7179 37.8489 14.7179 37.8496 14.8106C37.8504 14.8655 37.8511 14.9205 37.8519 14.9771C37.8107 15.2024 37.7373 15.3017 37.5746 15.4651C37.3345 15.5075 37.3345 15.5075 37.0381 15.5097C36.9841 15.5106 36.9301 15.5114 36.8744 15.5123C36.6959 15.5147 36.5176 15.5148 36.3391 15.5149C36.2154 15.5161 36.0916 15.5175 35.9678 15.519C35.6421 15.5226 35.3165 15.5242 34.9908 15.5254C34.6585 15.527 34.3261 15.5305 33.9938 15.5337C33.3417 15.5399 32.6897 15.544 32.0377 15.5468C32.0382 15.6023 32.0388 15.6577 32.0393 15.7148C32.0448 16.2918 32.0486 16.8688 32.0513 17.4459C32.0525 17.6612 32.0542 17.8765 32.0564 18.0919C32.0594 18.4014 32.0608 18.7109 32.0619 19.0205C32.0632 19.1167 32.0644 19.213 32.0658 19.3122C32.0658 19.4022 32.0658 19.4922 32.0658 19.5849C32.0664 19.6639 32.0669 19.7429 32.0675 19.8243C32.0317 20.0882 31.9517 20.2418 31.7897 20.4531C31.5518 20.5021 31.5518 20.5021 31.2652 20.4987C31.1109 20.4979 31.1109 20.4979 30.9535 20.497C30.7922 20.4929 30.7922 20.4929 30.6276 20.4888C30.5198 20.4884 30.4119 20.4879 30.3008 20.4874C29.5002 20.4771 29.5002 20.4771 29.3105 20.2895C29.2893 20.0785 29.2893 20.0785 29.2884 19.8059C29.2877 19.7028 29.287 19.5997 29.2863 19.4935C29.2864 19.3786 29.2864 19.2638 29.2865 19.1489C29.286 19.0284 29.2855 18.908 29.2849 18.7875C29.2834 18.4597 29.283 18.132 29.2829 17.8042C29.2827 17.5309 29.2821 17.2576 29.2816 16.9843C29.2802 16.3396 29.2798 15.6949 29.2799 15.0502C29.28 14.3845 29.2783 13.7189 29.2757 13.0531C29.2735 12.4822 29.2726 11.9112 29.2727 11.3402C29.2728 10.999 29.2723 10.6577 29.2705 10.3164C29.2689 9.99554 29.2689 9.67469 29.2701 9.35379C29.2703 9.23588 29.2699 9.11797 29.2689 9.00006C29.2676 8.83938 29.2686 8.67869 29.2697 8.51801C29.2696 8.428 29.2695 8.33799 29.2694 8.24525C29.3105 8.02396 29.3105 8.02396 29.4557 7.87245C29.6578 7.7702 29.7787 7.7475 30.0044 7.7464Z" fill="#1F9695"/>
<path d="M69.4736 10.4769C69.7215 10.5587 69.7215 10.5587 69.8124 10.7356C69.8545 10.8527 69.8545 10.8527 69.8975 10.972C69.9459 11.1042 69.9459 11.1042 69.9953 11.239C70.0294 11.3349 70.0635 11.4309 70.0986 11.5297C70.1717 11.7309 70.2449 11.932 70.3181 12.1331C70.3368 12.185 70.3555 12.2368 70.3748 12.2902C70.5073 12.6572 70.6439 13.0225 70.7829 13.3871C70.8394 13.5357 70.8394 13.5357 70.897 13.6873C70.9695 13.8776 71.0422 14.0678 71.1151 14.258C71.1479 14.3448 71.1807 14.4316 71.2145 14.5211C71.2435 14.5969 71.2724 14.6728 71.3022 14.751C71.3787 14.9879 71.4214 15.219 71.457 15.4649C71.1744 15.6047 70.851 15.5583 70.5402 15.5576C70.4656 15.5576 70.391 15.5577 70.3142 15.5578C70.1563 15.5579 69.9985 15.5577 69.8407 15.5574C69.5986 15.5569 69.3564 15.5574 69.1143 15.5579C68.9612 15.5578 68.8081 15.5577 68.6549 15.5576C68.5458 15.5578 68.5458 15.5578 68.4345 15.5581C67.9224 15.5561 67.9224 15.5561 67.7382 15.4649C67.7956 14.9757 67.9641 14.5295 68.1275 14.0672C68.1579 13.9801 68.1884 13.893 68.2198 13.8033C68.2842 13.6196 68.3488 13.436 68.4136 13.2524C68.5125 12.9721 68.6106 12.6916 68.7085 12.411C68.7713 12.2322 68.8342 12.0535 68.8971 11.8747C68.9262 11.7911 68.9554 11.7076 68.9855 11.6215C69.126 11.225 69.271 10.8465 69.4736 10.4769Z" fill="#FCF8EF"/>
<path d="M45.5907 10.4769C45.8451 10.6864 45.9257 10.9088 46.0355 11.2138C46.072 11.3138 46.1084 11.4137 46.146 11.5167C46.1847 11.6249 46.2234 11.7332 46.2621 11.8415C46.3426 12.0641 46.4234 12.2866 46.5042 12.5091C46.5245 12.5651 46.5447 12.6211 46.5656 12.6788C46.6971 13.0412 46.8342 13.4011 46.9755 13.7599C47.0278 13.8932 47.0278 13.8932 47.0811 14.0293C47.1467 14.196 47.2131 14.3624 47.2803 14.5285C47.3241 14.6405 47.3241 14.6405 47.3687 14.7549C47.3945 14.8193 47.4203 14.8838 47.4469 14.9502C47.4999 15.1739 47.4684 15.3268 47.4087 15.5467C46.9543 15.5507 46.4998 15.5537 46.0454 15.5557C45.8907 15.5565 45.7361 15.5576 45.5815 15.559C45.3593 15.561 45.1372 15.562 44.915 15.5627C44.8458 15.5635 44.7766 15.5644 44.7053 15.5652C44.214 15.5653 44.214 15.5653 43.9379 15.3832C43.98 14.7885 44.1253 14.2843 44.3301 13.7254C44.3761 13.5972 44.3761 13.5972 44.423 13.4663C44.4876 13.2868 44.5526 13.1075 44.6179 12.9283C44.718 12.6535 44.8168 12.3783 44.9155 12.1031C44.9785 11.9283 45.0416 11.7536 45.1048 11.5789C45.1345 11.4966 45.1641 11.4144 45.1946 11.3296C45.2224 11.2534 45.2503 11.1772 45.279 11.0987C45.3033 11.0318 45.3277 10.9648 45.3527 10.8958C45.4254 10.7223 45.4254 10.7223 45.5907 10.4769Z" fill="#FBF8EF"/>
</svg>
