<svg width="108" height="30" viewBox="0 0 108 30" fill="none" xmlns="http://www.w3.org/2000/svg">
<path d="M90.8891 0.0919235C91.034 0.0911074 91.1789 0.0902914 91.3281 0.0894507C91.6345 0.0883576 91.9409 0.0882613 92.2473 0.0890875C92.7146 0.089688 93.1816 0.0852257 93.6489 0.0803935C93.9469 0.0799605 94.245 0.0798268 94.543 0.0800216C94.6821 0.0782678 94.8212 0.076514 94.9645 0.074707C95.8173 0.0823986 96.3787 0.150993 97.026 0.72049C97.7537 1.83494 98.1724 3.17016 98.6514 4.40411C98.7335 4.61388 98.8156 4.82365 98.9002 5.03977C99.1687 5.72623 99.4363 6.41306 99.704 7.09988C99.8913 7.57948 100.079 8.05899 100.267 8.53848C100.314 8.6587 100.361 8.77893 100.409 8.90281C100.505 9.14695 100.6 9.39109 100.696 9.63522C100.84 10.0046 100.985 10.3739 101.129 10.7433C101.973 12.8996 102.825 15.0524 103.679 17.2045C104.118 18.3128 104.556 19.4218 104.995 20.5307C105.379 21.504 105.766 22.4767 106.153 23.4489C106.375 24.0052 106.594 24.5621 106.814 25.1191C106.912 25.3687 107.011 25.618 107.111 25.8671C107.245 26.2008 107.377 26.5355 107.508 26.8704C107.581 27.0535 107.653 27.2367 107.728 27.4254C107.9 28.0199 107.948 28.4789 107.881 29.0945C107.666 29.4452 107.666 29.4452 107.309 29.6658C106.471 29.8048 105.623 29.7804 104.774 29.7848C104.541 29.7934 104.308 29.802 104.068 29.8109C102.442 29.8232 102.442 29.8232 101.786 29.4468C100.87 28.491 100.468 27.0965 100.013 25.881C99.8479 25.4489 99.682 25.017 99.5158 24.5852C99.4442 24.3952 99.3727 24.2053 99.2991 24.0095C99.1595 23.5862 99.1595 23.5862 98.9303 23.3816C98.5447 23.3637 98.1585 23.3593 97.7725 23.36C97.5247 23.36 97.2769 23.36 97.0215 23.36C96.7491 23.361 96.4766 23.362 96.2041 23.363C95.9268 23.3634 95.6496 23.3637 95.3723 23.3638C94.6413 23.3646 93.9103 23.3664 93.1793 23.3685C92.4339 23.3705 91.6885 23.3714 90.9431 23.3723C89.4795 23.3744 88.016 23.3776 86.5524 23.3816C86.4002 23.7455 86.2481 24.1094 86.0961 24.4733C86.0114 24.6759 85.9267 24.8786 85.8394 25.0874C85.6484 25.5502 85.4628 26.0137 85.2841 26.4813C85.196 26.7113 85.1079 26.9413 85.0171 27.1783C84.9284 27.4118 84.8398 27.6452 84.7485 27.8857C84.4113 28.6249 84.0614 29.2926 83.3151 29.6658C82.4949 29.7173 81.6731 29.7099 80.8514 29.7134C80.507 29.7193 80.507 29.7193 80.1555 29.7253C79.9357 29.7263 79.7159 29.7273 79.4894 29.7283C79.2874 29.7301 79.0854 29.7318 78.8772 29.7337C78.3639 29.6658 78.3639 29.6658 77.996 29.4715C77.6557 28.8407 77.8233 28.2371 77.9831 27.5711C78.1736 26.9614 78.4049 26.3725 78.6444 25.7806C78.7456 25.5242 78.7456 25.5242 78.8488 25.2627C79.0704 24.7025 79.2944 24.1432 79.5184 23.584C79.6751 23.1889 79.8315 22.7937 79.9878 22.3985C80.3075 21.5904 80.628 20.7827 80.949 19.9753C81.5525 18.4561 82.1471 16.9334 82.7403 15.4102C82.9227 14.9422 83.1056 14.4743 83.2886 14.0065C83.9228 12.3837 84.5525 10.7592 85.1761 9.13231C85.5058 8.27233 85.8365 7.41273 86.1672 6.55313C86.3275 6.13548 86.4873 5.71765 86.6465 5.29961C86.8688 4.71622 87.0928 4.13351 87.3171 3.5509C87.3826 3.3775 87.4482 3.20409 87.5157 3.02543C88.2209 1.20424 88.7696 0.0892931 90.8891 0.0919235Z" fill="#1E9695"/>
<path d="M35.8691 0.0361001C36.0089 0.0360925 36.1488 0.0360848 36.2928 0.0360769C36.5869 0.0370928 36.8809 0.0404245 37.1748 0.0459563C37.6233 0.0539431 38.0713 0.0537747 38.5199 0.0524652C38.8066 0.0544631 39.0934 0.0569268 39.3801 0.0599038C39.5133 0.0599422 39.6464 0.0599805 39.7836 0.0600201C40.6138 0.0800081 41.1519 0.195261 41.8014 0.720457C42.2633 1.36625 42.5498 2.05843 42.8414 2.79436C42.9298 3.01651 43.0183 3.23867 43.1094 3.46755C43.205 3.71029 43.3007 3.95304 43.3963 4.1958C43.4977 4.45147 43.5991 4.70711 43.7007 4.96272C43.9677 5.63582 44.2337 6.30934 44.4992 6.98302C44.6529 7.37275 44.8067 7.76241 44.9605 8.15205C45.4693 9.44067 45.9771 10.7297 46.4841 12.019C47.0482 13.4536 47.6136 14.8875 48.1798 16.3212C48.4178 16.924 48.6555 17.5269 48.893 18.1299C49.4582 19.5643 50.0257 20.9977 50.6005 22.4283C50.8689 23.0965 51.1361 23.7652 51.4032 24.434C51.5312 24.7535 51.6598 25.0729 51.789 25.392C51.9681 25.8343 52.1452 26.2775 52.3219 26.7208C52.402 26.9164 52.402 26.9164 52.4838 27.1159C52.751 27.7924 52.9643 28.3661 52.8464 29.0945C52.635 29.4336 52.635 29.4336 52.2751 29.6658C51.4005 29.8004 50.5166 29.7716 49.6329 29.7729C49.2672 29.7834 49.2672 29.7834 48.8942 29.7941C47.1297 29.8024 47.1297 29.8024 46.3606 29.2395C46.1703 28.9259 46.1703 28.9259 45.9909 28.5232C45.9115 28.347 45.8322 28.1707 45.7504 27.9891C45.486 27.3628 45.2423 26.7315 45.003 26.0952C44.8385 25.6634 44.6732 25.232 44.5069 24.8009C44.4351 24.6107 44.3634 24.4205 44.2895 24.2246C44.11 23.7397 44.11 23.7397 43.7057 23.3816C43.1739 23.3257 43.1739 23.3257 42.5437 23.3384C42.2997 23.3384 42.0558 23.3384 41.8044 23.3384C41.5371 23.3404 41.2698 23.3424 41.0025 23.3444C40.7298 23.3451 40.4571 23.3456 40.1844 23.346C39.4662 23.3475 38.7481 23.3512 38.0299 23.3554C37.2972 23.3593 36.5646 23.3611 35.8319 23.363C34.394 23.3671 32.9561 23.3736 31.5182 23.3816C31.3665 23.7112 31.2152 24.0411 31.0641 24.371C30.9798 24.5546 30.8955 24.7383 30.8087 24.9275C30.4053 25.8401 30.0715 26.7787 29.7441 27.7209C29.6913 27.8637 29.6386 28.0064 29.5842 28.1535C29.517 28.3429 29.517 28.3429 29.4484 28.5362C29.1381 29.0664 28.7969 29.3345 28.2809 29.6658C27.7069 29.7613 27.7069 29.7613 27.0766 29.7602C26.8494 29.7604 26.6222 29.7605 26.3882 29.7606C26.1526 29.7568 25.9171 29.753 25.6744 29.7491C25.3178 29.7511 25.3178 29.7511 24.954 29.7532C23.6476 29.744 23.6476 29.744 23.1393 29.6658C22.7028 29.011 22.7158 28.6922 22.8223 27.9296C23.1087 26.6875 23.6281 25.5132 24.1034 24.3337C24.2241 24.0296 24.3445 23.7254 24.4648 23.4211C24.7186 22.7795 24.9733 22.1384 25.2287 21.4975C25.7877 20.0929 26.3344 18.6835 26.8822 17.2745C28.1519 14.0116 29.4309 10.7523 30.7089 7.49261C30.7916 7.28167 30.8743 7.07073 30.9595 6.85339C31.1962 6.24942 31.4331 5.64549 31.67 5.04157C31.7397 4.86376 31.8094 4.68595 31.8812 4.50274C32.0131 4.16661 32.1459 3.83085 32.2798 3.4955C32.4093 3.16256 32.5323 2.82701 32.6492 2.48946C33.252 0.808417 33.9696 -0.00857712 35.8691 0.0361001Z" fill="#1F9695"/>
<path d="M51.648 0.0985643C51.9748 0.0978279 51.9748 0.0978279 52.3082 0.0970766C52.5368 0.0985494 52.7655 0.100022 53.0011 0.10154C53.2275 0.100067 53.454 0.0985941 53.6873 0.0970766C53.9059 0.0975675 54.1245 0.0980585 54.3497 0.0985643C54.5497 0.0989939 54.7497 0.0994235 54.9558 0.0998661C55.784 0.173203 56.2682 0.336901 56.8658 0.924674C57.3283 1.63998 57.5841 2.36046 57.8518 3.16552C57.9084 3.33038 57.965 3.49523 58.0234 3.66508C58.1446 4.01861 58.265 4.37244 58.3845 4.72653C58.7004 5.66155 59.0228 6.59435 59.344 7.52755C59.4077 7.71327 59.4714 7.89898 59.5371 8.09033C60.0584 9.60774 60.5982 11.1171 61.1538 12.6223C61.235 12.8424 61.3161 13.0624 61.3997 13.2892C61.8212 14.429 62.246 15.5677 62.6709 16.7062C62.8424 17.1661 63.0139 17.626 63.1852 18.086C63.4048 18.6751 63.6251 19.264 63.846 19.8527C63.9466 20.1222 64.0473 20.3917 64.1479 20.6613C64.1934 20.782 64.239 20.9028 64.2859 21.0272C64.5751 21.8042 64.815 22.5827 65.0338 23.3816C65.1595 23.3816 65.2852 23.3816 65.4147 23.3816C65.4385 23.2452 65.4623 23.1089 65.4868 22.9684C65.6061 22.425 65.7731 21.9411 65.9748 21.423C66.053 21.2202 66.1311 21.0175 66.2117 20.8086C66.3415 20.4739 66.3415 20.4739 66.474 20.1324C67.406 17.705 68.3089 15.2674 69.1995 12.8246C69.2641 12.648 69.3287 12.4713 69.3953 12.2893C70.1069 10.3425 70.7998 8.39203 71.4452 6.42217C71.5005 6.25493 71.5557 6.08769 71.6127 5.91538C71.8737 5.12493 72.1307 4.33366 72.3798 3.53936C73.2194 0.928256 73.2194 0.928256 74.1462 0.29978C75.0682 -0.0396702 76.0145 0.0102576 76.9833 0.0420305C77.1996 0.0423987 77.4158 0.0427669 77.6387 0.0431463C79.2027 0.0681928 79.2027 0.0681928 79.6677 0.400155C79.9846 0.862258 79.9033 1.24664 79.8123 1.78063C79.5706 2.75104 79.194 3.67139 78.8281 4.60044C78.7354 4.83977 78.6428 5.07917 78.5505 5.31864C78.3468 5.84638 78.1423 6.37379 77.9373 6.90103C77.3874 8.31807 76.8488 9.73945 76.3085 11.1602C76.1132 11.6736 75.9176 12.1869 75.7219 12.7002C74.9807 14.6444 74.2425 16.5897 73.5078 18.5364C73.1279 19.5428 72.7463 20.5485 72.3645 21.5541C72.0427 22.4026 71.7241 23.2522 71.4075 24.1027C71.202 24.6533 70.9945 25.2032 70.7864 25.7528C70.6899 26.0091 70.5944 26.2657 70.4998 26.5227C70.37 26.875 70.2367 27.226 70.1033 27.577C70.0295 27.7745 69.9557 27.9719 69.8797 28.1754C69.5422 28.8345 69.2444 29.2164 68.652 29.6657C68.0814 29.7631 67.6209 29.8041 67.0512 29.7989C66.8984 29.8003 66.7456 29.8016 66.5882 29.803C66.2662 29.8045 65.9442 29.8036 65.6222 29.8003C65.1304 29.7967 64.6396 29.8042 64.1479 29.8127C63.8342 29.8127 63.5206 29.8121 63.2069 29.8108C63.0607 29.8137 62.9145 29.8166 62.7638 29.8196C61.9904 29.8029 61.653 29.7079 61.0724 29.1861C60.5789 28.4828 60.2735 27.7124 59.9748 26.9112C59.9148 26.7557 59.8548 26.6002 59.7929 26.44C59.5978 25.9331 59.4058 25.425 59.2138 24.9169C59.0773 24.5606 58.9405 24.2043 58.8035 23.8481C58.5292 23.134 58.256 22.4195 57.9839 21.7045C57.4907 20.4087 56.9897 19.1161 56.4883 17.8234C56.4005 17.5961 56.3126 17.3688 56.2221 17.1346C55.1364 14.3257 54.037 11.5221 52.9383 8.71826C52.8007 8.36676 52.6633 8.01516 52.5262 7.66346C52.1593 6.72333 51.7871 5.78566 51.408 4.85038C51.3285 4.65235 51.249 4.45432 51.1671 4.25029C51.0144 3.87032 50.8602 3.49096 50.7043 3.11231C50.0414 1.45342 50.0414 1.45342 50.1803 0.530007C50.6883 0.0220869 50.9393 0.100091 51.648 0.0985643Z" fill="#1F9695"/>
<path d="M1.6961 0.0740584C1.86241 0.071897 2.02872 0.0697357 2.20007 0.0675089C2.4715 0.068346 2.4715 0.068346 2.74841 0.0692C2.94016 0.0675872 3.13191 0.0659743 3.32947 0.0643126C3.96375 0.0598542 4.59794 0.0596678 5.23223 0.0599017C5.67289 0.0585498 6.11354 0.0570838 6.5542 0.0555082C7.47803 0.0529461 8.40184 0.05265 9.32568 0.0537648C10.51 0.0548879 11.6941 0.0490622 12.8784 0.0413646C13.7885 0.0364439 14.6985 0.0358883 15.6087 0.0365832C16.0453 0.0362605 16.482 0.034418 16.9186 0.0310333C17.5291 0.0268217 18.1392 0.0286483 18.7497 0.0320067C18.9303 0.029481 19.1109 0.0269553 19.2969 0.024353C20.1698 0.0355201 20.5429 0.0553857 21.2523 0.605803C21.6309 1.12182 21.7336 1.3314 21.7222 1.95899C21.7209 2.11573 21.7196 2.27246 21.7182 2.43395C21.7088 2.67568 21.7088 2.67568 21.6992 2.9223C21.6975 3.16513 21.6975 3.16513 21.6958 3.41288C21.6803 4.20584 21.6603 4.7906 21.235 5.4812C20.6686 5.76442 20.1524 5.70165 19.5204 5.7077C19.3146 5.71007 19.3146 5.71007 19.1046 5.71249C18.8064 5.71581 18.5082 5.71869 18.21 5.72121C17.7387 5.7252 17.2675 5.73035 16.7963 5.73581C15.6261 5.74912 14.4559 5.76043 13.2857 5.7718C12.2969 5.78149 11.3081 5.79192 10.3193 5.80338C9.85376 5.80846 9.38823 5.81241 8.92268 5.81633C8.63896 5.81949 8.35524 5.8227 8.07152 5.82598C7.82275 5.82836 7.57398 5.83075 7.31768 5.83321C6.78307 5.79885 6.78307 5.79885 6.57193 6.05249C6.55508 6.54638 6.54998 7.03518 6.55333 7.52906C6.55374 7.75056 6.55374 7.75056 6.55415 7.97654C6.55522 8.45 6.55761 8.92345 6.56003 9.39691C6.56098 9.71714 6.56185 10.0374 6.56263 10.3576C6.56474 11.1443 6.56803 11.9309 6.57193 12.7175C6.80264 12.7192 6.80264 12.7192 7.038 12.7209C8.4867 12.7319 9.93533 12.7457 11.384 12.7624C12.1288 12.7709 12.8735 12.7784 13.6183 12.7835C14.337 12.7884 15.0556 12.7961 15.7742 12.8057C16.0485 12.8089 16.3228 12.8111 16.5971 12.8123C16.981 12.8141 17.3649 12.8198 17.7488 12.8256C17.9674 12.8277 18.186 12.8298 18.4112 12.832C18.9499 12.908 18.9499 12.908 19.2987 13.163C19.8321 13.9213 19.7532 14.7702 19.7592 15.6573C19.7631 15.8027 19.767 15.9482 19.7711 16.098C19.7726 16.3096 19.7726 16.3096 19.7741 16.5254C19.7758 16.6534 19.7776 16.7814 19.7795 16.9133C19.6844 17.4378 19.5153 17.669 19.1403 18.0496C18.5872 18.1484 18.5872 18.1484 17.9042 18.1535C17.7797 18.1555 17.6552 18.1574 17.5269 18.1595C17.1157 18.1651 16.7047 18.1654 16.2935 18.1656C16.0083 18.1685 15.723 18.1716 15.4378 18.1751C14.6874 18.1835 13.937 18.1873 13.1866 18.1901C12.4207 18.1939 11.6548 18.2019 10.889 18.2095C9.38648 18.2238 7.88403 18.2334 6.3815 18.24C6.38277 18.3691 6.38404 18.4982 6.38535 18.6312C6.39799 19.975 6.4066 21.3187 6.41288 22.6625C6.41576 23.164 6.41965 23.6655 6.4246 24.167C6.43153 24.8878 6.43477 25.6086 6.43729 26.3295C6.44024 26.5537 6.44319 26.7779 6.44623 27.0089C6.44627 27.2185 6.44631 27.4281 6.44636 27.6441C6.44763 27.828 6.44889 28.012 6.4502 28.2015C6.36777 28.816 6.18352 29.1737 5.81021 29.6658C5.26194 29.7799 5.26194 29.7799 4.60143 29.7721C4.24592 29.7701 4.24592 29.7701 3.88323 29.768C3.51152 29.7587 3.51152 29.7587 3.1323 29.7491C2.88375 29.748 2.63521 29.7469 2.37913 29.7457C0.534237 29.7218 0.534237 29.7218 0.0973223 29.2849C0.0483307 28.7935 0.0483307 28.7935 0.0463966 28.1585C0.0447722 27.9185 0.0431479 27.6784 0.0414743 27.4311C0.0416074 27.1636 0.0417832 26.8961 0.0419973 26.6286C0.0408582 26.3481 0.0395624 26.0675 0.0381211 25.787C0.0347496 25.0237 0.0338635 24.2604 0.0336208 23.4971C0.0332597 22.8606 0.0318592 22.2241 0.0305084 21.5875C0.0274047 20.0862 0.0264775 18.5849 0.026748 17.0835C0.0269769 15.5332 0.0229569 13.9829 0.0169434 12.4326C0.0119688 11.1029 0.0099199 9.77321 0.0101636 8.4435C0.0102609 7.64872 0.00916656 6.854 0.0051447 6.05924C0.00146637 5.31193 0.00142123 4.56471 0.00419888 3.8174C0.00459831 3.54281 0.00369073 3.2682 0.00139558 2.99362C-0.00153003 2.61942 0.000674621 2.2452 0.00315936 1.87101C0.00295188 1.66139 0.0027444 1.45176 0.00253063 1.23579C0.0973223 0.720455 0.0973223 0.720455 0.431751 0.367595C0.897567 0.129471 1.17619 0.0766201 1.6961 0.0740584Z" fill="#1F9695"/>
<path d="M92.6461 6.43335C93.2174 6.62378 93.2174 6.62378 93.4269 7.03579C93.5239 7.30831 93.5239 7.30831 93.6228 7.58634C93.7344 7.8941 93.7344 7.8941 93.8483 8.20807C93.9268 8.4315 94.0054 8.65493 94.0863 8.88513C94.2548 9.35356 94.4234 9.82194 94.5921 10.2903C94.6352 10.411 94.6783 10.5318 94.7228 10.6562C95.0282 11.5108 95.3428 12.3616 95.6633 13.2107C95.7934 13.5567 95.7934 13.5567 95.9262 13.9097C96.0931 14.3529 96.2607 14.796 96.4288 15.2388C96.5043 15.441 96.5799 15.6431 96.6578 15.8514C96.7245 16.0281 96.7911 16.2048 96.8598 16.3869C97.0362 16.9387 97.1346 17.4767 97.2165 18.0496C96.5654 18.3751 95.8202 18.2669 95.1039 18.2653C94.932 18.2655 94.7602 18.2656 94.5831 18.2658C94.2194 18.266 93.8557 18.2656 93.492 18.2648C92.9341 18.2638 92.3762 18.2648 91.8182 18.266C91.4654 18.2659 91.1125 18.2657 90.7597 18.2653C90.5083 18.2659 90.5083 18.2659 90.2518 18.2664C89.0718 18.2619 89.0718 18.2619 88.6471 18.0496C88.7795 16.9102 89.1679 15.871 89.5442 14.7944C89.6145 14.5916 89.6847 14.3888 89.757 14.1799C89.9055 13.7521 90.0544 13.3244 90.2037 12.8969C90.4315 12.2442 90.6574 11.5909 90.8832 10.9375C91.0279 10.5211 91.1727 10.1048 91.3176 9.68851C91.3849 9.49388 91.4521 9.29926 91.5214 9.09874C91.8451 8.17539 92.1793 7.2939 92.6461 6.43335Z" fill="#FCF8EF"/>
<path d="M37.612 6.43335C38.1983 6.92122 38.3839 7.43915 38.637 8.14945C38.721 8.38217 38.805 8.6149 38.8916 8.85468C38.9809 9.10681 39.0701 9.35897 39.1592 9.61115C39.3446 10.1296 39.5309 10.6477 39.7171 11.1658C39.7638 11.2962 39.8105 11.4266 39.8585 11.561C40.1617 12.405 40.4775 13.2431 40.8032 14.0788C40.9235 14.3893 40.9235 14.3893 41.0463 14.7061C41.1975 15.0944 41.3505 15.4819 41.5055 15.8687C41.6063 16.1297 41.6063 16.1297 41.7092 16.3959C41.7686 16.5461 41.8281 16.6962 41.8894 16.8509C42.0115 17.3717 41.9389 17.728 41.8014 18.24C40.7542 18.2494 39.707 18.2563 38.6598 18.2609C38.3034 18.2628 37.9471 18.2654 37.5908 18.2687C37.0789 18.2733 36.567 18.2755 36.0551 18.2772C35.8956 18.2791 35.7361 18.2811 35.5717 18.2831C34.4397 18.2834 34.4397 18.2834 33.8034 17.8591C33.9004 16.4742 34.2353 15.2999 34.7072 13.9985C34.8132 13.6998 34.8132 13.6998 34.9214 13.3951C35.0702 12.9771 35.2198 12.5594 35.3704 12.1421C35.601 11.5022 35.8288 10.8614 36.0562 10.2204C36.2014 9.81342 36.3469 9.40652 36.4925 8.99969C36.5607 8.80807 36.6289 8.61646 36.6993 8.41904C36.7634 8.24161 36.8276 8.06418 36.8937 7.88138C36.9498 7.72543 37.0059 7.56949 37.0637 7.40882C37.2311 7.00464 37.2311 7.00464 37.612 6.43335Z" fill="#FBF8EF"/>
</svg>
