<svg width="18" height="18" viewBox="0 0 18 18" fill="none" xmlns="http://www.w3.org/2000/svg">
<path d="M15.033 9.56287C15.064 12.2868 17.968 13.1933 18 13.2049C17.9754 13.2687 17.5361 14.4967 16.4703 15.7649C15.5489 16.8614 14.5925 17.9539 13.0862 17.9768C11.6061 17.9988 11.1301 17.2619 9.43771 17.2619C7.74586 17.2619 7.2172 17.9539 5.81592 17.9988C4.3618 18.0437 3.25448 16.8129 2.32545 15.7206C0.427193 13.4858 -1.02355 9.40567 0.924356 6.6515C1.89199 5.28376 3.62157 4.41777 5.49866 4.39546C6.92645 4.37329 8.27416 5.17756 9.14696 5.17756C10.0192 5.17756 11.657 4.21029 13.3787 4.35228C14.0996 4.37676 16.1227 4.58931 17.4219 6.13787C17.3174 6.19076 15.0079 7.28553 15.033 9.56287ZM12.2513 2.87399C13.0232 2.11319 13.5428 1.05377 13.4011 0C12.2883 0.0363668 10.9427 0.603747 10.1447 1.36426C9.42935 2.03755 8.803 3.11552 8.97186 4.14842C10.2123 4.22666 11.4792 3.63523 12.2513 2.87399Z" fill="black"/>
</svg>
