<svg width="20" height="17" viewBox="0 0 20 17" fill="none" xmlns="http://www.w3.org/2000/svg">
<path d="M11.2951 16.7162L19.2049 9.18087L11.7108 1.23207C11.6437 1.13886 11.5573 1.06115 11.4576 1.00421C11.3578 0.947274 11.247 0.912433 11.1326 0.902046C11.0182 0.89166 10.903 0.905971 10.7946 0.944011C10.6862 0.982051 10.5873 1.04293 10.5045 1.12253C10.4217 1.20213 10.357 1.29859 10.3147 1.40538C10.2724 1.51217 10.2536 1.6268 10.2594 1.74151C10.2653 1.85621 10.2958 1.96832 10.3487 2.07023C10.4017 2.17214 10.4759 2.26149 10.5664 2.33221L16.1729 8.29745L0.841083 7.88587C0.628525 7.88016 0.422405 7.95913 0.268068 8.10539C0.113731 8.25166 0.0238204 8.45325 0.0181143 8.66581C0.0124082 8.87836 0.0913743 9.08449 0.237642 9.23882C0.383909 9.39316 0.585495 9.48307 0.798053 9.48878L16.1299 9.90036L10.2114 15.5562C10.0575 15.7031 9.96828 15.9051 9.96332 16.1178C9.95836 16.3305 10.0381 16.5365 10.185 16.6904C10.3319 16.8443 10.5339 16.9335 10.7466 16.9385C10.9593 16.9434 11.1653 16.8637 11.3192 16.7168L11.2951 16.7162Z" fill="#FFF9F0"/>
</svg>
