<svg width="29" height="27" viewBox="0 0 29 27" fill="none" xmlns="http://www.w3.org/2000/svg">
<ellipse cx="14.5" cy="13.5" rx="14.5" ry="13.5" fill="#C3DAFF"/>
<path d="M14.6045 8.44737C14.6045 8.36362 14.5667 8.28329 14.4993 8.22407C14.432 8.16485 14.3406 8.13158 14.2454 8.13158C14.1502 8.13158 14.0588 8.16485 13.9915 8.22407C13.9241 8.28329 13.8863 8.36362 13.8863 8.44737V9.41368C12.2702 9.57158 11.0132 10.7716 11.0132 12.2368V15.9695L9.87116 16.9737H18.6196L17.4776 15.9695V12.2368C17.4776 10.7716 16.2206 9.57158 14.6045 9.41368V8.44737ZM14.2454 7.5C14.5311 7.5 14.8052 7.59981 15.0072 7.77748C15.2093 7.95514 15.3228 8.19611 15.3228 8.44737V8.89579C16.982 9.30632 18.1959 10.6579 18.1959 12.2368V15.7105L20.3507 17.6053H8.14014L10.2949 15.7105V12.2368C10.2949 10.6579 11.5088 9.30632 13.168 8.89579V8.44737C13.168 8.19611 13.2815 7.95514 13.4836 7.77748C13.6856 7.59981 13.9597 7.5 14.2454 7.5ZM14.2454 19.5C13.8314 19.5001 13.4302 19.3744 13.1095 19.1442C12.7888 18.914 12.5684 18.5935 12.4856 18.2368H13.2326C13.3065 18.4212 13.4436 18.5808 13.625 18.6937C13.8064 18.8066 14.0232 18.8672 14.2454 18.8672C14.4676 18.8672 14.6844 18.8066 14.8658 18.6937C15.0472 18.5808 15.1843 18.4212 15.2582 18.2368H16.0052C15.9224 18.5935 15.702 18.914 15.3813 19.1442C15.0606 19.3744 14.6594 19.5001 14.2454 19.5Z" fill="#2662A3"/>
</svg>
