<svg width="17" height="17" viewBox="0 0 17 17" fill="none" xmlns="http://www.w3.org/2000/svg">
<path d="M14.875 1.7H12.325V0.425C12.325 0.312283 12.2802 0.204183 12.2005 0.12448C12.1208 0.0447767 12.0127 0 11.9 0C11.7873 0 11.6792 0.0447767 11.5995 0.12448C11.5198 0.204183 11.475 0.312283 11.475 0.425V1.7H5.525V0.425C5.525 0.312283 5.48022 0.204183 5.40052 0.12448C5.32082 0.0447767 5.21272 0 5.1 0C4.98728 0 4.87918 0.0447767 4.79948 0.12448C4.71978 0.204183 4.675 0.312283 4.675 0.425V1.7H2.125C1.56162 1.70067 1.02151 1.92477 0.623143 2.32314C0.224775 2.72151 0.000674839 3.26162 0 3.825V14.875C0.000674839 15.4384 0.224775 15.9785 0.623143 16.3769C1.02151 16.7752 1.56162 16.9993 2.125 17H14.875C15.4386 17 15.9791 16.7761 16.3776 16.3776C16.7761 15.9791 17 15.4386 17 14.875V3.825C17 3.26142 16.7761 2.72091 16.3776 2.3224C15.9791 1.92388 15.4386 1.7 14.875 1.7ZM16.15 14.875C16.15 15.2132 16.0157 15.5375 15.7766 15.7766C15.5375 16.0157 15.2132 16.15 14.875 16.15H2.125C1.78685 16.15 1.46255 16.0157 1.22344 15.7766C0.98433 15.5375 0.85 15.2132 0.85 14.875V7.65H16.15V14.875ZM16.15 6.8H0.85V3.825C0.85 3.1212 1.4195 2.55 2.125 2.55H4.675V3.825C4.675 3.93772 4.71978 4.04582 4.79948 4.12552C4.87918 4.20522 4.98728 4.25 5.1 4.25C5.21272 4.25 5.32082 4.20522 5.40052 4.12552C5.48022 4.04582 5.525 3.93772 5.525 3.825V2.55H11.475V3.825C11.475 3.93772 11.5198 4.04582 11.5995 4.12552C11.6792 4.20522 11.7873 4.25 11.9 4.25C12.0127 4.25 12.1208 4.20522 12.2005 4.12552C12.2802 4.04582 12.325 3.93772 12.325 3.825V2.55H14.875C15.2132 2.55 15.5375 2.68433 15.7766 2.92344C16.0157 3.16255 16.15 3.48685 16.15 3.825V6.8Z" fill="#D4D0D0"/>
</svg>
