<svg width="20" height="18" viewBox="0 0 20 18" fill="none" xmlns="http://www.w3.org/2000/svg">
<path d="M17.0925 3.375H14.4088L14.0963 2.4375C13.9456 1.98229 13.6552 1.58621 13.2664 1.30566C12.8775 1.02512 12.4101 0.874409 11.9306 0.875002H8.06938C7.59002 0.874635 7.12276 1.02544 6.73407 1.30597C6.34538 1.58649 6.05504 1.98245 5.90437 2.4375L5.59125 3.375H2.9075C2.30235 3.37566 1.72217 3.61635 1.29426 4.04426C0.866351 4.47217 0.625662 5.05235 0.625 5.6575V14.845C0.626323 15.4497 0.867304 16.0293 1.29514 16.4566C1.72298 16.884 2.30278 17.1243 2.9075 17.125H17.095C17.6997 17.1237 18.2793 16.8827 18.7066 16.4549C19.134 16.027 19.3743 15.4472 19.375 14.8425V5.655C19.3737 5.05028 19.1327 4.47074 18.7049 4.04338C18.277 3.61601 17.6972 3.37566 17.0925 3.375ZM18.125 14.8425C18.1247 15.1162 18.0158 15.3787 17.8222 15.5722C17.6287 15.7658 17.3662 15.8747 17.0925 15.875H2.9075C2.63377 15.8747 2.37134 15.7658 2.17778 15.5722C1.98422 15.3787 1.87533 15.1162 1.875 14.8425V5.655C1.87599 5.3817 1.98517 5.11991 2.17866 4.92689C2.37215 4.73387 2.6342 4.62533 2.9075 4.625H6.04187C6.173 4.6249 6.30077 4.58357 6.4071 4.50685C6.51343 4.43012 6.59294 4.3219 6.63437 4.1975L7.09 2.83063C7.15842 2.62503 7.28986 2.44621 7.46566 2.31955C7.64146 2.19289 7.8527 2.12482 8.06938 2.125H11.9306C12.1474 2.12476 12.3587 2.19289 12.5346 2.31968C12.7104 2.44648 12.8418 2.62549 12.91 2.83125L13.3656 4.1975C13.4071 4.3219 13.4866 4.43012 13.5929 4.50685C13.6992 4.58357 13.827 4.6249 13.9581 4.625H17.0925C17.3662 4.62533 17.6287 4.73422 17.8222 4.92778C18.0158 5.12134 18.1247 5.38377 18.125 5.6575V14.8425Z" fill="black"/>
<path d="M10 5.25C9.0729 5.25 8.16662 5.52492 7.39577 6.03999C6.62491 6.55506 6.0241 7.28714 5.66932 8.14367C5.31453 9.0002 5.2217 9.9427 5.40257 10.852C5.58344 11.7613 6.02988 12.5965 6.68544 13.2521C7.341 13.9076 8.17623 14.3541 9.08552 14.5349C9.9948 14.7158 10.9373 14.623 11.7938 14.2682C12.6504 13.9134 13.3824 13.3126 13.8975 12.5417C14.4126 11.7709 14.6875 10.8646 14.6875 9.9375C14.6862 8.6947 14.1919 7.50319 13.3131 6.6244C12.4343 5.74561 11.2428 5.25132 10 5.25ZM10 13.375C9.32013 13.375 8.65552 13.1734 8.09023 12.7957C7.52494 12.418 7.08434 11.8811 6.82417 11.253C6.56399 10.6249 6.49592 9.93369 6.62855 9.26688C6.76119 8.60007 7.08858 7.98756 7.56932 7.50682C8.05007 7.02608 8.66257 6.69869 9.32938 6.56605C9.99619 6.43341 10.6874 6.50149 11.3155 6.76166C11.9436 7.02184 12.4805 7.46243 12.8582 8.02773C13.2359 8.59302 13.4375 9.25763 13.4375 9.9375C13.4365 10.8489 13.074 11.7226 12.4296 12.3671C11.7851 13.0115 10.9114 13.374 10 13.375Z" fill="black"/>
<path d="M16.25 7.125C16.5952 7.125 16.875 6.84518 16.875 6.5C16.875 6.15482 16.5952 5.875 16.25 5.875C15.9048 5.875 15.625 6.15482 15.625 6.5C15.625 6.84518 15.9048 7.125 16.25 7.125Z" fill="black"/>
</svg>
