<svg width="11" height="11" viewBox="0 0 11 11" fill="none" xmlns="http://www.w3.org/2000/svg">
<g clip-path="url(#clip0_559_119)">
<path d="M4.58331 5.19434H5.49998V5.80545H4.58331V5.19434Z" fill="#43B1E8"/>
<path d="M8.08192 4.32983C7.54 3.44305 6.80072 2.69331 5.92164 2.139C5.51553 1.88161 5.05258 1.72755 4.57322 1.69027C4.09386 1.65298 3.61267 1.73361 3.17164 1.92511C2.78588 2.10707 2.4502 2.38019 2.19361 2.7209C1.93702 3.06161 1.76721 3.45965 1.69886 3.88066C1.67442 4.02428 1.65608 4.16178 1.63775 4.29622C1.35167 4.34259 1.09138 4.48911 0.903327 4.70962C0.715274 4.93014 0.611698 5.2103 0.611084 5.50011V7.37316C0.611084 7.53524 0.675469 7.69068 0.790074 7.80529C0.90468 7.91989 1.06012 7.98428 1.2222 7.98428V5.50011C1.2222 5.33803 1.28658 5.18259 1.40119 5.06799C1.51579 4.95338 1.67123 4.889 1.83331 4.889H7.55636C8.14526 4.88981 8.70981 5.1241 9.12623 5.54052C9.54264 5.95694 9.77694 6.52149 9.77775 7.11039V7.33344H9.16664C9.03759 7.01875 8.7972 6.7626 8.49133 6.61385C8.18546 6.4651 7.83553 6.43418 7.50831 6.52698C7.1811 6.61978 6.8995 6.82981 6.71727 7.11698C6.53503 7.40416 6.4649 7.74838 6.52028 8.08397C6.57565 8.41955 6.75264 8.723 7.01747 8.93641C7.28231 9.14982 7.61645 9.25825 7.95613 9.24101C8.29581 9.22378 8.61726 9.08207 8.85913 8.84295C9.101 8.60383 9.24636 8.28402 9.26747 7.94455H9.77775C9.93983 7.94455 10.0953 7.88017 10.2099 7.76556C10.3245 7.65096 10.3889 7.49552 10.3889 7.33344V7.11039C10.3876 6.45098 10.1566 5.81261 9.73557 5.30512C9.31452 4.79764 8.72977 4.45276 8.08192 4.32983ZM3.36108 4.27789H2.11747C2.11747 4.18316 2.14497 4.08539 2.16331 3.97233C2.2161 3.63667 2.35387 3.32008 2.56351 3.05267C2.77316 2.78527 3.04772 2.57593 3.36108 2.44455V4.27789ZM3.9722 4.27789V2.31622C4.54265 2.24214 5.12119 2.36735 5.60997 2.67066C6.27723 3.08627 6.85312 3.63307 7.30275 4.27789H3.9722ZM7.88331 8.67178C7.73222 8.67178 7.58453 8.62697 7.45891 8.54304C7.33329 8.4591 7.23538 8.3398 7.17756 8.20021C7.11975 8.06063 7.10462 7.90704 7.1341 7.75886C7.16357 7.61068 7.23632 7.47457 7.34315 7.36774C7.44999 7.2609 7.5861 7.18815 7.73428 7.15868C7.88246 7.1292 8.03605 7.14433 8.17563 7.20215C8.31522 7.25996 8.43452 7.35787 8.51846 7.48349C8.60239 7.60911 8.64719 7.7568 8.64719 7.90789C8.64719 8.11048 8.56671 8.30478 8.42346 8.44804C8.2802 8.59129 8.0859 8.67178 7.88331 8.67178Z" fill="#43B1E8"/>
<path d="M4.32975 7.33335C4.2007 7.01866 3.96031 6.7625 3.65444 6.61376C3.34857 6.46501 2.99864 6.43408 2.67142 6.52688C2.34421 6.61968 2.06262 6.82971 1.88038 7.11689C1.69814 7.40407 1.62802 7.74829 1.68339 8.08387C1.73876 8.41946 1.91575 8.72291 2.18058 8.93632C2.44542 9.14973 2.77956 9.25816 3.11924 9.24092C3.45892 9.22368 3.78037 9.08198 4.02224 8.84286C4.26411 8.60373 4.40947 8.28393 4.43058 7.94446H6.05003V7.86807C6.04398 7.6878 6.06458 7.50761 6.11114 7.33335H4.32975ZM3.05558 8.67168C2.9045 8.67168 2.75681 8.62688 2.63119 8.54294C2.50557 8.45901 2.40766 8.3397 2.34984 8.20012C2.29203 8.06054 2.2769 7.90695 2.30637 7.75877C2.33585 7.61059 2.4086 7.47447 2.51543 7.36764C2.62227 7.26081 2.75838 7.18806 2.90656 7.15858C3.05474 7.12911 3.20833 7.14424 3.34791 7.20205C3.48749 7.25987 3.6068 7.35778 3.69074 7.4834C3.77467 7.60902 3.81947 7.75671 3.81947 7.90779C3.81947 8.11039 3.73899 8.30469 3.59574 8.44794C3.45248 8.5912 3.25818 8.67168 3.05558 8.67168Z" fill="#43B1E8"/>
</g>
<defs>
<clipPath id="clip0_559_119">
<rect width="11" height="11" fill="white"/>
</clipPath>
</defs>
</svg>
