<svg width="29" height="27" viewBox="0 0 29 27" fill="none" xmlns="http://www.w3.org/2000/svg">
<ellipse cx="14.5" cy="13.5" rx="14.5" ry="13.5" fill="#FFE6E6"/>
<path d="M11.8686 19C11.5486 19 11.2762 18.8903 11.0514 18.6708C10.8267 18.4513 10.7143 18.1855 10.7143 17.8735V9.23462H10V8.5371H12.8571V8H17.1429V8.5371H20V9.23462H19.2857V17.8735C19.2857 18.1944 19.1757 18.4624 18.9557 18.6777C18.7357 18.893 18.461 19.0005 18.1314 19H11.8686ZM18.5714 9.23462H11.4286V17.8735C11.4286 17.9986 11.4698 18.1014 11.5521 18.1818C11.6345 18.2622 11.74 18.3025 11.8686 18.3025H18.1321C18.2417 18.3025 18.3424 18.2578 18.4343 18.1685C18.5262 18.0793 18.5719 17.9807 18.5714 17.8728V9.23462ZM13.4343 16.9074H14.1486V10.6297H13.4343V16.9074ZM15.8514 16.9074H16.5657V10.6297H15.8514V16.9074Z" fill="#F48686"/>
</svg>
