<svg width="11" height="11" viewBox="0 0 11 11" fill="none" xmlns="http://www.w3.org/2000/svg">
<path d="M3.18799 11C2.93453 11 2.72092 10.9145 2.54715 10.7436C2.37337 10.5726 2.28669 10.3626 2.28709 10.1137C2.28749 9.8647 2.37417 9.65454 2.54715 9.48319C2.72092 9.31262 2.93453 9.22733 3.18799 9.22733C3.44144 9.22733 3.65485 9.31262 3.82823 9.48319C4.0016 9.65376 4.08849 9.86392 4.08889 10.1137C4.08929 10.3634 4.0024 10.5734 3.82823 10.7436C3.65405 10.9137 3.44064 10.9992 3.18799 11ZM8.82402 11C8.57097 11 8.35756 10.9145 8.18378 10.7436C8.01001 10.5726 7.92312 10.3626 7.92312 10.1137C7.92312 9.8647 8.01001 9.65454 8.18378 9.48319C8.35756 9.31262 8.57097 9.22733 8.82402 9.22733C9.07708 9.22733 9.29069 9.31262 9.46487 9.48319C9.63824 9.65415 9.72493 9.86431 9.72493 10.1137C9.72493 10.3626 9.63824 10.5726 9.46487 10.7436C9.29109 10.9145 9.07748 11 8.82402 11ZM2.33093 1.77267L3.93393 5.0911H8.13814L9.98619 1.77267H2.33093ZM2.03724 1.18178H11L8.4973 5.68199H3.66366L2.67928 7.45466H9.72493V8.04555H1.64625L3.29429 5.15019L1.08589 0.59089H0V0H1.46667L2.03724 1.18178Z" fill="#E47760"/>
</svg>
