<svg width="11" height="11" viewBox="0 0 11 11" fill="none" xmlns="http://www.w3.org/2000/svg">
<path d="M1.29684 5.36348C1.06793 5.10813 0.886565 4.80418 0.763313 4.46934C0.640062 4.13449 0.577389 3.77545 0.578947 3.41313C0.578947 2.68034 0.838181 1.97756 1.29962 1.45939C1.76106 0.94123 2.3869 0.650129 3.03947 0.650129C3.95421 0.650129 4.75316 1.20923 5.17579 2.04138H5.82421C6.03907 1.61819 6.34996 1.2665 6.72522 1.02211C7.10048 0.777724 7.52672 0.649374 7.96053 0.650129C8.6131 0.650129 9.23894 0.94123 9.70038 1.45939C10.1618 1.97756 10.4211 2.68034 10.4211 3.41313C10.4211 4.17377 10.1316 4.87589 9.70316 5.36348L5.5 10.0768L1.29684 5.36348ZM10.1084 5.82506C10.6584 5.20095 11 4.3558 11 3.41313C11 2.50791 10.6798 1.63977 10.1098 0.99969C9.53975 0.359607 8.76664 1.17359e-05 7.96053 1.17359e-05C6.94737 1.17359e-05 6.05 0.552612 5.5 1.41077C5.21927 0.972912 4.84961 0.61653 4.4217 0.371182C3.99378 0.125834 3.51994 -0.00140705 3.03947 1.17359e-05C2.23336 1.17359e-05 1.46025 0.359607 0.890241 0.99969C0.320229 1.63977 0 2.50791 0 3.41313C0 4.3558 0.341579 5.20095 0.891579 5.82506L5.5 11L10.1084 5.82506Z" fill="#CDDA41"/>
</svg>
