<svg width="29" height="27" viewBox="0 0 29 27" fill="none" xmlns="http://www.w3.org/2000/svg">
<ellipse cx="14.5" cy="13.5" rx="14.5" ry="13.5" fill="#FFC18E"/>
<path d="M15 16.1618C15.1204 16.1618 15.2189 16.1258 15.2953 16.0539C15.3722 15.982 15.4107 15.8895 15.4107 15.7762C15.4107 15.6625 15.3722 15.5697 15.2953 15.4978C15.2189 15.4259 15.1204 15.39 15 15.39C14.8796 15.39 14.7811 15.4259 14.7047 15.4978C14.6282 15.5697 14.5898 15.6625 14.5893 15.7762C14.5889 15.8899 14.6273 15.9825 14.7047 16.0539C14.782 16.1254 14.8804 16.1614 15 16.1618ZM15 14.3053C15.0951 14.3053 15.1744 14.2752 15.238 14.2151C15.3016 14.1549 15.3333 14.0805 15.3333 13.9919V10.8088C15.3333 10.7193 15.3016 10.6447 15.238 10.585C15.1744 10.5252 15.0951 10.4953 15 10.4953C14.9049 10.4953 14.8256 10.5252 14.762 10.585C14.6984 10.6447 14.6667 10.7193 14.6667 10.8088V13.9919C14.6667 14.0809 14.6984 14.1553 14.762 14.2151C14.8256 14.2748 14.9049 14.3049 15 14.3053ZM11.0513 17.7775L9.91533 18.8458C9.74689 19.0042 9.55222 19.0406 9.33133 18.9549C9.11044 18.8692 9 18.7135 9 18.4878V10.0132C9 9.72435 9.10289 9.48339 9.30867 9.29028C9.51444 9.09718 9.77067 9.00042 10.0773 9H19.9233C20.23 9 20.4862 9.09676 20.692 9.29028C20.8978 9.4838 21.0004 9.72477 21 10.0132V16.7649C21 17.0533 20.8973 17.2943 20.692 17.4878C20.4867 17.6813 20.2304 17.7779 19.9233 17.7775H11.0513ZM10.7667 17.1505H19.9233C20.0256 17.1505 20.1196 17.1104 20.2053 17.0301C20.2911 16.9499 20.3338 16.8615 20.3333 16.7649V10.0125C20.3333 9.91641 20.2907 9.82801 20.2053 9.74734C20.12 9.66667 20.026 9.62654 19.9233 9.62696H10.0767C9.97444 9.62696 9.88044 9.66709 9.79467 9.74734C9.70889 9.82759 9.66622 9.91599 9.66667 10.0125V18.1818L10.7667 17.1505Z" fill="#D1772D"/>
</svg>
