<svg width="19" height="17" viewBox="0 0 19 17" fill="none" xmlns="http://www.w3.org/2000/svg">
<path d="M2.24 8.24999C1.84461 7.85722 1.53134 7.38968 1.31845 6.87463C1.10556 6.35957 0.997308 5.8073 1 5.24999C1 4.12282 1.44777 3.04181 2.2448 2.24478C3.04183 1.44775 4.12283 0.999987 5.25 0.999987C6.83 0.999987 8.21 1.85999 8.94 3.13999H10.06C10.4311 2.48905 10.9681 1.94808 11.6163 1.57216C12.2645 1.19625 13.0007 0.998826 13.75 0.999987C14.8772 0.999987 15.9582 1.44775 16.7552 2.24478C17.5522 3.04181 18 4.12282 18 5.24999C18 6.41999 17.5 7.49999 16.76 8.24999L9.5 15.5L2.24 8.24999ZM17.46 8.95999C18.41 7.99999 19 6.69999 19 5.24999C19 3.8576 18.4469 2.52224 17.4623 1.53768C16.4777 0.553111 15.1424 -1.24656e-05 13.75 -1.24656e-05C12 -1.24656e-05 10.45 0.849988 9.5 2.16999C9.0151 1.49649 8.37661 0.948305 7.63748 0.570916C6.89835 0.193526 6.0799 -0.00219482 5.25 -1.24656e-05C3.85761 -1.24656e-05 2.52226 0.553111 1.53769 1.53768C0.553123 2.52224 0 3.8576 0 5.24999C0 6.69999 0.59 7.99999 1.54 8.95999L9.5 16.92L17.46 8.95999Z" fill="#F48686"/>
</svg>
