<svg width="22" height="26" viewBox="0 0 22 26" fill="none" xmlns="http://www.w3.org/2000/svg">
<path d="M11.7466 24.76C11.529 24.9163 11.2679 25.0003 11 25.0003C10.732 25.0003 10.4709 24.9163 10.2533 24.76C3.81462 20.1707 -3.01872 10.7307 3.88928 3.90933C5.78574 2.0438 8.33973 0.998832 11 1C13.6666 1 16.2253 2.04667 18.1106 3.908C25.0186 10.7293 18.1853 20.168 11.7466 24.76Z" stroke="#1E9695" stroke-width="2" stroke-linecap="round" stroke-linejoin="round"/>
<path d="M10.9999 13C11.7072 13 12.3854 12.719 12.8855 12.2189C13.3856 11.7188 13.6666 11.0406 13.6666 10.3333C13.6666 9.62608 13.3856 8.9478 12.8855 8.44771C12.3854 7.94761 11.7072 7.66666 10.9999 7.66666C10.2927 7.66666 9.6144 7.94761 9.1143 8.44771C8.6142 8.9478 8.33325 9.62608 8.33325 10.3333C8.33325 11.0406 8.6142 11.7188 9.1143 12.2189C9.6144 12.719 10.2927 13 10.9999 13Z" stroke="#1E9695" stroke-width="2" stroke-linecap="round" stroke-linejoin="round"/>
</svg>
