<svg width="15" height="17" viewBox="0 0 15 17" fill="none" xmlns="http://www.w3.org/2000/svg">
<path d="M7.9434 15.4825C7.8142 15.5753 7.65914 15.6252 7.50007 15.6252C7.341 15.6252 7.18594 15.5753 7.05674 15.4825C3.23378 12.7576 -0.823513 7.15258 3.27811 3.10242C4.40413 1.99476 5.92057 1.37431 7.50007 1.375C9.0834 1.375 10.6026 1.99646 11.722 3.10163C15.8237 7.15179 11.7664 12.756 7.9434 15.4825Z" stroke="#E47760" stroke-width="2" stroke-linecap="round" stroke-linejoin="round"/>
<path d="M7.50008 8.50001C7.92001 8.50001 8.32273 8.3332 8.61967 8.03626C8.9166 7.73933 9.08341 7.3366 9.08341 6.91668C9.08341 6.49675 8.9166 6.09402 8.61967 5.79709C8.32273 5.50016 7.92001 5.33334 7.50008 5.33334C7.08016 5.33334 6.67743 5.50016 6.3805 5.79709C6.08356 6.09402 5.91675 6.49675 5.91675 6.91668C5.91675 7.3366 6.08356 7.73933 6.3805 8.03626C6.67743 8.3332 7.08016 8.50001 7.50008 8.50001Z" stroke="#E47760" stroke-width="2" stroke-linecap="round" stroke-linejoin="round"/>
</svg>
