<svg width="15" height="16" viewBox="0 0 15 16" fill="none" xmlns="http://www.w3.org/2000/svg">
<path d="M5.96115 0.493652C4.40002 0.493652 3.11631 1.8692 3.11631 3.58975C3.11631 5.31029 4.40002 6.68584 5.96194 6.68584C7.27666 6.68584 8.39424 5.71013 8.71458 4.37438C8.85563 4.90968 9.16395 5.37125 9.58391 5.67579C10.0039 5.98034 10.5078 6.10782 11.0048 6.03522C11.5018 5.96262 11.9591 5.69472 12.2942 5.27988C12.6293 4.86503 12.8202 4.33054 12.8323 3.77287C12.8444 3.2152 12.6771 2.67106 12.3604 2.23864C12.0437 1.80622 11.5986 1.514 11.1054 1.4147C10.6121 1.31541 10.1032 1.41558 9.67052 1.69714C9.2378 1.9787 8.90975 2.42311 8.74558 2.95018C8.47294 1.53925 7.32276 0.493652 5.96115 0.493652ZM3.91118 3.58975C3.91118 2.37873 4.81971 1.37825 5.96194 1.37825C7.10338 1.37825 8.01112 2.37873 8.01112 3.58975C8.01112 4.80076 7.10338 5.80124 5.96115 5.80124C4.81971 5.80124 3.91118 4.80076 3.91118 3.58975ZM9.4244 3.71624C9.4244 3.33078 9.56199 2.9611 9.80691 2.68854C10.0518 2.41597 10.384 2.26285 10.7304 2.26285C11.0767 2.26285 11.4089 2.41597 11.6538 2.68854C11.8987 2.9611 12.0363 3.33078 12.0363 3.71624C12.0363 4.10171 11.8987 4.47138 11.6538 4.74395C11.4089 5.01651 11.0767 5.16964 10.7304 5.16964C10.384 5.16964 10.0518 5.01651 9.80691 4.74395C9.56199 4.47138 9.4244 4.10171 9.4244 3.71624ZM4.49064 7.93932C4.19892 7.72967 3.79592 7.58017 3.38259 7.70667C3.25541 7.74618 3.12876 7.78805 3.00264 7.83228L2.21969 8.11181C1.30162 8.43911 0.594979 9.24764 0.355723 10.2685L0.350159 10.2923L0.0186982 12.8904C-0.102122 13.8387 0.367646 14.7976 1.28095 15.0338C2.21731 15.2753 3.73551 15.5318 5.96115 15.5318C8.18678 15.5318 9.70498 15.2753 10.6413 15.0338C11.5554 14.7976 12.0244 13.8387 11.9036 12.8904L11.5721 10.2923L11.5666 10.2685C11.3281 9.24764 10.6207 8.43823 9.7026 8.11181L8.92045 7.83228C8.79433 7.78747 8.66739 7.74559 8.53971 7.70667C8.12637 7.58017 7.72337 7.72967 7.43245 7.93932C7.11927 8.164 6.60181 8.44265 5.96194 8.44265C5.32207 8.44265 4.80302 8.16489 4.49064 7.93932ZM3.59323 8.55853C3.71643 8.5205 3.88495 8.55588 4.05902 8.68061C4.44771 8.96103 5.11541 9.32636 5.96115 9.32636C6.80768 9.32636 7.47537 8.96103 7.86407 8.68061C8.03735 8.55676 8.20586 8.52138 8.32907 8.55853C8.44565 8.59392 8.56196 8.63225 8.67801 8.67353L9.46017 8.95306C10.1223 9.18925 10.6191 9.76247 10.7916 10.4666L11.1175 13.0143C11.189 13.5769 10.9164 14.0537 10.4617 14.1713C9.58973 14.396 8.13273 14.6463 5.96115 14.6463C3.78956 14.6463 2.33336 14.396 1.46059 14.1713C1.00672 14.0537 0.734081 13.5769 0.80562 13.0143L1.13152 10.4666C1.30321 9.76247 1.79921 9.18925 2.46213 8.95306L3.24508 8.67442C3.3606 8.63314 3.47665 8.5948 3.59323 8.55942M12.4656 6.50715C12.3403 6.47237 12.2095 6.47041 12.0834 6.50141C11.9574 6.53242 11.8395 6.59555 11.7391 6.68584C11.5244 6.8716 11.1445 7.12814 10.7304 7.12814C10.625 7.12814 10.5239 7.17474 10.4493 7.25768C10.3748 7.34063 10.3329 7.45313 10.3329 7.57044C10.3329 7.68774 10.3748 7.80024 10.4493 7.88319C10.5239 7.96614 10.625 8.01274 10.7304 8.01274C11.4124 8.01274 11.9672 7.60848 12.2271 7.38467C12.2367 7.37454 12.2485 7.36724 12.2613 7.36344H12.2645C12.371 7.3947 12.4767 7.42949 12.5816 7.46782L13.1261 7.66686C13.5442 7.81989 13.8614 8.19231 13.9734 8.6523L14.1984 10.4648C14.2429 10.8213 14.0744 11.0885 13.8327 11.1522C13.6552 11.2005 13.4398 11.2477 13.1865 11.2937C13.135 11.303 13.0855 11.3235 13.0411 11.3541C12.9966 11.3846 12.958 11.4246 12.9275 11.4717C12.8969 11.5189 12.875 11.5723 12.863 11.6289C12.851 11.6854 12.8491 11.7441 12.8574 11.8015C12.8658 11.8589 12.8842 11.9139 12.9117 11.9633C12.9391 12.0128 12.975 12.0557 13.0174 12.0897C13.0598 12.1237 13.1078 12.1481 13.1586 12.1615C13.2094 12.1749 13.2621 12.177 13.3137 12.1677C13.585 12.1176 13.8192 12.066 14.0164 12.0129C14.7278 11.8245 15.0759 11.0664 14.9861 10.3437L14.7548 8.48069L14.7492 8.45681C14.6622 8.07804 14.4905 7.72993 14.25 7.44488C14.0096 7.15983 13.7083 6.94711 13.3741 6.82649L12.8296 6.62746C12.7094 6.58333 12.588 6.54321 12.4656 6.50715Z" fill="#5E5E5E"/>
</svg>
