<svg width="29" height="27" viewBox="0 0 29 27" fill="none" xmlns="http://www.w3.org/2000/svg">
<ellipse cx="14.5" cy="13.5" rx="14.5" ry="13.5" fill="#CFBCFF"/>
<path d="M13.5637 7C12.1067 7 10.9086 8.28059 10.9086 9.88235C10.9086 11.4841 12.1067 12.7647 13.5645 12.7647C14.7915 12.7647 15.8346 11.8564 16.1336 10.6128C16.2653 11.1112 16.553 11.5409 16.945 11.8244C17.3369 12.1079 17.8073 12.2266 18.2712 12.159C18.735 12.0914 19.1618 11.842 19.4746 11.4558C19.7874 11.0696 19.9655 10.572 19.9768 10.0528C19.9882 9.53366 19.8319 9.02709 19.5364 8.62452C19.2408 8.22195 18.8254 7.94991 18.365 7.85747C17.9047 7.76503 17.4297 7.85828 17.0258 8.12041C16.6219 8.38253 16.3158 8.79626 16.1625 9.28694C15.9081 7.97341 14.8346 7 13.5637 7ZM11.6504 9.88235C11.6504 8.75494 12.4984 7.82353 13.5645 7.82353C14.6298 7.82353 15.477 8.75494 15.477 9.88235C15.477 11.0098 14.6298 11.9412 13.5637 11.9412C12.4984 11.9412 11.6504 11.0098 11.6504 9.88235ZM16.7961 10.0001C16.7961 9.64126 16.9245 9.29711 17.1531 9.04336C17.3817 8.78961 17.6917 8.64706 18.015 8.64706C18.3383 8.64706 18.6483 8.78961 18.8769 9.04336C19.1055 9.29711 19.2339 9.64126 19.2339 10.0001C19.2339 10.359 19.1055 10.7031 18.8769 10.9569C18.6483 11.2106 18.3383 11.3532 18.015 11.3532C17.6917 11.3532 17.3817 11.2106 17.1531 10.9569C16.9245 10.7031 16.7961 10.359 16.7961 10.0001ZM12.1913 13.9316C11.919 13.7365 11.5429 13.5973 11.1571 13.7151C11.0384 13.7518 10.9202 13.7908 10.8025 13.832L10.0717 14.0922C9.21484 14.3969 8.55531 15.1496 8.33201 16.1L8.32682 16.1222L8.01745 18.5409C7.90469 19.4238 8.34314 20.3165 9.19556 20.5364C10.0695 20.7612 11.4865 21 13.5637 21C15.641 21 17.058 20.7612 17.9319 20.5364C18.7851 20.3165 19.2228 19.4238 19.11 18.5409L18.8007 16.1222L18.7955 16.1C18.5729 15.1496 17.9126 14.3961 17.0558 14.0922L16.3258 13.832C16.208 13.7903 16.0896 13.7513 15.9704 13.7151C15.5846 13.5973 15.2085 13.7365 14.937 13.9316C14.6447 14.1408 14.1617 14.4002 13.5645 14.4002C12.9673 14.4002 12.4828 14.1416 12.1913 13.9316ZM11.3537 14.5081C11.4687 14.4727 11.6259 14.5056 11.7884 14.6218C12.1512 14.8828 12.7744 15.2229 13.5637 15.2229C14.3538 15.2229 14.977 14.8828 15.3398 14.6218C15.5015 14.5065 15.6588 14.4735 15.7738 14.5081C15.8826 14.5411 15.9912 14.5767 16.0995 14.6152L16.8295 14.8754C17.4475 15.0953 17.9111 15.6289 18.0721 16.2845L18.3763 18.6562C18.4431 19.18 18.1886 19.6239 17.7643 19.7334C16.9504 19.9426 15.5906 20.1756 13.5637 20.1756C11.5369 20.1756 10.1778 19.9426 9.36322 19.7334C8.93961 19.6239 8.68514 19.18 8.75191 18.6562L9.05608 16.2845C9.21633 15.6289 9.67926 15.0953 10.298 14.8754L11.0287 14.616C11.1366 14.5776 11.2449 14.5419 11.3537 14.5089M19.6345 12.5984C19.5176 12.566 19.3955 12.5641 19.2779 12.593C19.1602 12.6219 19.0502 12.6806 18.9565 12.7647C18.7561 12.9376 18.4015 13.1765 18.015 13.1765C17.9166 13.1765 17.8223 13.2199 17.7527 13.2971C17.6832 13.3743 17.6441 13.479 17.6441 13.5882C17.6441 13.6974 17.6832 13.8022 17.7527 13.8794C17.8223 13.9566 17.9166 14 18.015 14C18.6515 14 19.1694 13.6236 19.412 13.4153C19.421 13.4059 19.4319 13.3991 19.4439 13.3955H19.4468C19.5462 13.4246 19.6449 13.457 19.7428 13.4927L20.251 13.678C20.6413 13.8205 20.9373 14.1672 21.0419 14.5954L21.2518 16.2828C21.2934 16.6147 21.1361 16.8634 20.9106 16.9227C20.7449 16.9677 20.5438 17.0116 20.3074 17.0545C20.2593 17.0631 20.2132 17.0822 20.1717 17.1107C20.1302 17.1391 20.0942 17.1763 20.0657 17.2202C20.0371 17.2641 20.0167 17.3138 20.0055 17.3665C19.9942 17.4191 19.9925 17.4738 20.0003 17.5272C20.0081 17.5806 20.0253 17.6318 20.0509 17.6778C20.0765 17.7239 20.11 17.7639 20.1496 17.7955C20.1891 17.8272 20.2339 17.8499 20.2813 17.8624C20.3288 17.8748 20.378 17.8768 20.4261 17.8681C20.6793 17.8215 20.898 17.7734 21.0819 17.724C21.7459 17.5486 22.0709 16.8428 21.987 16.17L21.7711 14.4356L21.7659 14.4134C21.6847 14.0608 21.5244 13.7367 21.3 13.4713C21.0756 13.206 20.7944 13.0079 20.4825 12.8956L19.9743 12.7104C19.8621 12.6693 19.7488 12.6319 19.6345 12.5984Z" fill="#6B50AF"/>
</svg>
