<svg width="13" height="8" viewBox="0 0 13 8" fill="none" xmlns="http://www.w3.org/2000/svg">
<path d="M12.3535 4.35355C12.5487 4.15829 12.5487 3.84171 12.3535 3.64645L9.17149 0.464466C8.97623 0.269204 8.65965 0.269204 8.46439 0.464466C8.26912 0.659728 8.26912 0.976311 8.46439 1.17157L11.2928 4L8.46439 6.82843C8.26912 7.02369 8.26912 7.34027 8.46439 7.53553C8.65965 7.7308 8.97623 7.7308 9.17149 7.53553L12.3535 4.35355ZM2.83325 4V4.5H11.9999V4V3.5H2.83325V4Z" fill="#848484"/>
<path d="M0.646474 3.64645C0.451211 3.84171 0.451211 4.15829 0.646474 4.35355L3.82845 7.53553C4.02372 7.7308 4.3403 7.7308 4.53556 7.53553C4.73082 7.34027 4.73082 7.02369 4.53556 6.82843L1.70713 4L4.53556 1.17157C4.73082 0.976311 4.73082 0.659728 4.53556 0.464466C4.3403 0.269204 4.02372 0.269204 3.82845 0.464466L0.646474 3.64645ZM5.88892 4V3.5L1.00003 3.5V4V4.5L5.88892 4.5V4Z" fill="#848484"/>
</svg>
