<svg width="27" height="8" viewBox="0 0 27 8" fill="none" xmlns="http://www.w3.org/2000/svg">
<path d="M26.3535 4.35355C26.5488 4.15829 26.5488 3.84171 26.3535 3.64645L23.1716 0.464466C22.9763 0.269204 22.6597 0.269204 22.4645 0.464466C22.2692 0.659728 22.2692 0.976311 22.4645 1.17157L25.2929 4L22.4645 6.82843C22.2692 7.02369 22.2692 7.34027 22.4645 7.53553C22.6597 7.7308 22.9763 7.7308 23.1716 7.53553L26.3535 4.35355ZM5.16666 4V4.5H26V4V3.5H5.16666V4Z" fill="#848484"/>
<path d="M0.64645 3.64645C0.451188 3.84171 0.451188 4.15829 0.64645 4.35355L3.82843 7.53553C4.02369 7.7308 4.34028 7.7308 4.53554 7.53553C4.7308 7.34027 4.7308 7.02369 4.53554 6.82843L1.70711 4L4.53554 1.17157C4.7308 0.976311 4.7308 0.659728 4.53554 0.464466C4.34028 0.269204 4.02369 0.269204 3.82843 0.464466L0.64645 3.64645ZM12.1111 4V3.5L1 3.5V4V4.5L12.1111 4.5V4Z" fill="#848484"/>
</svg>
