<svg width="34" height="36" viewBox="0 0 34 36" fill="none" xmlns="http://www.w3.org/2000/svg">
<path d="M33.0498 26.9562C31.1845 24.3941 28.7625 22.3137 25.9762 20.8803C23.1899 19.4469 20.1161 18.7 16.9992 18.6989C13.8822 18.6979 10.808 19.4428 8.02078 20.8744C5.23358 22.3059 2.81025 24.3848 0.943359 26.9456C2.8007 29.5195 5.22004 31.6111 8.00739 33.0527C10.7947 34.4942 13.8725 35.2456 16.994 35.2467C20.1154 35.2477 23.1937 34.4983 25.982 33.0586C28.7702 31.6189 31.1909 29.5289 33.0498 26.9562Z" fill="#4294FF"/>
<path d="M17 16.0511C21.2757 16.0511 24.7419 12.4949 24.7419 8.10809C24.7419 3.72128 21.2757 0.16507 17 0.16507C12.7242 0.16507 9.25806 3.72128 9.25806 8.10809C9.25806 12.4949 12.7242 16.0511 17 16.0511Z" fill="#4294FF"/>
</svg>
