<svg width="100" height="102" viewBox="0 0 100 102" fill="none" xmlns="http://www.w3.org/2000/svg">
<path d="M50 101.4C77.6142 101.4 100 78.8651 100 51.0667C100 23.2684 77.6142 0.733398 50 0.733398C22.3858 0.733398 0 23.2684 0 51.0667C0 78.8651 22.3858 101.4 50 101.4Z" fill="#E6ECFF"/>
<path d="M90.1245 81.0635C85.4613 74.7788 79.4062 69.6757 72.4405 66.1596C65.4747 62.6435 57.7903 60.8114 49.9979 60.8088C42.2055 60.8063 34.52 62.6335 27.552 66.145C20.584 69.6566 14.5256 74.7559 9.8584 81.0375C14.5018 87.3512 20.5501 92.4818 27.5185 96.0178C34.4868 99.5539 42.1813 101.397 49.985 101.4C57.7886 101.402 65.4843 99.564 72.4549 96.0324C79.4255 92.5008 85.4771 87.3742 90.1245 81.0635Z" fill="#4294FF"/>
<path d="M50.0003 54.3142C60.6897 54.3142 69.3552 45.591 69.3552 34.8303C69.3552 24.0697 60.6897 15.3464 50.0003 15.3464C39.311 15.3464 30.6455 24.0697 30.6455 34.8303C30.6455 45.591 39.311 54.3142 50.0003 54.3142Z" fill="#4294FF"/>
</svg>
