<svg width="39" height="39" viewBox="0 0 39 39" fill="none" xmlns="http://www.w3.org/2000/svg">
<path d="M19.498 0.5C19.6584 0.500017 19.8183 0.554642 19.9551 0.661133C20.0924 0.768105 20.1999 0.923401 20.2559 1.1084L24.1895 14.0771L24.2969 14.4326H37.6992C37.8612 14.4325 38.0235 14.4872 38.1611 14.5957C38.2995 14.7049 38.4065 14.8638 38.4609 15.0518C38.5154 15.2399 38.5124 15.4423 38.4521 15.6279C38.3919 15.8133 38.2797 15.9668 38.1387 16.0703L27.5713 23.8262L27.2832 24.0381L27.3906 24.3799L31.4639 37.3076C31.5074 37.4456 31.5202 37.594 31.5 37.7393C31.4798 37.8846 31.4278 38.0213 31.3506 38.1367C31.2735 38.252 31.1736 38.3421 31.0625 38.4033C30.9516 38.4645 30.8307 38.4959 30.71 38.4961H30.709C30.5492 38.4967 30.3896 38.4429 30.2529 38.3379H30.252L19.8047 30.2236L19.498 29.9863L19.1914 30.2236L8.74121 38.3398C8.60381 38.4466 8.44229 38.5006 8.28125 38.5C8.12031 38.4993 7.95997 38.4438 7.82324 38.3359C7.68593 38.2276 7.57921 38.071 7.52441 37.8848C7.48332 37.7449 7.47348 37.5965 7.49609 37.4531L7.5293 37.3115L11.6055 24.3799L11.7129 24.0381L11.4248 23.8262L0.861328 16.0664L0.761719 15.9795C0.667904 15.884 0.593089 15.7629 0.547852 15.624C0.487638 15.4388 0.484077 15.2367 0.538086 15.0488C0.592132 14.861 0.698977 14.7022 0.836914 14.5928C0.974213 14.4839 1.13599 14.4282 1.29785 14.4277H14.6992L14.8066 14.0732L18.7393 1.1084H18.7402C18.7962 0.923362 18.9037 0.768108 19.041 0.661133C19.1778 0.554626 19.3376 0.5 19.498 0.5Z" stroke="black"/>
</svg>
