<svg width="11" height="11" viewBox="0 0 11 11" fill="none" xmlns="http://www.w3.org/2000/svg">
<g clip-path="url(#clip0_191_2726)">
<path d="M4.58325 5.19446H5.49992V5.80557H4.58325V5.19446Z" fill="#43B1E8"/>
<path d="M8.08192 4.32971C7.54 3.44293 6.80072 2.69319 5.92164 2.13888C5.51553 1.88149 5.05258 1.72743 4.57322 1.69014C4.09386 1.65286 3.61267 1.73349 3.17164 1.92499C2.78588 2.10695 2.4502 2.38007 2.19361 2.72078C1.93702 3.06149 1.76721 3.45953 1.69886 3.88054C1.67442 4.02415 1.65608 4.16165 1.63775 4.2961C1.35167 4.34247 1.09138 4.48898 0.903327 4.7095C0.715274 4.93001 0.611698 5.21018 0.611084 5.49999V7.37304C0.611084 7.53512 0.675469 7.69056 0.790074 7.80516C0.90468 7.91977 1.06012 7.98415 1.2222 7.98415V5.49999C1.2222 5.33791 1.28658 5.18247 1.40119 5.06787C1.51579 4.95326 1.67123 4.88888 1.83331 4.88888H7.55636C8.14526 4.88968 8.70981 5.12398 9.12623 5.5404C9.54264 5.95681 9.77694 6.52136 9.77775 7.11026V7.33332H9.16664C9.03759 7.01863 8.7972 6.76248 8.49133 6.61373C8.18546 6.46498 7.83553 6.43406 7.50831 6.52686C7.1811 6.61966 6.8995 6.82968 6.71727 7.11686C6.53503 7.40404 6.4649 7.74826 6.52028 8.08384C6.57565 8.41943 6.75264 8.72288 7.01747 8.93629C7.28231 9.1497 7.61645 9.25813 7.95613 9.24089C8.29581 9.22365 8.61726 9.08195 8.85913 8.84283C9.101 8.6037 9.24636 8.2839 9.26747 7.94443H9.77775C9.93983 7.94443 10.0953 7.88005 10.2099 7.76544C10.3245 7.65084 10.3889 7.4954 10.3889 7.33332V7.11026C10.3876 6.45085 10.1566 5.81249 9.73557 5.305C9.31452 4.79751 8.72977 4.45264 8.08192 4.32971ZM3.36108 4.27776H2.11747C2.11747 4.18304 2.14497 4.08526 2.16331 3.97221C2.2161 3.63654 2.35387 3.31996 2.56351 3.05255C2.77316 2.78515 3.04772 2.57581 3.36108 2.44443V4.27776ZM3.9722 4.27776V2.3161C4.54265 2.24202 5.12119 2.36723 5.60997 2.67054C6.27723 3.08615 6.85312 3.63294 7.30275 4.27776H3.9722ZM7.88331 8.67165C7.73222 8.67165 7.58453 8.62685 7.45891 8.54291C7.33329 8.45898 7.23538 8.33967 7.17756 8.20009C7.11975 8.06051 7.10462 7.90692 7.1341 7.75874C7.16357 7.61056 7.23632 7.47444 7.34315 7.36761C7.44999 7.26078 7.5861 7.18803 7.73428 7.15855C7.88246 7.12908 8.03605 7.14421 8.17563 7.20202C8.31522 7.25984 8.43452 7.35775 8.51846 7.48337C8.60239 7.60899 8.64719 7.75668 8.64719 7.90776C8.64719 8.11036 8.56671 8.30466 8.42346 8.44792C8.2802 8.59117 8.0859 8.67165 7.88331 8.67165Z" fill="#43B1E8"/>
<path d="M4.32963 7.33332C4.20058 7.01863 3.96018 6.76247 3.65432 6.61373C3.34845 6.46498 2.99852 6.43405 2.6713 6.52685C2.34409 6.61965 2.06249 6.82968 1.88026 7.11686C1.69802 7.40404 1.62789 7.74826 1.68326 8.08384C1.73864 8.41943 1.91563 8.72287 2.18046 8.93629C2.4453 9.1497 2.77944 9.25813 3.11912 9.24089C3.4588 9.22365 3.78025 9.08195 4.02212 8.84283C4.26399 8.6037 4.40935 8.28389 4.43046 7.94443H6.04991V7.86804C6.04386 7.68776 6.06445 7.50758 6.11102 7.33332H4.32963ZM3.05546 8.67165C2.90438 8.67165 2.75669 8.62685 2.63107 8.54291C2.50545 8.45898 2.40754 8.33967 2.34972 8.20009C2.2919 8.06051 2.27678 7.90692 2.30625 7.75874C2.33573 7.61056 2.40848 7.47444 2.51531 7.36761C2.62214 7.26078 2.75826 7.18803 2.90644 7.15855C3.05461 7.12908 3.20821 7.14421 3.34779 7.20202C3.48737 7.25984 3.60668 7.35775 3.69061 7.48337C3.77455 7.60899 3.81935 7.75668 3.81935 7.90776C3.81935 8.11036 3.73887 8.30466 3.59561 8.44791C3.45236 8.59117 3.25806 8.67165 3.05546 8.67165Z" fill="#43B1E8"/>
</g>
<defs>
<clipPath id="clip0_191_2726">
<rect width="11" height="11" fill="white"/>
</clipPath>
</defs>
</svg>
