<svg width="22" height="22" viewBox="0 0 22 22" fill="none" xmlns="http://www.w3.org/2000/svg">
<circle cx="11" cy="11" r="11" fill="#FFCACA"/>
<path d="M11.1458 8.66667C12.9166 8.66667 14.3333 10.0833 14.3333 11.8542C14.3333 13.625 12.9166 15.0417 11.1458 15.0417C9.37496 15.0417 7.95829 13.625 7.95829 11.8542C7.95829 10.0833 9.37496 8.66667 11.1458 8.66667ZM11.1458 9.375C10.4883 9.375 9.85769 9.6362 9.39276 10.1011C8.92782 10.5661 8.66663 11.1967 8.66663 11.8542C8.66663 12.5117 8.92782 13.1423 9.39276 13.6072C9.85769 14.0721 10.4883 14.3333 11.1458 14.3333C11.8033 14.3333 12.4339 14.0721 12.8988 13.6072C13.3638 13.1423 13.625 12.5117 13.625 11.8542C13.625 11.1967 13.3638 10.5661 12.8988 10.1011C12.4339 9.6362 11.8033 9.375 11.1458 9.375ZM6.54163 6.54167H7.95829L9.37496 5.125H12.9166L14.3333 6.54167H15.75C16.3135 6.54167 16.854 6.76555 17.2526 7.16406C17.6511 7.56258 17.875 8.10308 17.875 8.66667V15.0417C17.875 15.6053 17.6511 16.1458 17.2526 16.5443C16.854 16.9428 16.3135 17.1667 15.75 17.1667H6.54163C5.97804 17.1667 5.43754 16.9428 5.03902 16.5443C4.64051 16.1458 4.41663 15.6053 4.41663 15.0417V8.66667C4.41663 8.10308 4.64051 7.56258 5.03902 7.16406C5.43754 6.76555 5.97804 6.54167 6.54163 6.54167ZM9.66538 5.83333L8.24871 7.25H6.54163C6.1659 7.25 5.80557 7.39926 5.53989 7.66493C5.27421 7.93061 5.12496 8.29094 5.12496 8.66667V15.0417C5.12496 15.4174 5.27421 15.7777 5.53989 16.0434C5.80557 16.3091 6.1659 16.4583 6.54163 16.4583H15.75C16.1257 16.4583 16.486 16.3091 16.7517 16.0434C17.0174 15.7777 17.1666 15.4174 17.1666 15.0417V8.66667C17.1666 8.29094 17.0174 7.93061 16.7517 7.66493C16.486 7.39926 16.1257 7.25 15.75 7.25H14.0429L12.6262 5.83333H9.66538Z" fill="black"/>
</svg>
