<svg width="31" height="31" viewBox="0 0 31 31" fill="none" xmlns="http://www.w3.org/2000/svg">
<path d="M12.3197 0C9.09338 0 6.44037 2.83559 6.44037 6.38235C6.44037 9.92912 9.09338 12.7647 12.3213 12.7647C15.0384 12.7647 17.3481 10.7534 18.0101 7.99982C18.3016 9.10329 18.9388 10.0548 19.8068 10.6826C20.6747 11.3104 21.7162 11.5732 22.7433 11.4235C23.7704 11.2738 24.7155 10.7216 25.408 9.86642C26.1006 9.01125 26.495 7.90945 26.5201 6.75985C26.5452 5.61025 26.1993 4.48855 25.5449 3.59715C24.8904 2.70576 23.9705 2.10336 22.9511 1.89868C21.9317 1.69399 20.88 1.90048 19.9857 2.4809C19.0914 3.06132 18.4135 3.97743 18.0742 5.06394C17.5107 2.15541 15.1337 0 12.3197 0ZM8.0831 6.38235C8.0831 3.88594 9.96074 1.82353 12.3213 1.82353C14.6803 1.82353 16.5563 3.88594 16.5563 6.38235C16.5563 8.87877 14.6803 10.9412 12.3197 10.9412C9.96074 10.9412 8.0831 8.87877 8.0831 6.38235ZM19.4771 6.64312C19.4771 5.84851 19.7614 5.08645 20.2676 4.52458C20.7738 3.96271 21.4603 3.64706 22.1761 3.64706C22.8919 3.64706 23.5784 3.96271 24.0846 4.52458C24.5907 5.08645 24.8751 5.84851 24.8751 6.64312C24.8751 7.43772 24.5907 8.19978 24.0846 8.76165C23.5784 9.32352 22.8919 9.63918 22.1761 9.63918C21.4603 9.63918 20.7738 9.32352 20.2676 8.76165C19.7614 8.19978 19.4771 7.43772 19.4771 6.64312ZM9.28065 15.3486C8.67777 14.9165 7.8449 14.6083 6.99068 14.8691C6.72785 14.9505 6.4661 15.0368 6.20546 15.128L4.58737 15.7042C2.69001 16.3789 1.22962 18.0456 0.735161 20.15L0.723662 20.1992L0.0386429 25.5549C-0.211052 27.5098 0.759802 29.4865 2.6473 29.9734C4.58244 30.4712 7.72006 31 12.3197 31C16.9194 31 20.057 30.4712 21.9921 29.9734C23.8812 29.4865 24.8505 27.5098 24.6008 25.5549L23.9157 20.1992L23.9042 20.15C23.4114 18.0456 21.9494 16.3771 20.052 15.7042L18.4356 15.128C18.175 15.0356 17.9126 14.9493 17.6487 14.8691C16.7945 14.6083 15.9616 14.9165 15.3604 15.3486C14.7132 15.8118 13.6437 16.3862 12.3213 16.3862C10.9989 16.3862 9.92624 15.8136 9.28065 15.3486ZM7.42601 16.6251C7.68063 16.5467 8.02889 16.6196 8.38865 16.8768C9.19194 17.4548 10.5718 18.2079 12.3197 18.2079C14.0692 18.2079 15.4491 17.4548 16.2524 16.8768C16.6105 16.6215 16.9588 16.5485 17.2134 16.6251C17.4543 16.6981 17.6947 16.7771 17.9346 16.8622L19.551 17.4384C20.9194 17.9253 21.9461 19.1069 22.3026 20.5585L22.9761 25.8102C23.1239 26.97 22.5605 27.9529 21.6208 28.1954C19.8188 28.6586 16.8076 29.1747 12.3197 29.1747C7.83176 29.1747 4.82228 28.6586 3.01856 28.1954C2.08056 27.9529 1.5171 26.97 1.66495 25.8102L2.33847 20.5585C2.6933 19.1069 3.71836 17.9253 5.0884 17.4384L6.70649 16.864C6.94523 16.7789 7.18507 16.6999 7.42601 16.6269M25.7622 12.3964C25.5033 12.3247 25.233 12.3206 24.9724 12.3845C24.7119 12.4484 24.4683 12.5786 24.2607 12.7647C23.8172 13.1476 23.032 13.6765 22.1761 13.6765C21.9583 13.6765 21.7493 13.7725 21.5953 13.9435C21.4413 14.1145 21.3547 14.3464 21.3547 14.5882C21.3547 14.8301 21.4413 15.062 21.5953 15.233C21.7493 15.4039 21.9583 15.5 22.1761 15.5C23.5856 15.5 24.7322 14.6666 25.2694 14.2053C25.2892 14.1844 25.3135 14.1694 25.34 14.1615H25.3466C25.5667 14.226 25.7852 14.2977 26.002 14.3767L27.1273 14.787C27.9914 15.1025 28.6468 15.8702 28.8784 16.8184L29.3433 20.5548C29.4353 21.2897 29.0871 21.8404 28.5877 21.9717C28.2208 22.0714 27.7756 22.1686 27.2521 22.2635C27.1456 22.2826 27.0434 22.3249 26.9516 22.3879C26.8597 22.4508 26.78 22.5333 26.7168 22.6305C26.6536 22.7277 26.6084 22.8377 26.5835 22.9543C26.5587 23.071 26.5548 23.1919 26.572 23.3102C26.5893 23.4285 26.6274 23.5418 26.6841 23.6438C26.7408 23.7458 26.8151 23.8343 26.9027 23.9044C26.9902 23.9745 27.0894 24.0248 27.1944 24.0524C27.2995 24.0799 27.4084 24.0843 27.515 24.0651C28.0757 23.9618 28.5597 23.8554 28.9671 23.746C30.4374 23.3576 31.1569 21.7948 30.9713 20.305L30.4932 16.4646L30.4817 16.4154C30.3018 15.6346 29.9469 14.917 29.45 14.3294C28.9532 13.7418 28.3304 13.3033 27.6398 13.0546L26.5145 12.6444C26.266 12.5534 26.0151 12.4707 25.7622 12.3964Z" fill="#EB55FF"/>
</svg>
