<svg width="18" height="18" viewBox="0 0 18 18" fill="none" xmlns="http://www.w3.org/2000/svg">
<path d="M12.1249 9C12.1249 9.82881 11.7956 10.6237 11.2096 11.2097C10.6235 11.7958 9.82868 12.125 8.99988 12.125C8.17108 12.125 7.37622 11.7958 6.79017 11.2097C6.20412 10.6237 5.87488 9.82881 5.87488 9C5.87488 8.1712 6.20412 7.37635 6.79017 6.7903C7.37622 6.20424 8.17108 5.875 8.99988 5.875C9.82868 5.875 10.6235 6.20424 11.2096 6.7903C11.7956 7.37635 12.1249 8.1712 12.1249 9ZM11.4999 9C11.4999 8.33696 11.2365 7.70108 10.7676 7.23224C10.2988 6.7634 9.66292 6.5 8.99988 6.5C8.33684 6.5 7.70095 6.7634 7.23211 7.23224C6.76327 7.70108 6.49988 8.33696 6.49988 9C6.49988 9.66305 6.76327 10.2989 7.23211 10.7678C7.70095 11.2366 8.33684 11.5 8.99988 11.5C9.66292 11.5 10.2988 11.2366 10.7676 10.7678C11.2365 10.2989 11.4999 9.66305 11.4999 9ZM2.68738 2.94C2.77483 2.85137 2.8877 2.79214 3.01033 2.77053C3.13295 2.74891 3.25927 2.76599 3.37175 2.81938L4.49675 3.33813C4.67422 3.42006 4.86843 3.45923 5.06379 3.45249C5.25914 3.44575 5.45019 3.39329 5.62159 3.29932C5.79299 3.20535 5.93997 3.0725 6.05071 2.91143C6.16145 2.75036 6.23288 2.56556 6.25925 2.37188L6.44488 1.01188C6.45985 0.892907 6.51013 0.78115 6.58922 0.691025C6.66832 0.6009 6.77261 0.536543 6.88863 0.506254C7.57914 0.335362 8.28791 0.24931 8.99925 0.250004C9.72738 0.250004 10.4343 0.338754 11.1105 0.506254C11.2265 0.536543 11.3308 0.6009 11.4099 0.691025C11.489 0.78115 11.5393 0.892907 11.5543 1.01188L11.7399 2.37188C11.7663 2.56548 11.8377 2.75019 11.9484 2.91119C12.0591 3.07219 12.206 3.205 12.3773 3.29896C12.5487 3.39291 12.7396 3.4454 12.9349 3.4522C13.1302 3.459 13.3243 3.41993 13.5018 3.33813L14.6268 2.81938C14.7392 2.76599 14.8656 2.74891 14.9882 2.77053C15.1108 2.79214 15.2237 2.85137 15.3111 2.94C16.2916 3.96024 17.0101 5.20305 17.4049 6.56188C17.4378 6.68206 17.4326 6.80952 17.3898 6.92656C17.347 7.0436 17.2688 7.14441 17.1661 7.215L16.0811 7.9775C15.917 8.09283 15.783 8.24598 15.6905 8.424C15.598 8.60203 15.5497 8.7997 15.5497 9.00032C15.5497 9.20094 15.598 9.39861 15.6905 9.57663C15.783 9.75465 15.917 9.9078 16.0811 10.0231L17.1661 10.7856C17.2687 10.8562 17.3468 10.9569 17.3896 11.0738C17.4323 11.1907 17.4377 11.318 17.4049 11.4381C17.0101 12.797 16.2916 14.0398 15.3111 15.06C15.2237 15.1485 15.111 15.2077 14.9885 15.2293C14.866 15.2509 14.7398 15.2339 14.6274 15.1806L13.5011 14.6619C13.3237 14.5802 13.1296 14.5412 12.9344 14.5481C12.7392 14.555 12.5484 14.6075 12.3771 14.7014C12.2059 14.7954 12.0591 14.9281 11.9484 15.0891C11.8377 15.25 11.7663 15.4346 11.7399 15.6281L11.5543 16.9881C11.5393 17.1071 11.489 17.2189 11.4099 17.309C11.3308 17.3991 11.2265 17.4635 11.1105 17.4938C10.4198 17.6647 9.7108 17.7507 8.99925 17.75C8.2877 17.7507 7.57872 17.6647 6.888 17.4938C6.77198 17.4635 6.6677 17.3991 6.5886 17.309C6.5095 17.2189 6.45923 17.1071 6.44425 16.9881L6.25925 15.6281C6.23288 15.4344 6.16145 15.2497 6.05071 15.0886C5.93997 14.9275 5.79299 14.7947 5.62159 14.7007C5.45019 14.6067 5.25914 14.5543 5.06379 14.5475C4.86843 14.5408 4.67422 14.5799 4.49675 14.6619L3.37175 15.1806C3.25927 15.234 3.13295 15.2511 3.01033 15.2295C2.8877 15.2079 2.77483 15.1486 2.68738 15.06C1.70678 14.0396 0.988328 12.7966 0.593629 11.4375C0.560672 11.3173 0.565953 11.1899 0.608737 11.0728C0.651521 10.9558 0.729686 10.855 0.832379 10.7844L1.918 10.0219C2.08216 9.90655 2.21615 9.7534 2.30864 9.57538C2.40114 9.39736 2.44943 9.19969 2.44943 8.99907C2.44943 8.79845 2.40114 8.60078 2.30864 8.42275C2.21615 8.24473 2.08216 8.09158 1.918 7.97625L0.832379 7.21375C0.729686 7.14316 0.651521 7.04235 0.608737 6.92531C0.565953 6.80827 0.560672 6.68081 0.593629 6.56063C0.988697 5.20247 1.70713 3.95971 2.68738 2.94ZM1.20113 6.71063L2.27675 7.46625C3.33988 8.21313 3.33988 9.78813 2.27675 10.535L1.20175 11.2906C1.56747 12.5341 2.22537 13.672 3.1205 14.6094L4.2355 14.095C4.50161 13.9724 4.79275 13.9138 5.08558 13.924C5.3784 13.9342 5.66476 14.0129 5.92169 14.1537C6.17862 14.2946 6.39895 14.4937 6.56503 14.7351C6.7311 14.9765 6.83829 15.2535 6.878 15.5438L7.06238 16.8938C7.68238 17.045 8.33113 17.1256 8.99988 17.1256C9.65226 17.1264 10.3024 17.0485 10.9361 16.8938L11.1205 15.5438C11.1602 15.2535 11.2674 14.9765 11.4335 14.7351C11.5996 14.4937 11.8199 14.2946 12.0768 14.1537C12.3337 14.0129 12.6201 13.9342 12.9129 13.924C13.2058 13.9138 13.4969 13.9724 13.763 14.095L14.8786 14.6088C15.7738 13.6714 16.4317 12.5335 16.7974 11.29L15.7224 10.535C15.4761 10.362 15.275 10.1323 15.1363 9.86522C14.9975 9.59816 14.925 9.3016 14.925 9.00063C14.925 8.69965 14.9975 8.4031 15.1363 8.13604C15.275 7.86897 15.4761 7.63924 15.7224 7.46625L16.7974 6.71063C16.4317 5.46717 15.7738 4.32925 14.8786 3.39188L13.763 3.90625C13.4969 4.02889 13.2058 4.08746 12.9129 4.07726C12.6201 4.06706 12.3337 3.98838 12.0768 3.84752C11.8199 3.70666 11.5996 3.50755 11.4335 3.26615C11.2674 3.02476 11.1602 2.74781 11.1205 2.4575L10.9361 1.1075C10.3022 0.952498 9.65187 0.874436 8.99925 0.875004C8.33113 0.875004 7.68238 0.955629 7.06238 1.10688L6.878 2.45688C6.83829 2.74718 6.7311 3.02414 6.56503 3.26553C6.39895 3.50692 6.17862 3.70603 5.92169 3.84689C5.66476 3.98775 5.3784 4.06644 5.08558 4.07664C4.79275 4.08684 4.50161 4.02827 4.2355 3.90563L3.1205 3.39188C2.22537 4.32925 1.56685 5.46717 1.20113 6.71063Z" fill="#494949"/>
</svg>
