<svg width="20" height="20" viewBox="0 0 20 20" fill="none" xmlns="http://www.w3.org/2000/svg">
<path d="M13.125 10C13.125 10.8288 12.7958 11.6237 12.2097 12.2097C11.6237 12.7958 10.8288 13.125 10 13.125C9.1712 13.125 8.37634 12.7958 7.79029 12.2097C7.20424 11.6237 6.875 10.8288 6.875 10C6.875 9.1712 7.20424 8.37635 7.79029 7.7903C8.37634 7.20424 9.1712 6.875 10 6.875C10.8288 6.875 11.6237 7.20424 12.2097 7.7903C12.7958 8.37635 13.125 9.1712 13.125 10ZM12.5 10C12.5 9.33696 12.2366 8.70108 11.7678 8.23224C11.2989 7.7634 10.663 7.5 10 7.5C9.33696 7.5 8.70108 7.7634 8.23223 8.23224C7.76339 8.70108 7.5 9.33696 7.5 10C7.5 10.663 7.76339 11.2989 8.23223 11.7678C8.70108 12.2366 9.33696 12.5 10 12.5C10.663 12.5 11.2989 12.2366 11.7678 11.7678C12.2366 11.2989 12.5 10.663 12.5 10ZM3.6875 3.94C3.77496 3.85137 3.88782 3.79214 4.01045 3.77053C4.13307 3.74891 4.25939 3.76599 4.37188 3.81938L5.49688 4.33813C5.67435 4.42006 5.86856 4.45923 6.06391 4.45249C6.25926 4.44575 6.45031 4.39329 6.62171 4.29932C6.79311 4.20535 6.94009 4.0725 7.05083 3.91143C7.16158 3.75036 7.233 3.56556 7.25938 3.37188L7.445 2.01188C7.45997 1.89291 7.51025 1.78115 7.58935 1.69102C7.66844 1.6009 7.77273 1.53654 7.88875 1.50625C8.57926 1.33536 9.28803 1.24931 9.99938 1.25C10.7275 1.25 11.4344 1.33875 12.1106 1.50625C12.2266 1.53654 12.3309 1.6009 12.41 1.69102C12.4891 1.78115 12.5394 1.89291 12.5544 2.01188L12.74 3.37188C12.7664 3.56548 12.8378 3.75019 12.9485 3.91119C13.0592 4.07219 13.2061 4.205 13.3775 4.29896C13.5488 4.39291 13.7397 4.4454 13.935 4.4522C14.1303 4.459 14.3244 4.41993 14.5019 4.33813L15.6269 3.81938C15.7394 3.76599 15.8657 3.74891 15.9883 3.77053C16.1109 3.79214 16.2238 3.85137 16.3113 3.94C17.2918 4.96024 18.0102 6.20305 18.405 7.56188C18.438 7.68206 18.4327 7.80952 18.3899 7.92656C18.3471 8.0436 18.2689 8.14441 18.1663 8.215L17.0813 8.9775C16.9171 9.09283 16.7831 9.24598 16.6906 9.424C16.5981 9.60203 16.5498 9.7997 16.5498 10.0003C16.5498 10.2009 16.5981 10.3986 16.6906 10.5766C16.7831 10.7547 16.9171 10.9078 17.0813 11.0231L18.1663 11.7856C18.2688 11.8562 18.3469 11.9569 18.3897 12.0738C18.4325 12.1907 18.4378 12.318 18.405 12.4381C18.0102 13.797 17.2918 15.0398 16.3113 16.06C16.2238 16.1485 16.1111 16.2077 15.9886 16.2293C15.8661 16.2509 15.7399 16.2339 15.6275 16.1806L14.5013 15.6619C14.3238 15.5802 14.1298 15.5412 13.9346 15.5481C13.7394 15.555 13.5485 15.6075 13.3773 15.7014C13.206 15.7954 13.0592 15.9281 12.9485 16.0891C12.8379 16.25 12.7664 16.4346 12.74 16.6281L12.5544 17.9881C12.5394 18.1071 12.4891 18.2189 12.41 18.309C12.3309 18.3991 12.2266 18.4635 12.1106 18.4938C11.4199 18.6647 10.7109 18.7507 9.99938 18.75C9.28782 18.7507 8.57884 18.6647 7.88813 18.4938C7.7721 18.4635 7.66782 18.3991 7.58872 18.309C7.50963 18.2189 7.45935 18.1071 7.44438 17.9881L7.25938 16.6281C7.233 16.4344 7.16158 16.2497 7.05083 16.0886C6.94009 15.9275 6.79311 15.7947 6.62171 15.7007C6.45031 15.6067 6.25926 15.5543 6.06391 15.5475C5.86856 15.5408 5.67435 15.5799 5.49688 15.6619L4.37188 16.1806C4.25939 16.234 4.13307 16.2511 4.01045 16.2295C3.88782 16.2079 3.77496 16.1486 3.6875 16.06C2.70691 15.0396 1.98845 13.7966 1.59375 12.4375C1.56079 12.3173 1.56607 12.1899 1.60886 12.0728C1.65164 11.9558 1.72981 11.855 1.8325 11.7844L2.91813 11.0219C3.08228 10.9066 3.21627 10.7534 3.30876 10.5754C3.40126 10.3974 3.44955 10.1997 3.44955 9.99907C3.44955 9.79845 3.40126 9.60078 3.30876 9.42275C3.21627 9.24473 3.08228 9.09158 2.91813 8.97625L1.8325 8.21375C1.72981 8.14316 1.65164 8.04235 1.60886 7.92531C1.56607 7.80827 1.56079 7.68081 1.59375 7.56063C1.98882 6.20247 2.70725 4.95971 3.6875 3.94ZM2.20125 7.71063L3.27688 8.46625C4.34 9.21313 4.34 10.7881 3.27688 11.535L2.20188 12.2906C2.5676 13.5341 3.22549 14.672 4.12063 15.6094L5.23563 15.095C5.50173 14.9724 5.79287 14.9138 6.0857 14.924C6.37853 14.9342 6.66489 15.0129 6.92181 15.1537C7.17874 15.2946 7.39907 15.4937 7.56515 15.7351C7.73123 15.9765 7.83842 16.2535 7.87813 16.5438L8.0625 17.8938C8.6825 18.045 9.33125 18.1256 10 18.1256C10.6524 18.1264 11.3025 18.0485 11.9363 17.8938L12.1206 16.5438C12.1603 16.2535 12.2675 15.9765 12.4336 15.7351C12.5997 15.4937 12.82 15.2946 13.0769 15.1537C13.3339 15.0129 13.6202 14.9342 13.9131 14.924C14.2059 14.9138 14.497 14.9724 14.7631 15.095L15.8788 15.6088C16.7739 14.6714 17.4318 13.5335 17.7975 12.29L16.7225 11.535C16.4762 11.362 16.2752 11.1323 16.1364 10.8652C15.9976 10.5982 15.9251 10.3016 15.9251 10.0006C15.9251 9.69965 15.9976 9.4031 16.1364 9.13604C16.2752 8.86897 16.4762 8.63924 16.7225 8.46625L17.7975 7.71063C17.4318 6.46717 16.7739 5.32925 15.8788 4.39188L14.7631 4.90625C14.497 5.02889 14.2059 5.08746 13.9131 5.07726C13.6202 5.06706 13.3339 4.98838 13.0769 4.84752C12.82 4.70666 12.5997 4.50755 12.4336 4.26615C12.2675 4.02476 12.1603 3.74781 12.1206 3.4575L11.9363 2.1075C11.3023 1.9525 10.652 1.87444 9.99938 1.875C9.33125 1.875 8.6825 1.95563 8.0625 2.10688L7.87813 3.45688C7.83842 3.74718 7.73123 4.02414 7.56515 4.26553C7.39907 4.50692 7.17874 4.70603 6.92181 4.84689C6.66489 4.98775 6.37853 5.06644 6.0857 5.07664C5.79287 5.08684 5.50173 5.02827 5.23563 4.90563L4.12063 4.39188C3.22549 5.32925 2.56697 6.46717 2.20125 7.71063Z" fill="#494949"/>
</svg>
