<svg width="29" height="27" viewBox="0 0 29 27" fill="none" xmlns="http://www.w3.org/2000/svg">
<ellipse cx="14.5" cy="13.5" rx="14.5" ry="13.5" fill="#F9FF9F"/>
<path d="M14.5 21C18.6421 21 22 17.6421 22 13.5C22 9.35786 18.6421 6 14.5 6C10.3579 6 7 9.35786 7 13.5C7 17.6421 10.3579 21 14.5 21Z" stroke="#A9972D" stroke-width="1.33333" stroke-linecap="round" stroke-linejoin="round"/>
<path d="M14.5 16.8335H14.5083V16.8418H14.5V16.8335Z" stroke="#A9972D" stroke-width="2" stroke-linejoin="round"/>
<path d="M13.3218 9.82183C13.6468 9.49683 14.0718 9.33433 14.4968 9.3335C14.7162 9.33311 14.9335 9.37604 15.1363 9.45984C15.3391 9.54364 15.5233 9.66666 15.6784 9.82183C16.0034 10.1468 16.1668 10.5735 16.1668 11.0002C16.1668 11.4268 16.0043 11.8535 15.6784 12.1785C15.5233 12.3337 15.3391 12.4567 15.1363 12.5405C14.9335 12.6243 14.7162 12.6672 14.4968 12.6668L14.5001 13.5002" stroke="#A9972D" stroke-width="1.33333" stroke-linecap="round" stroke-linejoin="round"/>
</svg>
