<svg width="24" height="24" viewBox="0 0 24 24" fill="none" xmlns="http://www.w3.org/2000/svg">
<path d="M12.7059 1.89474C12.7059 1.72723 12.6315 1.56659 12.4991 1.44814C12.3668 1.3297 12.1872 1.26316 12 1.26316C11.8128 1.26316 11.6332 1.3297 11.5009 1.44814C11.3685 1.56659 11.2941 1.72723 11.2941 1.89474V3.82737C8.11765 4.14316 5.64706 6.54316 5.64706 9.47368V16.9389L3.40235 18.9474H20.5976L18.3529 16.9389V9.47368C18.3529 6.54316 15.8824 4.14316 12.7059 3.82737V1.89474ZM12 0C12.5616 0 13.1003 0.199624 13.4974 0.554956C13.8945 0.910288 14.1176 1.39222 14.1176 1.89474V2.79158C17.3788 3.61263 19.7647 6.31579 19.7647 9.47368V16.4211L24 20.2105H0L4.23529 16.4211V9.47368C4.23529 6.31579 6.62118 3.61263 9.88235 2.79158V1.89474C9.88235 1.39222 10.1055 0.910288 10.5026 0.554956C10.8997 0.199624 11.4384 0 12 0ZM12 24C11.1864 24.0001 10.3977 23.7488 9.76736 23.2884C9.13707 22.828 8.7039 22.187 8.54118 21.4737H10.0094C10.1546 21.8423 10.424 22.1615 10.7806 22.3873C11.1371 22.6132 11.5632 22.7344 12 22.7344C12.4368 22.7344 12.8629 22.6132 13.2194 22.3873C13.576 22.1615 13.8454 21.8423 13.9906 21.4737H15.4588C15.2961 22.187 14.8629 22.828 14.2326 23.2884C13.6023 23.7488 12.8136 24.0001 12 24Z" fill="#59A1EE"/>
</svg>
