<svg width="25" height="29" viewBox="0 0 25 29" fill="none" xmlns="http://www.w3.org/2000/svg">
<path d="M1.60417 11.8888L0 12.0676L0.739583 17.0991H2.5625C3.36458 15.8823 4.35417 14.1653 4.35417 12.8422C4.35417 12.4253 4.28125 12.1027 4.10417 11.7812L2.64583 12.1148C2.73958 12.3407 2.80208 12.615 2.80208 13.0089C2.80208 13.7363 2.35417 14.7972 1.98958 15.4655L1.60417 11.8888ZM8.5 13.2119C8.5 12.389 7.97917 11.8054 7.0625 11.8054C5.39583 11.8054 4.58333 13.4633 4.58333 15.0244C4.58333 16.2412 5.08333 17.1946 6.46875 17.1946C7.02083 17.1946 7.58333 17.0629 7.94792 16.8611L8.14583 15.3591C7.625 15.6576 7.23958 15.776 6.82292 15.776C6.44063 15.776 6.16146 15.5392 6.15729 14.9531C7.0125 14.941 8.5 14.523 8.5 13.2119ZM6.1875 13.9877C6.22917 13.4149 6.61458 12.998 6.91667 12.998C7.08333 12.998 7.22917 13.1177 7.22917 13.3557C7.22917 13.8318 6.47917 13.9877 6.1875 13.9877ZM11.0313 17.0991H12.5938L13.0729 13.6179C13.0938 13.4294 13.124 13.16 13.125 12.9582C13.124 12.2682 12.8427 11.7933 12.0521 11.7933C11.4583 11.7933 11.0313 12.0676 10.7083 12.3057L10.6875 11.8888H9.33333L8.625 17.1003H10.1875L10.6875 13.4403C10.8125 13.369 11.0208 13.2615 11.2292 13.2615C11.375 13.2615 11.5 13.3098 11.5 13.5478L11.4688 13.9055L11.0313 17.0991ZM19.2188 11.7933C18.625 11.7933 18.2083 12.0084 17.7604 12.3661C17.5938 12.0326 17.2813 11.7933 16.7813 11.7933C16.2188 11.7933 15.8021 12.0555 15.4896 12.3178L15.4375 11.8888H14.1042L13.3854 17.0883H14.9583L15.4479 13.4391C15.5833 13.3678 15.7813 13.2602 15.9896 13.2602C16.1458 13.2602 16.2708 13.3195 16.2708 13.5817L16.25 13.8318L15.8021 17.0991H17.3646L17.8646 13.4391C18 13.3557 18.1979 13.2602 18.3854 13.2602C18.5417 13.2602 18.6667 13.3195 18.6667 13.5817L18.6458 13.8439L18.1979 17.0991H19.7604L20.2375 13.6336C20.2688 13.4173 20.2875 13.1938 20.2917 12.9618C20.2917 12.2706 20.0104 11.7933 19.2188 11.7933Z" fill="#3292C8"/>
<path d="M20.2398 13.6179L20.2377 13.6342L20.2366 13.6454L20.2398 13.6179Z" fill="#3292C8"/>
<path d="M23.1979 11.7935C21.4583 11.7935 20.6875 13.3317 20.6875 14.9774C20.6875 16.2292 21.1354 17.2189 22.4583 17.2189C24.25 17.2189 25 15.5369 25 13.9153C25 12.6876 24.5208 11.7935 23.1979 11.7935ZM22.6771 15.8353C22.3958 15.8353 22.2812 15.5369 22.2812 15.0487C22.2812 14.4167 22.4063 13.1649 23.0313 13.1649C23.3021 13.1649 23.3958 13.4634 23.3958 13.8802C23.3958 14.5243 23.2604 15.8353 22.6771 15.8353Z" fill="#3292C8"/>
</svg>
