<svg width="29" height="27" viewBox="0 0 29 27" fill="none" xmlns="http://www.w3.org/2000/svg">
<ellipse cx="14.5" cy="13.5" rx="14.5" ry="13.5" fill="#C6F7E7"/>
<path d="M18.4448 16.5681C18.2469 16.5681 18.057 16.6436 17.9171 16.7778C17.7771 16.9121 17.6985 17.0942 17.6985 17.284C17.6985 17.4739 17.7771 17.656 17.9171 17.7903C18.057 17.9245 18.2469 18 18.4448 18H21.4301C21.628 18 21.8179 17.9245 21.9578 17.7903C22.0978 17.656 22.1764 17.4739 22.1764 17.284C22.1764 17.0942 22.0978 16.9121 21.9578 16.7778C21.8179 16.6436 21.628 16.5681 21.4301 16.5681H18.4448ZM4.26465 10.125C4.26465 9.1756 4.6578 8.26513 5.35761 7.59383C6.05743 6.92254 7.00658 6.54541 7.99627 6.54541H21.4301C22.4198 6.54541 23.3689 6.92254 24.0687 7.59383C24.7686 8.26513 25.1617 9.1756 25.1617 10.125V17.284C25.1617 18.2334 24.7686 19.1439 24.0687 19.8152C23.3689 20.4865 22.4198 20.8636 21.4301 20.8636H7.99627C7.00658 20.8636 6.05743 20.4865 5.35761 19.8152C4.6578 19.1439 4.26465 18.2334 4.26465 17.284V10.125ZM23.6691 10.8409V10.125C23.6691 9.55534 23.4332 9.00906 23.0133 8.60628C22.5934 8.20351 22.0239 7.97723 21.4301 7.97723H7.99627C7.40245 7.97723 6.83296 8.20351 6.41307 8.60628C5.99319 9.00906 5.7573 9.55534 5.7573 10.125V10.8409H23.6691ZM5.7573 12.2727V17.284C5.7573 17.8537 5.99319 18.3999 6.41307 18.8027C6.83296 19.2055 7.40245 19.4318 7.99627 19.4318H21.4301C22.0239 19.4318 22.5934 19.2055 23.0133 18.8027C23.4332 18.3999 23.6691 17.8537 23.6691 17.284V12.2727H5.7573Z" fill="#439155"/>
</svg>
