<svg width="20" height="9" viewBox="0 0 20 9" fill="none" xmlns="http://www.w3.org/2000/svg">
<path d="M1.94722 1.12841L0.118864 1.11253V2.25682H3.14893L0 6.06454V7.03287H1.94722V8.14816H3.11555V7.03287H5.10171C5.1184 6.98826 5.12424 6.86797 5.01854 6.75775C4.84329 6.57406 4.70392 6.38207 4.57596 6.14064C4.51755 6.03305 4.47318 5.9042 4.45649 5.89371C4.06537 5.87678 1.81525 5.88116 1.81648 5.86773L4.96819 2.03665V1.12841H3.11555V0H1.94722V1.12841ZM10.3842 0.595695C10.3564 0.606192 10.3481 1.18614 10.3481 3.3826C10.3481 6.35058 10.3453 6.30072 10.4844 6.55527C10.6096 6.78357 10.9155 6.98826 11.2577 7.07224C11.4469 7.11947 12.0032 7.12472 12.2174 7.08273C12.4928 7.02763 12.5456 6.9489 12.4372 6.74684C12.3676 6.62087 12.2758 6.34533 12.2536 6.19313C12.223 6.01206 12.184 5.98319 11.9504 5.98844C11.8391 5.99106 11.7334 5.98319 11.7139 5.97269C11.5999 5.90447 11.5999 5.8861 11.5999 3.22777C11.5999 1.51942 11.5915 0.6613 11.572 0.627185C11.5442 0.57995 11.5081 0.577326 10.9795 0.57995C10.6708 0.57995 10.4009 0.587822 10.3842 0.595695ZM12.9351 0.603568C12.8989 0.624561 12.8934 0.96046 12.8934 3.36423C12.8934 5.95433 12.8961 6.11178 12.9462 6.29285C13.0408 6.64974 13.255 6.86755 13.6611 7.02763C13.8169 7.08798 13.8864 7.09848 14.2008 7.10635C14.6208 7.11685 14.835 7.08798 15.0492 6.98564C15.2606 6.88854 15.2662 6.82031 15.0854 6.57101C15.0131 6.47129 14.9018 6.30072 14.8406 6.19313L14.7293 5.99631L14.5262 5.99369C14.2731 5.98844 14.2481 5.97794 14.2008 5.8651C14.1646 5.789 14.1591 5.39799 14.1591 3.22777C14.1591 1.51942 14.1507 0.6613 14.1312 0.627185C14.1034 0.57995 14.0673 0.577326 13.5387 0.577326C13.23 0.577326 12.9573 0.590447 12.9351 0.603568Z" fill="#6D1ED4"/>
<path d="M6.88476 2.24373C6.87085 2.24898 6.76236 2.2726 6.64831 2.29621C5.9334 2.45104 5.30195 2.96801 5.0349 3.62406C4.88747 3.9862 4.83461 4.26699 4.83183 4.68424C4.82905 5.26944 4.95423 5.69981 5.24075 6.10919C5.56343 6.56842 6.03633 6.8807 6.64831 7.03815C6.85694 7.09064 6.94874 7.09851 7.4272 7.09851C7.90009 7.09851 7.99745 7.09064 8.19496 7.04078C8.68454 6.91219 9.1018 6.69963 9.43839 6.39785C9.65259 6.20891 9.64981 6.15642 9.43283 5.99897C9.34382 5.93336 9.18247 5.79166 9.07677 5.68144C8.94324 5.54761 8.86257 5.48462 8.82085 5.48462C8.7819 5.48462 8.69289 5.53711 8.60665 5.61583C8.30901 5.87038 7.93347 5.9911 7.4411 5.98847C6.99046 5.98585 6.66222 5.87563 6.45359 5.64995C6.34788 5.53711 6.21436 5.27994 6.18654 5.1356L6.16985 5.03851H7.90287C8.85701 5.03851 9.65537 5.02801 9.67484 5.01489C9.76664 4.95978 9.78889 4.57927 9.72213 4.16465C9.56357 3.1727 8.9349 2.50615 7.94738 2.28309C7.77213 2.24373 7.62748 2.23061 7.31593 2.23323C7.09339 2.23323 6.90145 2.23848 6.88476 2.24373ZM7.62748 3.25667C7.83055 3.29604 8.08091 3.42725 8.19774 3.55321C8.30623 3.66867 8.4175 3.87599 8.44531 4.00982L8.46478 4.09379H6.19767L6.21714 4.00982C6.30059 3.65555 6.62327 3.35902 7.02384 3.26455C7.20188 3.22256 7.44111 3.21993 7.62748 3.25667ZM16.9964 2.26735C16.0089 2.47466 15.3412 3.13071 15.1326 4.09904C15.0074 4.67112 15.077 5.33767 15.3134 5.81527C15.6361 6.47657 16.2231 6.90432 17.0242 7.05915C17.2773 7.10901 17.3775 7.11426 17.7753 7.10376C18.1119 7.09326 18.2927 7.07489 18.4485 7.03553C18.9241 6.91744 19.3414 6.70226 19.6613 6.41359C19.9061 6.19054 19.9061 6.18004 19.6418 5.97273C19.5194 5.87826 19.3553 5.72868 19.2774 5.64208C19.0966 5.44526 19.0493 5.44264 18.8462 5.61583C18.543 5.87563 18.1814 5.9911 17.6779 5.98847C16.9713 5.98585 16.5596 5.69981 16.4261 5.12248L16.4067 5.05439H19.9311C20.0507 4.97303 20.0062 4.11216 19.8616 3.71328C19.8338 3.63456 19.7586 3.47711 19.6975 3.36689C19.372 2.77907 18.8518 2.4143 18.1286 2.26997C17.8977 2.22274 17.2161 2.22274 16.9964 2.26735ZM17.8643 3.25667C18.0534 3.29604 18.2482 3.38788 18.3873 3.50597C18.5041 3.60832 18.6932 3.93109 18.6932 4.03081V4.09379H16.4345L16.4539 4.02032C16.5986 3.45874 17.2106 3.12546 17.8643 3.25667Z" fill="#6D1ED4"/>
</svg>
